<?xml version="1.0" encoding="UTF-8" standalone="no"?>
<!DOCTYPE svg PUBLIC "-//W3C//DTD SVG 1.1//EN"
 "http://www.w3.org/Graphics/SVG/1.1/DTD/svg11.dtd">
<!-- Generated by graphviz version 2.40.1 (20161225.0304)
 -->
<!-- Title: o2::framework::Partition&lt; T &gt; Pages: 1 -->
<svg width="204pt" height="237pt"
 viewBox="0.00 0.00 204.00 237.00" xmlns="http://www.w3.org/2000/svg" xmlns:xlink="http://www.w3.org/1999/xlink">
<g id="graph0" class="graph" transform="scale(1 1) rotate(0) translate(4 233)">
<title>o2::framework::Partition&lt; T &gt;</title>
<!-- Node2 -->
<g id="node1" class="node">
<title>Node2</title>
<polygon fill="#bfbfbf" stroke="#000000" points="29,-.5 29,-101.5 196,-101.5 196,-.5 29,-.5"/>
<text text-anchor="middle" x="112.5" y="-89.5" font-family="Helvetica,sans-Serif" font-size="10.00" fill="#000000">o2::framework::Partition&lt; T &gt;</text>
<polyline fill="none" stroke="#000000" points="29,-82.5 196,-82.5 "/>
<text text-anchor="middle" x="112.5" y="-70.5" font-family="Helvetica,sans-Serif" font-size="10.00" fill="#000000"> </text>
<polyline fill="none" stroke="#000000" points="29,-63.5 196,-63.5 "/>
<text text-anchor="start" x="37" y="-51.5" font-family="Helvetica,sans-Serif" font-size="10.00" fill="#000000">+ Partition()</text>
<text text-anchor="start" x="37" y="-40.5" font-family="Helvetica,sans-Serif" font-size="10.00" fill="#000000">+ setTable()</text>
<text text-anchor="start" x="37" y="-29.5" font-family="Helvetica,sans-Serif" font-size="10.00" fill="#000000">+ bindExternalIndices()</text>
<text text-anchor="start" x="37" y="-18.5" font-family="Helvetica,sans-Serif" font-size="10.00" fill="#000000">+ getBoundToExternalIndices()</text>
<text text-anchor="start" x="37" y="-7.5" font-family="Helvetica,sans-Serif" font-size="10.00" fill="#000000">+ getPartition()</text>
</g>
<!-- Node3 -->
<g id="node2" class="node">
<title>Node3</title>
<polygon fill="none" stroke="#bfbfbf" points="0,-149.5 0,-228.5 119,-228.5 119,-149.5 0,-149.5"/>
<text text-anchor="start" x="8" y="-216.5" font-family="Helvetica,sans-Serif" font-size="10.00" fill="#000000">unique_ptr&lt; o2::soa</text>
<text text-anchor="start" x="8" y="-205.5" font-family="Helvetica,sans-Serif" font-size="10.00" fill="#000000">::Filtered&lt; typename</text>
<text text-anchor="middle" x="59.5" y="-194.5" font-family="Helvetica,sans-Serif" font-size="10.00" fill="#000000"> T::table_t &gt; &gt;</text>
<polyline fill="none" stroke="#bfbfbf" points="0,-187.5 119,-187.5 "/>
<text text-anchor="middle" x="59.5" y="-175.5" font-family="Helvetica,sans-Serif" font-size="10.00" fill="#000000"> </text>
<polyline fill="none" stroke="#bfbfbf" points="0,-168.5 119,-168.5 "/>
<text text-anchor="middle" x="59.5" y="-156.5" font-family="Helvetica,sans-Serif" font-size="10.00" fill="#000000"> </text>
</g>
<!-- Node3&#45;&gt;Node2 -->
<g id="edge1" class="edge">
<title>Node3&#45;&gt;Node2</title>
<path fill="none" stroke="#404040" d="M74.4005,-149.1965C78.0104,-139.6258 81.8743,-129.4408 85.5,-120 86.3474,-117.7934 87.2123,-115.5481 88.0877,-113.2811"/>
<polygon fill="none" stroke="#404040" points="88.1845,-113.0313 86.6233,-105.9912 92.5213,-101.8423 94.0826,-108.8824 88.1845,-113.0313"/>
<text text-anchor="middle" x="114.5" y="-123" font-family="Helvetica,sans-Serif" font-size="10.00" fill="#000000"> +mFiltered</text>
</g>
<!-- Node4 -->
<g id="node3" class="node">
<title>Node4</title>
<polygon fill="none" stroke="#bfbfbf" points="137.5,-160.5 137.5,-217.5 193.5,-217.5 193.5,-160.5 137.5,-160.5"/>
<text text-anchor="middle" x="165.5" y="-205.5" font-family="Helvetica,sans-Serif" font-size="10.00" fill="#000000">NodePtr</text>
<polyline fill="none" stroke="#bfbfbf" points="137.5,-198.5 193.5,-198.5 "/>
<text text-anchor="middle" x="165.5" y="-186.5" font-family="Helvetica,sans-Serif" font-size="10.00" fill="#000000"> </text>
<polyline fill="none" stroke="#bfbfbf" points="137.5,-179.5 193.5,-179.5 "/>
<text text-anchor="middle" x="165.5" y="-167.5" font-family="Helvetica,sans-Serif" font-size="10.00" fill="#000000"> </text>
</g>
<!-- Node4&#45;&gt;Node2 -->
<g id="edge2" class="edge">
<title>Node4&#45;&gt;Node2</title>
<path fill="none" stroke="#404040" d="M157.1218,-160.2126C153.2861,-147.7382 148.4876,-133.0348 143.5,-120 142.6017,-117.6523 141.6644,-115.27 140.699,-112.8713"/>
<polygon fill="none" stroke="#404040" points="140.6188,-112.678 134.6236,-108.6707 136.0168,-101.5955 142.012,-105.6028 140.6188,-112.678"/>
<text text-anchor="middle" x="167.5" y="-123" font-family="Helvetica,sans-Serif" font-size="10.00" fill="#000000"> +mTree</text>
</g>
</g>
</svg>
