<?xml version="1.0" encoding="UTF-8" standalone="no"?>
<!DOCTYPE svg PUBLIC "-//W3C//DTD SVG 1.1//EN"
 "http://www.w3.org/Graphics/SVG/1.1/DTD/svg11.dtd">
<!-- Generated by graphviz version 2.40.1 (20161225.0304)
 -->
<!-- Title: FairMQDevice Pages: 1 -->
<svg width="1942pt" height="584pt"
 viewBox="0.00 0.00 1941.50 584.00" xmlns="http://www.w3.org/2000/svg" xmlns:xlink="http://www.w3.org/1999/xlink">
<g id="graph0" class="graph" transform="scale(1 1) rotate(0) translate(4 580)">
<title>FairMQDevice</title>
<!-- Node0 -->
<g id="node1" class="node">
<title>Node0</title>
<polygon fill="#bfbfbf" stroke="#000000" points="1123,-518.5 1123,-575.5 1206,-575.5 1206,-518.5 1123,-518.5"/>
<text text-anchor="middle" x="1164.5" y="-563.5" font-family="Helvetica,sans-Serif" font-size="10.00" fill="#000000">FairMQDevice</text>
<polyline fill="none" stroke="#000000" points="1123,-556.5 1206,-556.5 "/>
<text text-anchor="middle" x="1164.5" y="-544.5" font-family="Helvetica,sans-Serif" font-size="10.00" fill="#000000"> </text>
<polyline fill="none" stroke="#000000" points="1123,-537.5 1206,-537.5 "/>
<text text-anchor="middle" x="1164.5" y="-525.5" font-family="Helvetica,sans-Serif" font-size="10.00" fill="#000000"> </text>
</g>
<!-- Node1 -->
<g id="node2" class="node">
<title>Node1</title>
<g id="a_node2"><a xlink:href="../../d7/dd9/classo2_1_1alice__hlt_1_1EventSampler.html" target="_top" xlink:title="{o2::alice_hlt::EventSampler\n|+ OptionKeys\l|+ EventSampler()\l+ ~EventSampler()\l+ InitTask()\l+ Run()\l+ samplerLoop()\l+ GetOptionsDescription()\l}">
<polygon fill="none" stroke="#000000" points="407.5,-320 407.5,-432 557.5,-432 557.5,-320 407.5,-320"/>
<text text-anchor="middle" x="482.5" y="-420" font-family="Helvetica,sans-Serif" font-size="10.00" fill="#000000">o2::alice_hlt::EventSampler</text>
<polyline fill="none" stroke="#000000" points="407.5,-413 557.5,-413 "/>
<text text-anchor="start" x="415.5" y="-401" font-family="Helvetica,sans-Serif" font-size="10.00" fill="#000000">+ OptionKeys</text>
<polyline fill="none" stroke="#000000" points="407.5,-394 557.5,-394 "/>
<text text-anchor="start" x="415.5" y="-382" font-family="Helvetica,sans-Serif" font-size="10.00" fill="#000000">+ EventSampler()</text>
<text text-anchor="start" x="415.5" y="-371" font-family="Helvetica,sans-Serif" font-size="10.00" fill="#000000">+ ~EventSampler()</text>
<text text-anchor="start" x="415.5" y="-360" font-family="Helvetica,sans-Serif" font-size="10.00" fill="#000000">+ InitTask()</text>
<text text-anchor="start" x="415.5" y="-349" font-family="Helvetica,sans-Serif" font-size="10.00" fill="#000000">+ Run()</text>
<text text-anchor="start" x="415.5" y="-338" font-family="Helvetica,sans-Serif" font-size="10.00" fill="#000000">+ samplerLoop()</text>
<text text-anchor="start" x="415.5" y="-327" font-family="Helvetica,sans-Serif" font-size="10.00" fill="#000000">+ GetOptionsDescription()</text>
</a>
</g>
</g>
<!-- Node0&#45;&gt;Node1 -->
<g id="edge1" class="edge">
<title>Node0&#45;&gt;Node1</title>
<path fill="none" stroke="#191970" d="M1112.5301,-546.4251C984.939,-544.2187 659.8682,-533.5508 566.5,-482 545.4305,-470.3671 527.7669,-451.0564 514.1594,-432.0811"/>
<polygon fill="none" stroke="#191970" points="1112.7575,-549.9292 1122.813,-546.5919 1112.8711,-542.9301 1112.7575,-549.9292"/>
</g>
<!-- Node2 -->
<g id="node3" class="node">
<title>Node2</title>
<g id="a_node3"><a xlink:href="../../d5/df3/classo2_1_1alice__hlt_1_1WrapperDevice.html" target="_top" xlink:title="{o2::alice_hlt::WrapperDevice\n|+ OptionKeys\l|+ WrapperDevice()\l+ ~WrapperDevice()\l+ InitTask()\l+ Run()\l+ GetOptionsDescription()\l}">
<polygon fill="none" stroke="#000000" points="575.5,-325.5 575.5,-426.5 731.5,-426.5 731.5,-325.5 575.5,-325.5"/>
<text text-anchor="middle" x="653.5" y="-414.5" font-family="Helvetica,sans-Serif" font-size="10.00" fill="#000000">o2::alice_hlt::WrapperDevice</text>
<polyline fill="none" stroke="#000000" points="575.5,-407.5 731.5,-407.5 "/>
<text text-anchor="start" x="583.5" y="-395.5" font-family="Helvetica,sans-Serif" font-size="10.00" fill="#000000">+ OptionKeys</text>
<polyline fill="none" stroke="#000000" points="575.5,-388.5 731.5,-388.5 "/>
<text text-anchor="start" x="583.5" y="-376.5" font-family="Helvetica,sans-Serif" font-size="10.00" fill="#000000">+ WrapperDevice()</text>
<text text-anchor="start" x="583.5" y="-365.5" font-family="Helvetica,sans-Serif" font-size="10.00" fill="#000000">+ ~WrapperDevice()</text>
<text text-anchor="start" x="583.5" y="-354.5" font-family="Helvetica,sans-Serif" font-size="10.00" fill="#000000">+ InitTask()</text>
<text text-anchor="start" x="583.5" y="-343.5" font-family="Helvetica,sans-Serif" font-size="10.00" fill="#000000">+ Run()</text>
<text text-anchor="start" x="583.5" y="-332.5" font-family="Helvetica,sans-Serif" font-size="10.00" fill="#000000">+ GetOptionsDescription()</text>
</a>
</g>
</g>
<!-- Node0&#45;&gt;Node2 -->
<g id="edge2" class="edge">
<title>Node0&#45;&gt;Node2</title>
<path fill="none" stroke="#191970" d="M1112.9508,-543.6451C1014.556,-536.5062 804.1795,-517.489 741.5,-482 718.293,-468.8603 698.6078,-447.0582 683.779,-426.632"/>
<polygon fill="none" stroke="#191970" points="1112.7415,-547.139 1122.965,-544.3586 1113.239,-540.1567 1112.7415,-547.139"/>
</g>
<!-- Node3 -->
<g id="node4" class="node">
<title>Node3</title>
<g id="a_node4"><a xlink:href="../../db/d18/classo2_1_1base_1_1O2Device.html" target="_top" xlink:title="{o2::base::O2Device\n|+ monitoring\l|+ ~O2Device()\l+ GetMonitoring()\l+ Init()\l}">
<polygon fill="none" stroke="#000000" points="750,-336.5 750,-415.5 861,-415.5 861,-336.5 750,-336.5"/>
<text text-anchor="middle" x="805.5" y="-403.5" font-family="Helvetica,sans-Serif" font-size="10.00" fill="#000000">o2::base::O2Device</text>
<polyline fill="none" stroke="#000000" points="750,-396.5 861,-396.5 "/>
<text text-anchor="start" x="758" y="-384.5" font-family="Helvetica,sans-Serif" font-size="10.00" fill="#000000">+ monitoring</text>
<polyline fill="none" stroke="#000000" points="750,-377.5 861,-377.5 "/>
<text text-anchor="start" x="758" y="-365.5" font-family="Helvetica,sans-Serif" font-size="10.00" fill="#000000">+ ~O2Device()</text>
<text text-anchor="start" x="758" y="-354.5" font-family="Helvetica,sans-Serif" font-size="10.00" fill="#000000">+ GetMonitoring()</text>
<text text-anchor="start" x="758" y="-343.5" font-family="Helvetica,sans-Serif" font-size="10.00" fill="#000000">+ Init()</text>
</a>
</g>
</g>
<!-- Node0&#45;&gt;Node3 -->
<g id="edge3" class="edge">
<title>Node0&#45;&gt;Node3</title>
<path fill="none" stroke="#191970" d="M1112.9051,-540.5198C1039.3336,-530.4656 908.922,-509.3808 870.5,-482 847.5582,-465.6509 831.1153,-438.4249 820.5072,-415.6599"/>
<polygon fill="none" stroke="#191970" points="1112.5159,-543.9989 1122.8936,-541.8648 1113.4501,-537.0615 1112.5159,-543.9989"/>
</g>
<!-- Node12 -->
<g id="node13" class="node">
<title>Node12</title>
<g id="a_node13"><a xlink:href="../../dd/d1e/classo2_1_1devices_1_1EPNReceiverDevice.html" target="_top" xlink:title="Receives sub&#45;timeframes from the flpSenders and merges these into full timeframes. ">
<polygon fill="none" stroke="#000000" points="879.5,-276 879.5,-476 1065.5,-476 1065.5,-276 879.5,-276"/>
<text text-anchor="start" x="887.5" y="-464" font-family="Helvetica,sans-Serif" font-size="10.00" fill="#000000">o2::devices::EPNReceiver</text>
<text text-anchor="middle" x="972.5" y="-453" font-family="Helvetica,sans-Serif" font-size="10.00" fill="#000000">Device</text>
<polyline fill="none" stroke="#000000" points="879.5,-446 1065.5,-446 "/>
<text text-anchor="start" x="887.5" y="-434" font-family="Helvetica,sans-Serif" font-size="10.00" fill="#000000"># mTimeframeBuffer</text>
<text text-anchor="start" x="887.5" y="-423" font-family="Helvetica,sans-Serif" font-size="10.00" fill="#000000"># mDiscardedSet</text>
<text text-anchor="start" x="887.5" y="-412" font-family="Helvetica,sans-Serif" font-size="10.00" fill="#000000"># mNumFLPs</text>
<text text-anchor="start" x="887.5" y="-401" font-family="Helvetica,sans-Serif" font-size="10.00" fill="#000000"># mBufferTimeoutInMs</text>
<text text-anchor="start" x="887.5" y="-390" font-family="Helvetica,sans-Serif" font-size="10.00" fill="#000000"># mTestMode</text>
<text text-anchor="start" x="887.5" y="-379" font-family="Helvetica,sans-Serif" font-size="10.00" fill="#000000"># mInChannelName</text>
<text text-anchor="start" x="887.5" y="-368" font-family="Helvetica,sans-Serif" font-size="10.00" fill="#000000"># mOutChannelName</text>
<text text-anchor="start" x="887.5" y="-357" font-family="Helvetica,sans-Serif" font-size="10.00" fill="#000000"># mAckChannelName</text>
<polyline fill="none" stroke="#000000" points="879.5,-350 1065.5,-350 "/>
<text text-anchor="start" x="887.5" y="-338" font-family="Helvetica,sans-Serif" font-size="10.00" fill="#000000">+ EPNReceiverDevice()</text>
<text text-anchor="start" x="887.5" y="-327" font-family="Helvetica,sans-Serif" font-size="10.00" fill="#000000">+ ~EPNReceiverDevice()</text>
<text text-anchor="start" x="887.5" y="-316" font-family="Helvetica,sans-Serif" font-size="10.00" fill="#000000">+ InitTask()</text>
<text text-anchor="start" x="887.5" y="-305" font-family="Helvetica,sans-Serif" font-size="10.00" fill="#000000">+ PrintBuffer()</text>
<text text-anchor="start" x="887.5" y="-294" font-family="Helvetica,sans-Serif" font-size="10.00" fill="#000000">+ DiscardIncompleteTimeframes()</text>
<text text-anchor="start" x="887.5" y="-283" font-family="Helvetica,sans-Serif" font-size="10.00" fill="#000000"># Run()</text>
</a>
</g>
</g>
<!-- Node0&#45;&gt;Node12 -->
<g id="edge12" class="edge">
<title>Node0&#45;&gt;Node12</title>
<path fill="none" stroke="#191970" d="M1114.7622,-513.4978C1101.3205,-503.8012 1087.0337,-492.8838 1074.5,-482 1071.5111,-479.4045 1068.5101,-476.7348 1065.5096,-474.0092"/>
<polygon fill="none" stroke="#191970" points="1112.8239,-516.4143 1122.9992,-519.3664 1116.8857,-510.7132 1112.8239,-516.4143"/>
</g>
<!-- Node13 -->
<g id="node14" class="node">
<title>Node13</title>
<g id="a_node14"><a xlink:href="../../d4/d5e/classo2_1_1devices_1_1FLPSenderDevice.html" target="_top" xlink:title="{o2::devices::FLPSenderDevice\n||+ FLPSenderDevice()\l+ ~FLPSenderDevice()\l# InitTask()\l# Run()\l}">
<polygon fill="none" stroke="#000000" points="1083.5,-331 1083.5,-421 1245.5,-421 1245.5,-331 1083.5,-331"/>
<text text-anchor="middle" x="1164.5" y="-409" font-family="Helvetica,sans-Serif" font-size="10.00" fill="#000000">o2::devices::FLPSenderDevice</text>
<polyline fill="none" stroke="#000000" points="1083.5,-402 1245.5,-402 "/>
<text text-anchor="middle" x="1164.5" y="-390" font-family="Helvetica,sans-Serif" font-size="10.00" fill="#000000"> </text>
<polyline fill="none" stroke="#000000" points="1083.5,-383 1245.5,-383 "/>
<text text-anchor="start" x="1091.5" y="-371" font-family="Helvetica,sans-Serif" font-size="10.00" fill="#000000">+ FLPSenderDevice()</text>
<text text-anchor="start" x="1091.5" y="-360" font-family="Helvetica,sans-Serif" font-size="10.00" fill="#000000">+ ~FLPSenderDevice()</text>
<text text-anchor="start" x="1091.5" y="-349" font-family="Helvetica,sans-Serif" font-size="10.00" fill="#000000"># InitTask()</text>
<text text-anchor="start" x="1091.5" y="-338" font-family="Helvetica,sans-Serif" font-size="10.00" fill="#000000"># Run()</text>
</a>
</g>
</g>
<!-- Node0&#45;&gt;Node13 -->
<g id="edge13" class="edge">
<title>Node0&#45;&gt;Node13</title>
<path fill="none" stroke="#191970" d="M1164.5,-508.1936C1164.5,-482.3231 1164.5,-448.2256 1164.5,-421.1405"/>
<polygon fill="none" stroke="#191970" points="1161.0001,-508.3784 1164.5,-518.3784 1168.0001,-508.3785 1161.0001,-508.3784"/>
</g>
<!-- Node14 -->
<g id="node15" class="node">
<title>Node14</title>
<g id="a_node15"><a xlink:href="../../d7/d4c/classo2_1_1devices_1_1O2HitMerger.html" target="_top" xlink:title="{o2::devices::O2HitMerger\n||+ O2HitMerger()\l+ ~O2HitMerger()\l}">
<polygon fill="none" stroke="#000000" points="1263.5,-342 1263.5,-410 1403.5,-410 1403.5,-342 1263.5,-342"/>
<text text-anchor="middle" x="1333.5" y="-398" font-family="Helvetica,sans-Serif" font-size="10.00" fill="#000000">o2::devices::O2HitMerger</text>
<polyline fill="none" stroke="#000000" points="1263.5,-391 1403.5,-391 "/>
<text text-anchor="middle" x="1333.5" y="-379" font-family="Helvetica,sans-Serif" font-size="10.00" fill="#000000"> </text>
<polyline fill="none" stroke="#000000" points="1263.5,-372 1403.5,-372 "/>
<text text-anchor="start" x="1271.5" y="-360" font-family="Helvetica,sans-Serif" font-size="10.00" fill="#000000">+ O2HitMerger()</text>
<text text-anchor="start" x="1271.5" y="-349" font-family="Helvetica,sans-Serif" font-size="10.00" fill="#000000">+ ~O2HitMerger()</text>
</a>
</g>
</g>
<!-- Node0&#45;&gt;Node14 -->
<g id="edge14" class="edge">
<title>Node0&#45;&gt;Node14</title>
<path fill="none" stroke="#191970" d="M1214.7858,-514.7885C1228.349,-505.0321 1242.5609,-493.7615 1254.5,-482 1276.573,-460.2555 1297.3351,-431.9669 1312.0306,-410.0832"/>
<polygon fill="none" stroke="#191970" points="1212.6114,-512.0389 1206.4506,-520.6584 1216.6419,-517.7621 1212.6114,-512.0389"/>
</g>
<!-- Node15 -->
<g id="node16" class="node">
<title>Node15</title>
<g id="a_node16"><a xlink:href="../../d3/d9a/classo2_1_1devices_1_1O2PrimaryServerDevice.html" target="_top" xlink:title="{o2::devices::O2PrimaryServer\lDevice\n||+ O2PrimaryServerDevice()\l+ ~O2PrimaryServerDevice()\l# initGenerator()\l# generateEvent()\l# InitTask()\l# HandleConfigRequest()\l# ConditionalRun()\l# HandleRequest()\l}">
<polygon fill="none" stroke="#000000" points="1422,-303.5 1422,-448.5 1583,-448.5 1583,-303.5 1422,-303.5"/>
<text text-anchor="start" x="1430" y="-436.5" font-family="Helvetica,sans-Serif" font-size="10.00" fill="#000000">o2::devices::O2PrimaryServer</text>
<text text-anchor="middle" x="1502.5" y="-425.5" font-family="Helvetica,sans-Serif" font-size="10.00" fill="#000000">Device</text>
<polyline fill="none" stroke="#000000" points="1422,-418.5 1583,-418.5 "/>
<text text-anchor="middle" x="1502.5" y="-406.5" font-family="Helvetica,sans-Serif" font-size="10.00" fill="#000000"> </text>
<polyline fill="none" stroke="#000000" points="1422,-399.5 1583,-399.5 "/>
<text text-anchor="start" x="1430" y="-387.5" font-family="Helvetica,sans-Serif" font-size="10.00" fill="#000000">+ O2PrimaryServerDevice()</text>
<text text-anchor="start" x="1430" y="-376.5" font-family="Helvetica,sans-Serif" font-size="10.00" fill="#000000">+ ~O2PrimaryServerDevice()</text>
<text text-anchor="start" x="1430" y="-365.5" font-family="Helvetica,sans-Serif" font-size="10.00" fill="#000000"># initGenerator()</text>
<text text-anchor="start" x="1430" y="-354.5" font-family="Helvetica,sans-Serif" font-size="10.00" fill="#000000"># generateEvent()</text>
<text text-anchor="start" x="1430" y="-343.5" font-family="Helvetica,sans-Serif" font-size="10.00" fill="#000000"># InitTask()</text>
<text text-anchor="start" x="1430" y="-332.5" font-family="Helvetica,sans-Serif" font-size="10.00" fill="#000000"># HandleConfigRequest()</text>
<text text-anchor="start" x="1430" y="-321.5" font-family="Helvetica,sans-Serif" font-size="10.00" fill="#000000"># ConditionalRun()</text>
<text text-anchor="start" x="1430" y="-310.5" font-family="Helvetica,sans-Serif" font-size="10.00" fill="#000000"># HandleRequest()</text>
</a>
</g>
</g>
<!-- Node0&#45;&gt;Node15 -->
<g id="edge15" class="edge">
<title>Node0&#45;&gt;Node15</title>
<path fill="none" stroke="#191970" d="M1216.3051,-542.5861C1269.1372,-536.0814 1351.7514,-520.221 1412.5,-482 1426.7012,-473.065 1439.825,-461.1689 1451.4096,-448.5779"/>
<polygon fill="none" stroke="#191970" points="1215.6802,-539.135 1206.1511,-543.7661 1216.4883,-546.0882 1215.6802,-539.135"/>
</g>
<!-- Node16 -->
<g id="node17" class="node">
<title>Node16</title>
<g id="a_node17"><a xlink:href="../../db/dd9/classo2_1_1devices_1_1O2SimDevice.html" target="_top" xlink:title="{o2::devices::O2SimDevice\n||+ O2SimDevice()\l+ O2SimDevice()\l+ ~O2SimDevice()\l+ lateInit()\l+ Kernel()\l+ querySimConfig()\l+ initSim()\l# InitTask()\l# ConditionalRun()\l# PostRun()\l# CustomCleanup()\l}">
<polygon fill="none" stroke="#000000" points="1601.5,-292.5 1601.5,-459.5 1745.5,-459.5 1745.5,-292.5 1601.5,-292.5"/>
<text text-anchor="middle" x="1673.5" y="-447.5" font-family="Helvetica,sans-Serif" font-size="10.00" fill="#000000">o2::devices::O2SimDevice</text>
<polyline fill="none" stroke="#000000" points="1601.5,-440.5 1745.5,-440.5 "/>
<text text-anchor="middle" x="1673.5" y="-428.5" font-family="Helvetica,sans-Serif" font-size="10.00" fill="#000000"> </text>
<polyline fill="none" stroke="#000000" points="1601.5,-421.5 1745.5,-421.5 "/>
<text text-anchor="start" x="1609.5" y="-409.5" font-family="Helvetica,sans-Serif" font-size="10.00" fill="#000000">+ O2SimDevice()</text>
<text text-anchor="start" x="1609.5" y="-398.5" font-family="Helvetica,sans-Serif" font-size="10.00" fill="#000000">+ O2SimDevice()</text>
<text text-anchor="start" x="1609.5" y="-387.5" font-family="Helvetica,sans-Serif" font-size="10.00" fill="#000000">+ ~O2SimDevice()</text>
<text text-anchor="start" x="1609.5" y="-376.5" font-family="Helvetica,sans-Serif" font-size="10.00" fill="#000000">+ lateInit()</text>
<text text-anchor="start" x="1609.5" y="-365.5" font-family="Helvetica,sans-Serif" font-size="10.00" fill="#000000">+ Kernel()</text>
<text text-anchor="start" x="1609.5" y="-354.5" font-family="Helvetica,sans-Serif" font-size="10.00" fill="#000000">+ querySimConfig()</text>
<text text-anchor="start" x="1609.5" y="-343.5" font-family="Helvetica,sans-Serif" font-size="10.00" fill="#000000">+ initSim()</text>
<text text-anchor="start" x="1609.5" y="-332.5" font-family="Helvetica,sans-Serif" font-size="10.00" fill="#000000"># InitTask()</text>
<text text-anchor="start" x="1609.5" y="-321.5" font-family="Helvetica,sans-Serif" font-size="10.00" fill="#000000"># ConditionalRun()</text>
<text text-anchor="start" x="1609.5" y="-310.5" font-family="Helvetica,sans-Serif" font-size="10.00" fill="#000000"># PostRun()</text>
<text text-anchor="start" x="1609.5" y="-299.5" font-family="Helvetica,sans-Serif" font-size="10.00" fill="#000000"># CustomCleanup()</text>
</a>
</g>
</g>
<!-- Node0&#45;&gt;Node16 -->
<g id="edge16" class="edge">
<title>Node0&#45;&gt;Node16</title>
<path fill="none" stroke="#191970" d="M1216.4138,-543.9573C1316.0355,-537.3413 1529.7237,-519.1629 1592.5,-482 1602.5647,-476.0418 1611.8106,-468.3094 1620.1691,-459.7347"/>
<polygon fill="none" stroke="#191970" points="1216.0292,-540.4748 1206.2775,-544.6166 1216.4836,-547.4601 1216.0292,-540.4748"/>
</g>
<!-- Node17 -->
<g id="node18" class="node">
<title>Node17</title>
<g id="a_node18"><a xlink:href="../../d4/d56/classo2_1_1framework_1_1DataProcessingDevice.html" target="_top" xlink:title="{o2::framework::DataProcessing\lDevice\n||+ DataProcessingDevice()\l+ Init()\l+ InitTask()\l+ PreRun()\l+ PostRun()\l+ Reset()\l+ ResetTask()\l+ ConditionalRun()\l+ SetErrorPolicy()\l+ bindService()\l# doRun()\l# handleData()\l# tryDispatchComputation()\l# error()\l}">
<polygon fill="none" stroke="#000000" points="1763.5,-270.5 1763.5,-481.5 1933.5,-481.5 1933.5,-270.5 1763.5,-270.5"/>
<text text-anchor="start" x="1771.5" y="-469.5" font-family="Helvetica,sans-Serif" font-size="10.00" fill="#000000">o2::framework::DataProcessing</text>
<text text-anchor="middle" x="1848.5" y="-458.5" font-family="Helvetica,sans-Serif" font-size="10.00" fill="#000000">Device</text>
<polyline fill="none" stroke="#000000" points="1763.5,-451.5 1933.5,-451.5 "/>
<text text-anchor="middle" x="1848.5" y="-439.5" font-family="Helvetica,sans-Serif" font-size="10.00" fill="#000000"> </text>
<polyline fill="none" stroke="#000000" points="1763.5,-432.5 1933.5,-432.5 "/>
<text text-anchor="start" x="1771.5" y="-420.5" font-family="Helvetica,sans-Serif" font-size="10.00" fill="#000000">+ DataProcessingDevice()</text>
<text text-anchor="start" x="1771.5" y="-409.5" font-family="Helvetica,sans-Serif" font-size="10.00" fill="#000000">+ Init()</text>
<text text-anchor="start" x="1771.5" y="-398.5" font-family="Helvetica,sans-Serif" font-size="10.00" fill="#000000">+ InitTask()</text>
<text text-anchor="start" x="1771.5" y="-387.5" font-family="Helvetica,sans-Serif" font-size="10.00" fill="#000000">+ PreRun()</text>
<text text-anchor="start" x="1771.5" y="-376.5" font-family="Helvetica,sans-Serif" font-size="10.00" fill="#000000">+ PostRun()</text>
<text text-anchor="start" x="1771.5" y="-365.5" font-family="Helvetica,sans-Serif" font-size="10.00" fill="#000000">+ Reset()</text>
<text text-anchor="start" x="1771.5" y="-354.5" font-family="Helvetica,sans-Serif" font-size="10.00" fill="#000000">+ ResetTask()</text>
<text text-anchor="start" x="1771.5" y="-343.5" font-family="Helvetica,sans-Serif" font-size="10.00" fill="#000000">+ ConditionalRun()</text>
<text text-anchor="start" x="1771.5" y="-332.5" font-family="Helvetica,sans-Serif" font-size="10.00" fill="#000000">+ SetErrorPolicy()</text>
<text text-anchor="start" x="1771.5" y="-321.5" font-family="Helvetica,sans-Serif" font-size="10.00" fill="#000000">+ bindService()</text>
<text text-anchor="start" x="1771.5" y="-310.5" font-family="Helvetica,sans-Serif" font-size="10.00" fill="#000000"># doRun()</text>
<text text-anchor="start" x="1771.5" y="-299.5" font-family="Helvetica,sans-Serif" font-size="10.00" fill="#000000"># handleData()</text>
<text text-anchor="start" x="1771.5" y="-288.5" font-family="Helvetica,sans-Serif" font-size="10.00" fill="#000000"># tryDispatchComputation()</text>
<text text-anchor="start" x="1771.5" y="-277.5" font-family="Helvetica,sans-Serif" font-size="10.00" fill="#000000"># error()</text>
</a>
</g>
</g>
<!-- Node0&#45;&gt;Node17 -->
<g id="edge17" class="edge">
<title>Node0&#45;&gt;Node17</title>
<path fill="none" stroke="#191970" d="M1216.5088,-546.0128C1342.6345,-542.8723 1661.2516,-530.2534 1754.5,-482 1757.4491,-480.4739 1760.3485,-478.8141 1763.1954,-477.0387"/>
<polygon fill="none" stroke="#191970" points="1216.2509,-542.5179 1206.3373,-546.2558 1216.4181,-549.5159 1216.2509,-542.5179"/>
</g>
<!-- Node4 -->
<g id="node5" class="node">
<title>Node4</title>
<g id="a_node5"><a xlink:href="../../d0/d59/classo2_1_1data__flow_1_1FakeTimeframeGeneratorDevice.html" target="_top" xlink:title="A device which writes to file the timeframes. ">
<polygon fill="none" stroke="#000000" points="0,-44.5 0,-189.5 203,-189.5 203,-44.5 0,-44.5"/>
<text text-anchor="start" x="8" y="-177.5" font-family="Helvetica,sans-Serif" font-size="10.00" fill="#000000">o2::data_flow::FakeTimeframe</text>
<text text-anchor="middle" x="101.5" y="-166.5" font-family="Helvetica,sans-Serif" font-size="10.00" fill="#000000">GeneratorDevice</text>
<polyline fill="none" stroke="#000000" points="0,-159.5 203,-159.5 "/>
<text text-anchor="start" x="8" y="-147.5" font-family="Helvetica,sans-Serif" font-size="10.00" fill="#000000">+ OptionKeyOutputChannelName</text>
<text text-anchor="start" x="8" y="-136.5" font-family="Helvetica,sans-Serif" font-size="10.00" fill="#000000">+ OptionKeyMaxTimeframes</text>
<text text-anchor="start" x="8" y="-125.5" font-family="Helvetica,sans-Serif" font-size="10.00" fill="#000000"># mOutChannelName</text>
<text text-anchor="start" x="8" y="-114.5" font-family="Helvetica,sans-Serif" font-size="10.00" fill="#000000"># mMaxTimeframes</text>
<text text-anchor="start" x="8" y="-103.5" font-family="Helvetica,sans-Serif" font-size="10.00" fill="#000000"># mTimeframeCount</text>
<polyline fill="none" stroke="#000000" points="0,-96.5 203,-96.5 "/>
<text text-anchor="start" x="8" y="-84.5" font-family="Helvetica,sans-Serif" font-size="10.00" fill="#000000">+ FakeTimeframeGeneratorDevice()</text>
<text text-anchor="start" x="8" y="-73.5" font-family="Helvetica,sans-Serif" font-size="10.00" fill="#000000">+ ~FakeTimeframeGeneratorDevice()</text>
<text text-anchor="start" x="8" y="-62.5" font-family="Helvetica,sans-Serif" font-size="10.00" fill="#000000">+ InitTask()</text>
<text text-anchor="start" x="8" y="-51.5" font-family="Helvetica,sans-Serif" font-size="10.00" fill="#000000"># ConditionalRun()</text>
</a>
</g>
</g>
<!-- Node3&#45;&gt;Node4 -->
<g id="edge4" class="edge">
<title>Node3&#45;&gt;Node4</title>
<path fill="none" stroke="#191970" d="M787.6237,-327.1252C777.2371,-305.8917 761.8945,-282.9528 740.5,-270 639.8955,-209.0915 318.9094,-284.0815 212.5,-234 190.713,-223.746 171.0373,-207.1774 154.5132,-189.6942"/>
<polygon fill="none" stroke="#191970" points="784.5391,-328.7938 791.9127,-336.4018 790.8929,-325.8561 784.5391,-328.7938"/>
</g>
<!-- Node5 -->
<g id="node6" class="node">
<title>Node5</title>
<g id="a_node6"><a xlink:href="../../d7/d94/classo2_1_1data__flow_1_1HeartbeatSampler.html" target="_top" xlink:title="A sampler for heartbeat triggers. ">
<polygon fill="none" stroke="#000000" points="221.5,-61 221.5,-173 401.5,-173 401.5,-61 221.5,-61"/>
<text text-anchor="start" x="229.5" y="-161" font-family="Helvetica,sans-Serif" font-size="10.00" fill="#000000">o2::data_flow::Heartbeat</text>
<text text-anchor="middle" x="311.5" y="-150" font-family="Helvetica,sans-Serif" font-size="10.00" fill="#000000">Sampler</text>
<polyline fill="none" stroke="#000000" points="221.5,-143 401.5,-143 "/>
<text text-anchor="start" x="229.5" y="-131" font-family="Helvetica,sans-Serif" font-size="10.00" fill="#000000">+ OptionKeyOutputChannelName</text>
<text text-anchor="start" x="229.5" y="-120" font-family="Helvetica,sans-Serif" font-size="10.00" fill="#000000">+ OptionKeyPeriod</text>
<polyline fill="none" stroke="#000000" points="221.5,-113 401.5,-113 "/>
<text text-anchor="start" x="229.5" y="-101" font-family="Helvetica,sans-Serif" font-size="10.00" fill="#000000">+ HeartbeatSampler()</text>
<text text-anchor="start" x="229.5" y="-90" font-family="Helvetica,sans-Serif" font-size="10.00" fill="#000000">+ ~HeartbeatSampler()</text>
<text text-anchor="start" x="229.5" y="-79" font-family="Helvetica,sans-Serif" font-size="10.00" fill="#000000"># InitTask()</text>
<text text-anchor="start" x="229.5" y="-68" font-family="Helvetica,sans-Serif" font-size="10.00" fill="#000000"># ConditionalRun()</text>
</a>
</g>
</g>
<!-- Node3&#45;&gt;Node5 -->
<g id="edge5" class="edge">
<title>Node3&#45;&gt;Node5</title>
<path fill="none" stroke="#191970" d="M787.2655,-327.2745C776.8292,-306.1914 761.5478,-283.3339 740.5,-270 615.8677,-191.0449 540.7736,-303.2524 410.5,-234 384.1856,-220.0115 361.9471,-195.8684 345.2548,-173.1335"/>
<polygon fill="none" stroke="#191970" points="784.1683,-328.9135 791.5833,-336.4811 790.5059,-325.9411 784.1683,-328.9135"/>
</g>
<!-- Node6 -->
<g id="node7" class="node">
<title>Node6</title>
<g id="a_node7"><a xlink:href="../../d9/d2b/classo2_1_1data__flow_1_1SubframeBuilderDevice.html" target="_top" xlink:title="{o2::data_flow::SubframeBuilder\lDevice\n|+ OptionKeyInputChannelName\l+ OptionKeyOutputChannelName\l+ OptionKeyOrbitDuration\l+ OptionKeyOrbitsPerTimeframe\l+ OptionKeyInDataFile\l+ OptionKeyDetector\l+ OptionKeyFLPId\l+ OptionKeyStripHBF\l+ DefaultOrbitDuration\l+ DefaultOrbitsPerTimeframe\l+ DefaultHeartbeatStart\l|+ SubframeBuilderDevice()\l+ ~SubframeBuilderDevice()\l# InitTask()\l# HandleData()\l# BuildAndSendFrame()\l}">
<polygon fill="none" stroke="#000000" points="419.5,-6 419.5,-228 599.5,-228 599.5,-6 419.5,-6"/>
<text text-anchor="start" x="427.5" y="-216" font-family="Helvetica,sans-Serif" font-size="10.00" fill="#000000">o2::data_flow::SubframeBuilder</text>
<text text-anchor="middle" x="509.5" y="-205" font-family="Helvetica,sans-Serif" font-size="10.00" fill="#000000">Device</text>
<polyline fill="none" stroke="#000000" points="419.5,-198 599.5,-198 "/>
<text text-anchor="start" x="427.5" y="-186" font-family="Helvetica,sans-Serif" font-size="10.00" fill="#000000">+ OptionKeyInputChannelName</text>
<text text-anchor="start" x="427.5" y="-175" font-family="Helvetica,sans-Serif" font-size="10.00" fill="#000000">+ OptionKeyOutputChannelName</text>
<text text-anchor="start" x="427.5" y="-164" font-family="Helvetica,sans-Serif" font-size="10.00" fill="#000000">+ OptionKeyOrbitDuration</text>
<text text-anchor="start" x="427.5" y="-153" font-family="Helvetica,sans-Serif" font-size="10.00" fill="#000000">+ OptionKeyOrbitsPerTimeframe</text>
<text text-anchor="start" x="427.5" y="-142" font-family="Helvetica,sans-Serif" font-size="10.00" fill="#000000">+ OptionKeyInDataFile</text>
<text text-anchor="start" x="427.5" y="-131" font-family="Helvetica,sans-Serif" font-size="10.00" fill="#000000">+ OptionKeyDetector</text>
<text text-anchor="start" x="427.5" y="-120" font-family="Helvetica,sans-Serif" font-size="10.00" fill="#000000">+ OptionKeyFLPId</text>
<text text-anchor="start" x="427.5" y="-109" font-family="Helvetica,sans-Serif" font-size="10.00" fill="#000000">+ OptionKeyStripHBF</text>
<text text-anchor="start" x="427.5" y="-98" font-family="Helvetica,sans-Serif" font-size="10.00" fill="#000000">+ DefaultOrbitDuration</text>
<text text-anchor="start" x="427.5" y="-87" font-family="Helvetica,sans-Serif" font-size="10.00" fill="#000000">+ DefaultOrbitsPerTimeframe</text>
<text text-anchor="start" x="427.5" y="-76" font-family="Helvetica,sans-Serif" font-size="10.00" fill="#000000">+ DefaultHeartbeatStart</text>
<polyline fill="none" stroke="#000000" points="419.5,-69 599.5,-69 "/>
<text text-anchor="start" x="427.5" y="-57" font-family="Helvetica,sans-Serif" font-size="10.00" fill="#000000">+ SubframeBuilderDevice()</text>
<text text-anchor="start" x="427.5" y="-46" font-family="Helvetica,sans-Serif" font-size="10.00" fill="#000000">+ ~SubframeBuilderDevice()</text>
<text text-anchor="start" x="427.5" y="-35" font-family="Helvetica,sans-Serif" font-size="10.00" fill="#000000"># InitTask()</text>
<text text-anchor="start" x="427.5" y="-24" font-family="Helvetica,sans-Serif" font-size="10.00" fill="#000000"># HandleData()</text>
<text text-anchor="start" x="427.5" y="-13" font-family="Helvetica,sans-Serif" font-size="10.00" fill="#000000"># BuildAndSendFrame()</text>
</a>
</g>
</g>
<!-- Node3&#45;&gt;Node6 -->
<g id="edge6" class="edge">
<title>Node3&#45;&gt;Node6</title>
<path fill="none" stroke="#191970" d="M785.506,-327.2825C774.8962,-306.8989 759.9692,-284.6014 740.5,-270 691.852,-233.5151 659.7807,-266.6812 608.5,-234 605.4707,-232.0695 602.4857,-230.0171 599.5485,-227.8613"/>
<polygon fill="none" stroke="#191970" points="782.492,-329.0824 790.0778,-336.4788 788.7602,-325.9662 782.492,-329.0824"/>
</g>
<!-- Node7 -->
<g id="node8" class="node">
<title>Node7</title>
<g id="a_node8"><a xlink:href="../../d2/de9/classo2_1_1data__flow_1_1TimeframeReaderDevice.html" target="_top" xlink:title="A device which writes to file the timeframes. ">
<polygon fill="none" stroke="#000000" points="617.5,-39 617.5,-195 797.5,-195 797.5,-39 617.5,-39"/>
<text text-anchor="start" x="625.5" y="-183" font-family="Helvetica,sans-Serif" font-size="10.00" fill="#000000">o2::data_flow::Timeframe</text>
<text text-anchor="middle" x="707.5" y="-172" font-family="Helvetica,sans-Serif" font-size="10.00" fill="#000000">ReaderDevice</text>
<polyline fill="none" stroke="#000000" points="617.5,-165 797.5,-165 "/>
<text text-anchor="start" x="625.5" y="-153" font-family="Helvetica,sans-Serif" font-size="10.00" fill="#000000">+ OptionKeyOutputChannelName</text>
<text text-anchor="start" x="625.5" y="-142" font-family="Helvetica,sans-Serif" font-size="10.00" fill="#000000">+ OptionKeyInputFileName</text>
<text text-anchor="start" x="625.5" y="-131" font-family="Helvetica,sans-Serif" font-size="10.00" fill="#000000"># mOutChannelName</text>
<text text-anchor="start" x="625.5" y="-120" font-family="Helvetica,sans-Serif" font-size="10.00" fill="#000000"># mInFileName</text>
<text text-anchor="start" x="625.5" y="-109" font-family="Helvetica,sans-Serif" font-size="10.00" fill="#000000"># mFile</text>
<text text-anchor="start" x="625.5" y="-98" font-family="Helvetica,sans-Serif" font-size="10.00" fill="#000000"># mSeen</text>
<polyline fill="none" stroke="#000000" points="617.5,-91 797.5,-91 "/>
<text text-anchor="start" x="625.5" y="-79" font-family="Helvetica,sans-Serif" font-size="10.00" fill="#000000">+ TimeframeReaderDevice()</text>
<text text-anchor="start" x="625.5" y="-68" font-family="Helvetica,sans-Serif" font-size="10.00" fill="#000000">+ ~TimeframeReaderDevice()</text>
<text text-anchor="start" x="625.5" y="-57" font-family="Helvetica,sans-Serif" font-size="10.00" fill="#000000">+ InitTask()</text>
<text text-anchor="start" x="625.5" y="-46" font-family="Helvetica,sans-Serif" font-size="10.00" fill="#000000"># ConditionalRun()</text>
</a>
</g>
</g>
<!-- Node3&#45;&gt;Node7 -->
<g id="edge7" class="edge">
<title>Node3&#45;&gt;Node7</title>
<path fill="none" stroke="#191970" d="M786.8812,-326.7931C772.8326,-289.6647 753.2804,-237.9912 737.0964,-195.2191"/>
<polygon fill="none" stroke="#191970" points="783.6967,-328.2673 790.5092,-336.3815 790.2438,-325.79 783.6967,-328.2673"/>
</g>
<!-- Node8 -->
<g id="node9" class="node">
<title>Node8</title>
<g id="a_node9"><a xlink:href="../../de/df1/classo2_1_1data__flow_1_1TimeframeValidatorDevice.html" target="_top" xlink:title="A validating device for time frame data (coming from EPN) ">
<polygon fill="none" stroke="#000000" points="816,-61 816,-173 991,-173 991,-61 816,-61"/>
<text text-anchor="start" x="824" y="-161" font-family="Helvetica,sans-Serif" font-size="10.00" fill="#000000">o2::data_flow::Timeframe</text>
<text text-anchor="middle" x="903.5" y="-150" font-family="Helvetica,sans-Serif" font-size="10.00" fill="#000000">ValidatorDevice</text>
<polyline fill="none" stroke="#000000" points="816,-143 991,-143 "/>
<text text-anchor="start" x="824" y="-131" font-family="Helvetica,sans-Serif" font-size="10.00" fill="#000000">+ OptionKeyInputChannelName</text>
<text text-anchor="start" x="824" y="-120" font-family="Helvetica,sans-Serif" font-size="10.00" fill="#000000"># mInChannelName</text>
<polyline fill="none" stroke="#000000" points="816,-113 991,-113 "/>
<text text-anchor="start" x="824" y="-101" font-family="Helvetica,sans-Serif" font-size="10.00" fill="#000000">+ TimeframeValidatorDevice()</text>
<text text-anchor="start" x="824" y="-90" font-family="Helvetica,sans-Serif" font-size="10.00" fill="#000000">+ ~TimeframeValidatorDevice()</text>
<text text-anchor="start" x="824" y="-79" font-family="Helvetica,sans-Serif" font-size="10.00" fill="#000000">+ InitTask()</text>
<text text-anchor="start" x="824" y="-68" font-family="Helvetica,sans-Serif" font-size="10.00" fill="#000000"># Run()</text>
</a>
</g>
</g>
<!-- Node3&#45;&gt;Node8 -->
<g id="edge8" class="edge">
<title>Node3&#45;&gt;Node8</title>
<path fill="none" stroke="#191970" d="M824.1066,-326.8255C840.6482,-283.1084 864.827,-219.2073 882.1507,-173.4231"/>
<polygon fill="none" stroke="#191970" points="820.7562,-325.79 820.4908,-336.3815 827.3033,-328.2673 820.7562,-325.79"/>
</g>
<!-- Node9 -->
<g id="node10" class="node">
<title>Node9</title>
<g id="a_node10"><a xlink:href="../../d7/d32/classo2_1_1data__flow_1_1TimeframeWriterDevice.html" target="_top" xlink:title="A device which writes to file the timeframes. ">
<polygon fill="none" stroke="#000000" points="1009.5,-.5 1009.5,-233.5 1199.5,-233.5 1199.5,-.5 1009.5,-.5"/>
<text text-anchor="start" x="1017.5" y="-221.5" font-family="Helvetica,sans-Serif" font-size="10.00" fill="#000000">o2::data_flow::Timeframe</text>
<text text-anchor="middle" x="1104.5" y="-210.5" font-family="Helvetica,sans-Serif" font-size="10.00" fill="#000000">WriterDevice</text>
<polyline fill="none" stroke="#000000" points="1009.5,-203.5 1199.5,-203.5 "/>
<text text-anchor="start" x="1017.5" y="-191.5" font-family="Helvetica,sans-Serif" font-size="10.00" fill="#000000">+ OptionKeyInputChannelName</text>
<text text-anchor="start" x="1017.5" y="-180.5" font-family="Helvetica,sans-Serif" font-size="10.00" fill="#000000">+ OptionKeyOutputFileName</text>
<text text-anchor="start" x="1017.5" y="-169.5" font-family="Helvetica,sans-Serif" font-size="10.00" fill="#000000">+ OptionKeyMaxTimeframesPerFile</text>
<text text-anchor="start" x="1017.5" y="-158.5" font-family="Helvetica,sans-Serif" font-size="10.00" fill="#000000">+ OptionKeyMaxFileSize</text>
<text text-anchor="start" x="1017.5" y="-147.5" font-family="Helvetica,sans-Serif" font-size="10.00" fill="#000000">+ OptionKeyMaxFiles</text>
<text text-anchor="start" x="1017.5" y="-136.5" font-family="Helvetica,sans-Serif" font-size="10.00" fill="#000000"># mInChannelName</text>
<text text-anchor="start" x="1017.5" y="-125.5" font-family="Helvetica,sans-Serif" font-size="10.00" fill="#000000"># mOutFileName</text>
<text text-anchor="start" x="1017.5" y="-114.5" font-family="Helvetica,sans-Serif" font-size="10.00" fill="#000000"># mFile</text>
<text text-anchor="start" x="1017.5" y="-103.5" font-family="Helvetica,sans-Serif" font-size="10.00" fill="#000000"># mMaxTimeframes</text>
<text text-anchor="start" x="1017.5" y="-92.5" font-family="Helvetica,sans-Serif" font-size="10.00" fill="#000000"># mMaxFileSize</text>
<text text-anchor="start" x="1017.5" y="-81.5" font-family="Helvetica,sans-Serif" font-size="10.00" fill="#000000"># mMaxFiles</text>
<text text-anchor="start" x="1017.5" y="-70.5" font-family="Helvetica,sans-Serif" font-size="10.00" fill="#000000"># mFileCount</text>
<polyline fill="none" stroke="#000000" points="1009.5,-63.5 1199.5,-63.5 "/>
<text text-anchor="start" x="1017.5" y="-51.5" font-family="Helvetica,sans-Serif" font-size="10.00" fill="#000000">+ TimeframeWriterDevice()</text>
<text text-anchor="start" x="1017.5" y="-40.5" font-family="Helvetica,sans-Serif" font-size="10.00" fill="#000000">+ ~TimeframeWriterDevice()</text>
<text text-anchor="start" x="1017.5" y="-29.5" font-family="Helvetica,sans-Serif" font-size="10.00" fill="#000000">+ InitTask()</text>
<text text-anchor="start" x="1017.5" y="-18.5" font-family="Helvetica,sans-Serif" font-size="10.00" fill="#000000">+ PostRun()</text>
<text text-anchor="start" x="1017.5" y="-7.5" font-family="Helvetica,sans-Serif" font-size="10.00" fill="#000000"># Run()</text>
</a>
</g>
</g>
<!-- Node3&#45;&gt;Node9 -->
<g id="edge9" class="edge">
<title>Node3&#45;&gt;Node9</title>
<path fill="none" stroke="#191970" d="M825.6435,-327.083C836.2506,-306.7699 851.1341,-284.5831 870.5,-270 918.392,-233.9358 949.6147,-265.7011 1000.5,-234 1003.4987,-232.1318 1006.4611,-230.1517 1009.383,-228.0757"/>
<polygon fill="none" stroke="#191970" points="822.4024,-325.7394 821.0701,-336.2501 828.6662,-328.8643 822.4024,-325.7394"/>
</g>
<!-- Node10 -->
<g id="node11" class="node">
<title>Node10</title>
<g id="a_node11"><a xlink:href="../../d7/dd8/classo2_1_1utilities_1_1DataPublisherDevice.html" target="_top" xlink:title="{o2::utilities::DataPublisher\lDevice\n|+ OptionKeyInputChannelName\l+ OptionKeyOutputChannelName\l+ OptionKeyDataDescription\l+ OptionKeyDataOrigin\l+ OptionKeySubspecification\l+ OptionKeyFileName\l|+ DataPublisherDevice()\l+ ~DataPublisherDevice()\l# InitTask()\l# HandleData()\l# HandleO2LogicalBlock()\l# AppendFile()\l}">
<polygon fill="none" stroke="#000000" points="1217.5,-28 1217.5,-206 1397.5,-206 1397.5,-28 1217.5,-28"/>
<text text-anchor="start" x="1225.5" y="-194" font-family="Helvetica,sans-Serif" font-size="10.00" fill="#000000">o2::utilities::DataPublisher</text>
<text text-anchor="middle" x="1307.5" y="-183" font-family="Helvetica,sans-Serif" font-size="10.00" fill="#000000">Device</text>
<polyline fill="none" stroke="#000000" points="1217.5,-176 1397.5,-176 "/>
<text text-anchor="start" x="1225.5" y="-164" font-family="Helvetica,sans-Serif" font-size="10.00" fill="#000000">+ OptionKeyInputChannelName</text>
<text text-anchor="start" x="1225.5" y="-153" font-family="Helvetica,sans-Serif" font-size="10.00" fill="#000000">+ OptionKeyOutputChannelName</text>
<text text-anchor="start" x="1225.5" y="-142" font-family="Helvetica,sans-Serif" font-size="10.00" fill="#000000">+ OptionKeyDataDescription</text>
<text text-anchor="start" x="1225.5" y="-131" font-family="Helvetica,sans-Serif" font-size="10.00" fill="#000000">+ OptionKeyDataOrigin</text>
<text text-anchor="start" x="1225.5" y="-120" font-family="Helvetica,sans-Serif" font-size="10.00" fill="#000000">+ OptionKeySubspecification</text>
<text text-anchor="start" x="1225.5" y="-109" font-family="Helvetica,sans-Serif" font-size="10.00" fill="#000000">+ OptionKeyFileName</text>
<polyline fill="none" stroke="#000000" points="1217.5,-102 1397.5,-102 "/>
<text text-anchor="start" x="1225.5" y="-90" font-family="Helvetica,sans-Serif" font-size="10.00" fill="#000000">+ DataPublisherDevice()</text>
<text text-anchor="start" x="1225.5" y="-79" font-family="Helvetica,sans-Serif" font-size="10.00" fill="#000000">+ ~DataPublisherDevice()</text>
<text text-anchor="start" x="1225.5" y="-68" font-family="Helvetica,sans-Serif" font-size="10.00" fill="#000000"># InitTask()</text>
<text text-anchor="start" x="1225.5" y="-57" font-family="Helvetica,sans-Serif" font-size="10.00" fill="#000000"># HandleData()</text>
<text text-anchor="start" x="1225.5" y="-46" font-family="Helvetica,sans-Serif" font-size="10.00" fill="#000000"># HandleO2LogicalBlock()</text>
<text text-anchor="start" x="1225.5" y="-35" font-family="Helvetica,sans-Serif" font-size="10.00" fill="#000000"># AppendFile()</text>
</a>
</g>
</g>
<!-- Node3&#45;&gt;Node10 -->
<g id="edge10" class="edge">
<title>Node3&#45;&gt;Node10</title>
<path fill="none" stroke="#191970" d="M823.7192,-327.2502C834.1521,-306.1619 849.4352,-283.307 870.5,-270 998.2216,-189.316 1075.0145,-304.7414 1208.5,-234 1222.0188,-226.8356 1234.4591,-216.9871 1245.6235,-206.0215"/>
<polygon fill="none" stroke="#191970" points="820.4776,-325.9193 819.4031,-336.4595 826.8161,-328.8899 820.4776,-325.9193"/>
</g>
<!-- Node11 -->
<g id="node12" class="node">
<title>Node11</title>
<g id="a_node12"><a xlink:href="../../de/d01/classO2MessageMonitor.html" target="_top" xlink:title="{O2MessageMonitor\n||+ O2MessageMonitor()\l+ ~O2MessageMonitor()\l# Run()\l# InitTask()\l}">
<polygon fill="none" stroke="#000000" points="1416,-72 1416,-162 1553,-162 1553,-72 1416,-72"/>
<text text-anchor="middle" x="1484.5" y="-150" font-family="Helvetica,sans-Serif" font-size="10.00" fill="#000000">O2MessageMonitor</text>
<polyline fill="none" stroke="#000000" points="1416,-143 1553,-143 "/>
<text text-anchor="middle" x="1484.5" y="-131" font-family="Helvetica,sans-Serif" font-size="10.00" fill="#000000"> </text>
<polyline fill="none" stroke="#000000" points="1416,-124 1553,-124 "/>
<text text-anchor="start" x="1424" y="-112" font-family="Helvetica,sans-Serif" font-size="10.00" fill="#000000">+ O2MessageMonitor()</text>
<text text-anchor="start" x="1424" y="-101" font-family="Helvetica,sans-Serif" font-size="10.00" fill="#000000">+ ~O2MessageMonitor()</text>
<text text-anchor="start" x="1424" y="-90" font-family="Helvetica,sans-Serif" font-size="10.00" fill="#000000"># Run()</text>
<text text-anchor="start" x="1424" y="-79" font-family="Helvetica,sans-Serif" font-size="10.00" fill="#000000"># InitTask()</text>
</a>
</g>
</g>
<!-- Node3&#45;&gt;Node11 -->
<g id="edge11" class="edge">
<title>Node3&#45;&gt;Node11</title>
<path fill="none" stroke="#191970" d="M823.3704,-327.1154C833.7557,-305.8798 849.099,-282.9419 870.5,-270 972.6531,-208.2246 1303.1938,-293.8272 1406.5,-234 1434.069,-218.0341 1453.7997,-187.9422 1466.5194,-162.2751"/>
<polygon fill="none" stroke="#191970" points="820.1008,-325.8474 819.0821,-336.3932 826.4549,-328.7844 820.1008,-325.8474"/>
</g>
</g>
</svg>
