<?xml version="1.0" encoding="UTF-8" standalone="no"?>
<!DOCTYPE svg PUBLIC "-//W3C//DTD SVG 1.1//EN"
 "http://www.w3.org/Graphics/SVG/1.1/DTD/svg11.dtd">
<!-- Generated by graphviz version 2.40.1 (20161225.0304)
 -->
<!-- Title: /home/travis/build/AliceO2Group/AliceO2/Analysis/Tasks Pages: 1 -->
<svg width="265pt" height="439pt"
 viewBox="0.00 0.00 265.34 439.00" xmlns="http://www.w3.org/2000/svg" xmlns:xlink="http://www.w3.org/1999/xlink">
<g id="graph0" class="graph" transform="scale(1 1) rotate(0) translate(4 435)">
<title>/home/travis/build/AliceO2Group/AliceO2/Analysis/Tasks</title>
<g id="clust1" class="cluster">
<title>clusterdir_19b17cb436010079e3d017a29cb7858f</title>
<g id="a_clust1"><a xlink:href="dir_19b17cb436010079e3d017a29cb7858f.html" target="_top" xlink:title="Analysis">
<polygon fill="#ddddee" stroke="#000000" points="68.3425,-352 68.3425,-423 138.3425,-423 138.3425,-352 68.3425,-352"/>
<text text-anchor="middle" x="103.3425" y="-411" font-family="Helvetica,sans-Serif" font-size="10.00" fill="#000000">Analysis</text>
</a>
</g>
</g>
<!-- dir_eff7324435ca3301414fec6c28c4adf5 -->
<g id="node1" class="node">
<title>dir_eff7324435ca3301414fec6c28c4adf5</title>
<g id="a_node1"><a xlink:href="dir_eff7324435ca3301414fec6c28c4adf5.html" target="_top" xlink:title="Tasks">
<polygon fill="#eeeeff" stroke="#000000" points="130.3425,-396 76.3425,-396 76.3425,-360 130.3425,-360 130.3425,-396"/>
<text text-anchor="middle" x="103.3425" y="-375.5" font-family="Helvetica,sans-Serif" font-size="10.00" fill="#000000">Tasks</text>
</a>
</g>
</g>
<!-- dir_6af676bf18881990e4083e191d0e63e0 -->
<g id="node2" class="node">
<title>dir_6af676bf18881990e4083e191d0e63e0</title>
<g id="a_node2"><a xlink:href="dir_6af676bf18881990e4083e191d0e63e0.html" target="_top" xlink:title="CCDB">
<polygon fill="none" stroke="#ff0000" points="65.3425,-252 11.3425,-252 11.3425,-216 65.3425,-216 65.3425,-252"/>
<text text-anchor="middle" x="38.3425" y="-231.5" font-family="Helvetica,sans-Serif" font-size="10.00" fill="#000000">CCDB</text>
</a>
</g>
</g>
<!-- dir_eff7324435ca3301414fec6c28c4adf5&#45;&gt;dir_6af676bf18881990e4083e191d0e63e0 -->
<g id="edge7" class="edge">
<title>dir_eff7324435ca3301414fec6c28c4adf5&#45;&gt;dir_6af676bf18881990e4083e191d0e63e0</title>
<path fill="none" stroke="#000000" d="M76.1374,-362.3863C62.7646,-353.106 47.9248,-340.0145 40.3425,-324 31.2856,-304.8709 31.251,-280.7951 33.2278,-262.3592"/>
<polygon fill="#000000" stroke="#000000" points="36.7252,-262.6096 34.5711,-252.2361 29.786,-261.6888 36.7252,-262.6096"/>
<g id="a_edge7&#45;headlabel"><a xlink:href="dir_000017_000020.html" target="_top" xlink:title="3">
<text text-anchor="middle" x="39.067" y="-264.0465" font-family="Helvetica,sans-Serif" font-size="10.00" fill="#000000">3</text>
</a>
</g>
</g>
<!-- dir_051dca18e802f8e9474f2e30d29c04e0 -->
<g id="node3" class="node">
<title>dir_051dca18e802f8e9474f2e30d29c04e0</title>
<g id="a_node3"><a xlink:href="dir_051dca18e802f8e9474f2e30d29c04e0.html" target="_top" xlink:title="Detectors">
<polygon fill="none" stroke="#ff0000" points="84.3425,-108 20.3425,-108 20.3425,-72 84.3425,-72 84.3425,-108"/>
<text text-anchor="middle" x="52.3425" y="-87.5" font-family="Helvetica,sans-Serif" font-size="10.00" fill="#000000">Detectors</text>
</a>
</g>
</g>
<!-- dir_eff7324435ca3301414fec6c28c4adf5&#45;&gt;dir_051dca18e802f8e9474f2e30d29c04e0 -->
<g id="edge8" class="edge">
<title>dir_eff7324435ca3301414fec6c28c4adf5&#45;&gt;dir_051dca18e802f8e9474f2e30d29c04e0</title>
<path fill="none" stroke="#000000" d="M76.298,-363.5983C60.7353,-354.1325 41.8481,-340.4646 29.3425,-324 8.671,-296.7844 8.4404,-285.6276 2.3425,-252 -6.5004,-203.2344 17.9196,-148.5354 35.6721,-116.8045"/>
<polygon fill="#000000" stroke="#000000" points="38.7248,-118.5169 40.6959,-108.1071 32.6634,-115.0157 38.7248,-118.5169"/>
<g id="a_edge8&#45;headlabel"><a xlink:href="dir_000017_000040.html" target="_top" xlink:title="6">
<text text-anchor="middle" x="39.3855" y="-120.5497" font-family="Helvetica,sans-Serif" font-size="10.00" fill="#000000">6</text>
</a>
</g>
</g>
<!-- dir_f41dd59f861c855ea21b0dc3111cb7b0 -->
<g id="node4" class="node">
<title>dir_f41dd59f861c855ea21b0dc3111cb7b0</title>
<g id="a_node4"><a xlink:href="dir_f41dd59f861c855ea21b0dc3111cb7b0.html" target="_top" xlink:title="DataModel">
<polygon fill="none" stroke="#ff0000" points="228.8425,-252 159.8425,-252 159.8425,-216 228.8425,-216 228.8425,-252"/>
<text text-anchor="middle" x="194.3425" y="-231.5" font-family="Helvetica,sans-Serif" font-size="10.00" fill="#000000">DataModel</text>
</a>
</g>
</g>
<!-- dir_eff7324435ca3301414fec6c28c4adf5&#45;&gt;dir_f41dd59f861c855ea21b0dc3111cb7b0 -->
<g id="edge9" class="edge">
<title>dir_eff7324435ca3301414fec6c28c4adf5&#45;&gt;dir_f41dd59f861c855ea21b0dc3111cb7b0</title>
<path fill="none" stroke="#000000" d="M118.8911,-359.5616C127.1679,-349.3748 137.274,-336.3204 145.3425,-324 158.6443,-303.6886 171.6892,-279.4558 180.9709,-261.2549"/>
<polygon fill="#000000" stroke="#000000" points="184.2176,-262.5894 185.5902,-252.0838 177.9658,-259.4404 184.2176,-262.5894"/>
<g id="a_edge9&#45;headlabel"><a xlink:href="dir_000017_000009.html" target="_top" xlink:title="38">
<text text-anchor="middle" x="185.1364" y="-264.5769" font-family="Helvetica,sans-Serif" font-size="10.00" fill="#000000">38</text>
</a>
</g>
</g>
<!-- dir_8d04f135a1eb0fdc4d561ef87bbea216 -->
<g id="node5" class="node">
<title>dir_8d04f135a1eb0fdc4d561ef87bbea216</title>
<g id="a_node5"><a xlink:href="dir_8d04f135a1eb0fdc4d561ef87bbea216.html" target="_top" xlink:title="Core">
<polygon fill="none" stroke="#ff0000" points="103.3425,-324 49.3425,-324 49.3425,-288 103.3425,-288 103.3425,-324"/>
<text text-anchor="middle" x="76.3425" y="-303.5" font-family="Helvetica,sans-Serif" font-size="10.00" fill="#000000">Core</text>
</a>
</g>
</g>
<!-- dir_eff7324435ca3301414fec6c28c4adf5&#45;&gt;dir_8d04f135a1eb0fdc4d561ef87bbea216 -->
<g id="edge10" class="edge">
<title>dir_eff7324435ca3301414fec6c28c4adf5&#45;&gt;dir_8d04f135a1eb0fdc4d561ef87bbea216</title>
<path fill="none" stroke="#000000" d="M96.5293,-359.8314C93.5782,-351.9617 90.0567,-342.5712 86.7875,-333.8533"/>
<polygon fill="#000000" stroke="#000000" points="90.0359,-332.5476 83.2475,-324.4133 83.4816,-335.0055 90.0359,-332.5476"/>
<g id="a_edge10&#45;headlabel"><a xlink:href="dir_000017_000005.html" target="_top" xlink:title="11">
<text text-anchor="middle" x="93.9565" y="-332.4164" font-family="Helvetica,sans-Serif" font-size="10.00" fill="#000000">11</text>
</a>
</g>
</g>
<!-- dir_bcbb2cf9a3d3d83e5515c82071a07177 -->
<g id="node6" class="node">
<title>dir_bcbb2cf9a3d3d83e5515c82071a07177</title>
<g id="a_node6"><a xlink:href="dir_bcbb2cf9a3d3d83e5515c82071a07177.html" target="_top" xlink:title="Framework">
<polygon fill="none" stroke="#ff0000" points="144.8425,-180 73.8425,-180 73.8425,-144 144.8425,-144 144.8425,-180"/>
<text text-anchor="middle" x="109.3425" y="-159.5" font-family="Helvetica,sans-Serif" font-size="10.00" fill="#000000">Framework</text>
</a>
</g>
</g>
<!-- dir_eff7324435ca3301414fec6c28c4adf5&#45;&gt;dir_bcbb2cf9a3d3d83e5515c82071a07177 -->
<g id="edge11" class="edge">
<title>dir_eff7324435ca3301414fec6c28c4adf5&#45;&gt;dir_bcbb2cf9a3d3d83e5515c82071a07177</title>
<path fill="none" stroke="#000000" d="M107.1838,-359.6001C109.1591,-349.2025 111.3548,-335.9346 112.3425,-324 116.2197,-277.1526 113.7567,-222.4366 111.5788,-190.087"/>
<polygon fill="#000000" stroke="#000000" points="115.0633,-189.743 110.8607,-180.0174 108.081,-190.241 115.0633,-189.743"/>
<g id="a_edge11&#45;headlabel"><a xlink:href="dir_000017_000014.html" target="_top" xlink:title="79">
<text text-anchor="middle" x="118.151" y="-190.6266" font-family="Helvetica,sans-Serif" font-size="10.00" fill="#000000">79</text>
</a>
</g>
</g>
<!-- dir_2171f7ec022c5423887b07c69b2f5b48 -->
<g id="node7" class="node">
<title>dir_2171f7ec022c5423887b07c69b2f5b48</title>
<g id="a_node7"><a xlink:href="dir_2171f7ec022c5423887b07c69b2f5b48.html" target="_top" xlink:title="DataFormats">
<polygon fill="none" stroke="#ff0000" points="161.3425,-36 81.3425,-36 81.3425,0 161.3425,0 161.3425,-36"/>
<text text-anchor="middle" x="121.3425" y="-15.5" font-family="Helvetica,sans-Serif" font-size="10.00" fill="#000000">DataFormats</text>
</a>
</g>
</g>
<!-- dir_eff7324435ca3301414fec6c28c4adf5&#45;&gt;dir_2171f7ec022c5423887b07c69b2f5b48 -->
<g id="edge12" class="edge">
<title>dir_eff7324435ca3301414fec6c28c4adf5&#45;&gt;dir_2171f7ec022c5423887b07c69b2f5b48</title>
<path fill="none" stroke="#000000" d="M130.5201,-367.3288C174.7305,-347.9763 257.3425,-302.6317 257.3425,-234 257.3425,-234 257.3425,-234 257.3425,-162 257.3425,-107.652 205.5066,-65.5246 165.8387,-41.2431"/>
<polygon fill="#000000" stroke="#000000" points="167.4609,-38.1359 157.0749,-36.0425 163.8886,-44.1558 167.4609,-38.1359"/>
<g id="a_edge12&#45;headlabel"><a xlink:href="dir_000017_000077.html" target="_top" xlink:title="7">
<text text-anchor="middle" x="172.0011" y="-35.0286" font-family="Helvetica,sans-Serif" font-size="10.00" fill="#000000">7</text>
</a>
</g>
</g>
<!-- dir_6af676bf18881990e4083e191d0e63e0&#45;&gt;dir_bcbb2cf9a3d3d83e5515c82071a07177 -->
<g id="edge1" class="edge">
<title>dir_6af676bf18881990e4083e191d0e63e0&#45;&gt;dir_bcbb2cf9a3d3d83e5515c82071a07177</title>
<path fill="none" stroke="#000000" d="M56.2588,-215.8314C64.6867,-207.2848 74.8835,-196.9443 84.0785,-187.6198"/>
<polygon fill="#000000" stroke="#000000" points="86.6556,-189.9912 91.185,-180.4133 81.6714,-185.0761 86.6556,-189.9912"/>
<g id="a_edge1&#45;headlabel"><a xlink:href="dir_000020_000014.html" target="_top" xlink:title="2">
<text text-anchor="middle" x="86.1534" y="-192.0442" font-family="Helvetica,sans-Serif" font-size="10.00" fill="#000000">2</text>
</a>
</g>
</g>
<!-- dir_051dca18e802f8e9474f2e30d29c04e0&#45;&gt;dir_6af676bf18881990e4083e191d0e63e0 -->
<g id="edge2" class="edge">
<title>dir_051dca18e802f8e9474f2e30d29c04e0&#45;&gt;dir_6af676bf18881990e4083e191d0e63e0</title>
<path fill="none" stroke="#000000" d="M50.5838,-108.0896C48.2035,-132.5727 43.9311,-176.5174 41.1161,-205.4713"/>
<polygon fill="#000000" stroke="#000000" points="37.5998,-205.4705 40.1156,-215.7623 44.5669,-206.1479 37.5998,-205.4705"/>
<g id="a_edge2&#45;headlabel"><a xlink:href="dir_000040_000020.html" target="_top" xlink:title="29">
<text text-anchor="middle" x="35.1216" y="-199.1181" font-family="Helvetica,sans-Serif" font-size="10.00" fill="#000000">29</text>
</a>
</g>
</g>
<!-- dir_051dca18e802f8e9474f2e30d29c04e0&#45;&gt;dir_bcbb2cf9a3d3d83e5515c82071a07177 -->
<g id="edge3" class="edge">
<title>dir_051dca18e802f8e9474f2e30d29c04e0&#45;&gt;dir_bcbb2cf9a3d3d83e5515c82071a07177</title>
<path fill="none" stroke="#000000" d="M72.8957,-108.4133C80.2075,-116.654 88.2081,-126.5245 94.9268,-135.536"/>
<polygon fill="#000000" stroke="#000000" points="92.2222,-137.7693 100.9114,-143.8314 97.8991,-133.6738 92.2222,-137.7693"/>
<g id="a_edge3&#45;headlabel"><a xlink:href="dir_000040_000014.html" target="_top" xlink:title="772">
<text text-anchor="middle" x="87.8165" y="-134.0153" font-family="Helvetica,sans-Serif" font-size="10.00" fill="#000000">772</text>
</a>
</g>
</g>
<!-- dir_051dca18e802f8e9474f2e30d29c04e0&#45;&gt;dir_2171f7ec022c5423887b07c69b2f5b48 -->
<g id="edge4" class="edge">
<title>dir_051dca18e802f8e9474f2e30d29c04e0&#45;&gt;dir_2171f7ec022c5423887b07c69b2f5b48</title>
<path fill="none" stroke="#000000" d="M63.8017,-71.8314C71.2893,-63.1337 81.2329,-52.5783 90.7944,-43.1265"/>
<polygon fill="#000000" stroke="#000000" points="93.2362,-45.634 97.9846,-36.1628 88.3663,-40.6057 93.2362,-45.634"/>
<g id="a_edge4&#45;headlabel"><a xlink:href="dir_000040_000077.html" target="_top" xlink:title="1062">
<text text-anchor="middle" x="92.6294" y="-47.6743" font-family="Helvetica,sans-Serif" font-size="10.00" fill="#000000">1062</text>
</a>
</g>
</g>
<!-- dir_f41dd59f861c855ea21b0dc3111cb7b0&#45;&gt;dir_bcbb2cf9a3d3d83e5515c82071a07177 -->
<g id="edge5" class="edge">
<title>dir_f41dd59f861c855ea21b0dc3111cb7b0&#45;&gt;dir_bcbb2cf9a3d3d83e5515c82071a07177</title>
<path fill="none" stroke="#000000" d="M172.8934,-215.8314C162.5247,-207.0485 149.9196,-196.3712 138.678,-186.8489"/>
<polygon fill="#000000" stroke="#000000" points="140.6774,-183.9556 130.7847,-180.1628 136.153,-189.297 140.6774,-183.9556"/>
<g id="a_edge5&#45;headlabel"><a xlink:href="dir_000009_000014.html" target="_top" xlink:title="14">
<text text-anchor="middle" x="145.2554" y="-181.6125" font-family="Helvetica,sans-Serif" font-size="10.00" fill="#000000">14</text>
</a>
</g>
</g>
<!-- dir_f41dd59f861c855ea21b0dc3111cb7b0&#45;&gt;dir_2171f7ec022c5423887b07c69b2f5b48 -->
<g id="edge6" class="edge">
<title>dir_f41dd59f861c855ea21b0dc3111cb7b0&#45;&gt;dir_2171f7ec022c5423887b07c69b2f5b48</title>
<path fill="none" stroke="#000000" d="M188.2441,-215.9555C175.496,-178.235 145.9526,-90.8188 130.7514,-45.8399"/>
<polygon fill="#000000" stroke="#000000" points="133.9924,-44.498 127.4749,-36.1451 127.3609,-46.7393 133.9924,-44.498"/>
<g id="a_edge6&#45;headlabel"><a xlink:href="dir_000009_000077.html" target="_top" xlink:title="3">
<text text-anchor="middle" x="137.8331" y="-44.4944" font-family="Helvetica,sans-Serif" font-size="10.00" fill="#000000">3</text>
</a>
</g>
</g>
<!-- dir_8d04f135a1eb0fdc4d561ef87bbea216&#45;&gt;dir_6af676bf18881990e4083e191d0e63e0 -->
<g id="edge13" class="edge">
<title>dir_8d04f135a1eb0fdc4d561ef87bbea216&#45;&gt;dir_6af676bf18881990e4083e191d0e63e0</title>
<path fill="none" stroke="#000000" d="M66.7535,-287.8314C62.5108,-279.7925 57.4304,-270.1666 52.7465,-261.2918"/>
<polygon fill="#000000" stroke="#000000" points="55.8236,-259.6235 48.0606,-252.4133 49.6329,-262.8908 55.8236,-259.6235"/>
<g id="a_edge13&#45;headlabel"><a xlink:href="dir_000005_000020.html" target="_top" xlink:title="1">
<text text-anchor="middle" x="60.0124" y="-258.9772" font-family="Helvetica,sans-Serif" font-size="10.00" fill="#000000">1</text>
</a>
</g>
</g>
<!-- dir_8d04f135a1eb0fdc4d561ef87bbea216&#45;&gt;dir_bcbb2cf9a3d3d83e5515c82071a07177 -->
<g id="edge14" class="edge">
<title>dir_8d04f135a1eb0fdc4d561ef87bbea216&#45;&gt;dir_bcbb2cf9a3d3d83e5515c82071a07177</title>
<path fill="none" stroke="#000000" d="M80.522,-287.7623C86.1754,-263.0928 96.3121,-218.8598 102.932,-189.9731"/>
<polygon fill="#000000" stroke="#000000" points="106.3747,-190.6188 105.197,-180.0896 99.5516,-189.0551 106.3747,-190.6188"/>
<g id="a_edge14&#45;headlabel"><a xlink:href="dir_000005_000014.html" target="_top" xlink:title="5">
<text text-anchor="middle" x="108.3394" y="-192.2568" font-family="Helvetica,sans-Serif" font-size="10.00" fill="#000000">5</text>
</a>
</g>
</g>
<!-- dir_bcbb2cf9a3d3d83e5515c82071a07177&#45;&gt;dir_051dca18e802f8e9474f2e30d29c04e0 -->
<g id="edge15" class="edge">
<title>dir_bcbb2cf9a3d3d83e5515c82071a07177&#45;&gt;dir_051dca18e802f8e9474f2e30d29c04e0</title>
<path fill="none" stroke="#000000" d="M89.0066,-143.8314C81.7086,-135.6232 73.7024,-125.7606 66.9584,-116.7323"/>
<polygon fill="#000000" stroke="#000000" points="69.6392,-114.4663 60.9437,-108.4133 63.9665,-118.5677 69.6392,-114.4663"/>
<g id="a_edge15&#45;headlabel"><a xlink:href="dir_000014_000040.html" target="_top" xlink:title="4">
<text text-anchor="middle" x="74.0461" y="-113.2157" font-family="Helvetica,sans-Serif" font-size="10.00" fill="#000000">4</text>
</a>
</g>
</g>
<!-- dir_bcbb2cf9a3d3d83e5515c82071a07177&#45;&gt;dir_2171f7ec022c5423887b07c69b2f5b48 -->
<g id="edge16" class="edge">
<title>dir_bcbb2cf9a3d3d83e5515c82071a07177&#45;&gt;dir_2171f7ec022c5423887b07c69b2f5b48</title>
<path fill="none" stroke="#000000" d="M106.1891,-143.7623C105.7743,-119.0928 109.1941,-74.8598 113.5394,-45.9731"/>
<polygon fill="#000000" stroke="#000000" points="116.9952,-46.5272 115.1768,-36.0896 110.0893,-45.3831 116.9952,-46.5272"/>
<g id="a_edge16&#45;headlabel"><a xlink:href="dir_000014_000077.html" target="_top" xlink:title="82">
<text text-anchor="middle" x="119.2089" y="-48.0375" font-family="Helvetica,sans-Serif" font-size="10.00" fill="#000000">82</text>
</a>
</g>
</g>
<!-- dir_2171f7ec022c5423887b07c69b2f5b48&#45;&gt;dir_051dca18e802f8e9474f2e30d29c04e0 -->
<g id="edge17" class="edge">
<title>dir_2171f7ec022c5423887b07c69b2f5b48&#45;&gt;dir_051dca18e802f8e9474f2e30d29c04e0</title>
<path fill="none" stroke="#000000" d="M109.6725,-36.4133C102.27,-44.9938 92.5217,-55.3414 83.1204,-64.6463"/>
<polygon fill="#000000" stroke="#000000" points="80.4517,-62.3586 75.7065,-71.8314 85.3233,-67.3853 80.4517,-62.3586"/>
<g id="a_edge17&#45;headlabel"><a xlink:href="dir_000077_000040.html" target="_top" xlink:title="14">
<text text-anchor="middle" x="81.057" y="-55.3181" font-family="Helvetica,sans-Serif" font-size="10.00" fill="#000000">14</text>
</a>
</g>
</g>
<!-- dir_2171f7ec022c5423887b07c69b2f5b48&#45;&gt;dir_bcbb2cf9a3d3d83e5515c82071a07177 -->
<g id="edge18" class="edge">
<title>dir_2171f7ec022c5423887b07c69b2f5b48&#45;&gt;dir_bcbb2cf9a3d3d83e5515c82071a07177</title>
<path fill="none" stroke="#000000" d="M124.4933,-36.0896C124.9236,-60.6805 121.5133,-104.905 117.1718,-133.8531"/>
<polygon fill="#000000" stroke="#000000" points="113.7115,-133.3257 115.5355,-143.7623 120.618,-134.4662 113.7115,-133.3257"/>
<g id="a_edge18&#45;headlabel"><a xlink:href="dir_000077_000014.html" target="_top" xlink:title="11">
<text text-anchor="middle" x="111.4957" y="-126.8165" font-family="Helvetica,sans-Serif" font-size="10.00" fill="#000000">11</text>
</a>
</g>
</g>
</g>
</svg>
