<?xml version="1.0" encoding="UTF-8" standalone="no"?>
<!DOCTYPE svg PUBLIC "-//W3C//DTD SVG 1.1//EN"
 "http://www.w3.org/Graphics/SVG/1.1/DTD/svg11.dtd">
<!-- Generated by graphviz version 2.40.1 (20161225.0304)
 -->
<!-- Title: /home/travis/build/AliceO2Group/AliceO2/Analysis/DataModel/include Pages: 1 -->
<svg width="277pt" height="303pt"
 viewBox="0.00 0.00 276.50 303.00" xmlns="http://www.w3.org/2000/svg" xmlns:xlink="http://www.w3.org/1999/xlink">
<g id="graph0" class="graph" transform="scale(1 1) rotate(0) translate(4 299)">
<title>/home/travis/build/AliceO2Group/AliceO2/Analysis/DataModel/include</title>
<g id="clust1" class="cluster">
<title>clusterdir_f41dd59f861c855ea21b0dc3111cb7b0</title>
<g id="a_clust1"><a xlink:href="dir_f41dd59f861c855ea21b0dc3111cb7b0.html" target="_top" xlink:title="DataModel">
<polygon fill="#ddddee" stroke="#000000" points="26.5,-200 26.5,-287 260.5,-287 260.5,-200 26.5,-200"/>
<text text-anchor="middle" x="143.5" y="-275" font-family="Helvetica,sans-Serif" font-size="10.00" fill="#000000">DataModel</text>
</a>
</g>
</g>
<g id="clust2" class="cluster">
<title>clusterdir_7683e4c5aa7478ea0e5a46a41c8497b7</title>
<g id="a_clust2"><a xlink:href="dir_7683e4c5aa7478ea0e5a46a41c8497b7.html" target="_top">
<polygon fill="#eeeeff" stroke="#000000" points="34.5,-208 34.5,-260 252.5,-260 252.5,-208 34.5,-208"/>
</a>
</g>
</g>
<!-- dir_7683e4c5aa7478ea0e5a46a41c8497b7 -->
<g id="node1" class="node">
<title>dir_7683e4c5aa7478ea0e5a46a41c8497b7</title>
<text text-anchor="middle" x="217.5" y="-231.5" font-family="Helvetica,sans-Serif" font-size="10.00" fill="#000000">include</text>
</g>
<!-- dir_5288c54a69662669867ddb130abdbf12 -->
<g id="node2" class="node">
<title>dir_5288c54a69662669867ddb130abdbf12</title>
<g id="a_node2"><a xlink:href="dir_5288c54a69662669867ddb130abdbf12.html" target="_top" xlink:title="Analysis">
<polygon fill="#ffffff" stroke="#000000" points="100.5,-252 42.5,-252 42.5,-216 100.5,-216 100.5,-252"/>
<text text-anchor="middle" x="71.5" y="-231.5" font-family="Helvetica,sans-Serif" font-size="10.00" fill="#000000">Analysis</text>
</a>
</g>
</g>
<!-- dir_4ab6b4cc6a7edbff49100e9123df213f -->
<g id="node4" class="node">
<title>dir_4ab6b4cc6a7edbff49100e9123df213f</title>
<g id="a_node4"><a xlink:href="dir_4ab6b4cc6a7edbff49100e9123df213f.html" target="_top" xlink:title="Common">
<polygon fill="none" stroke="#ff0000" points="61,-180 0,-180 0,-144 61,-144 61,-180"/>
<text text-anchor="middle" x="30.5" y="-159.5" font-family="Helvetica,sans-Serif" font-size="10.00" fill="#000000">Common</text>
</a>
</g>
</g>
<!-- dir_5288c54a69662669867ddb130abdbf12&#45;&gt;dir_4ab6b4cc6a7edbff49100e9123df213f -->
<g id="edge5" class="edge">
<title>dir_5288c54a69662669867ddb130abdbf12&#45;&gt;dir_4ab6b4cc6a7edbff49100e9123df213f</title>
<path fill="none" stroke="#000000" d="M61.154,-215.8314C56.5763,-207.7925 51.0948,-198.1666 46.0412,-189.2918"/>
<polygon fill="#000000" stroke="#000000" points="48.9752,-187.3712 40.9853,-180.4133 42.8923,-190.8351 48.9752,-187.3712"/>
<g id="a_edge5&#45;headlabel"><a xlink:href="dir_000011_000028.html" target="_top" xlink:title="1">
<text text-anchor="middle" x="53.2212" y="-186.5899" font-family="Helvetica,sans-Serif" font-size="10.00" fill="#000000">1</text>
</a>
</g>
</g>
<!-- dir_bcbb2cf9a3d3d83e5515c82071a07177 -->
<g id="node5" class="node">
<title>dir_bcbb2cf9a3d3d83e5515c82071a07177</title>
<g id="a_node5"><a xlink:href="dir_bcbb2cf9a3d3d83e5515c82071a07177.html" target="_top" xlink:title="Framework">
<polygon fill="none" stroke="#ff0000" points="137,-108 66,-108 66,-72 137,-72 137,-108"/>
<text text-anchor="middle" x="101.5" y="-87.5" font-family="Helvetica,sans-Serif" font-size="10.00" fill="#000000">Framework</text>
</a>
</g>
</g>
<!-- dir_5288c54a69662669867ddb130abdbf12&#45;&gt;dir_bcbb2cf9a3d3d83e5515c82071a07177 -->
<g id="edge6" class="edge">
<title>dir_5288c54a69662669867ddb130abdbf12&#45;&gt;dir_bcbb2cf9a3d3d83e5515c82071a07177</title>
<path fill="none" stroke="#000000" d="M75.2995,-215.7623C80.439,-191.0928 89.6542,-146.8598 95.6723,-117.9731"/>
<polygon fill="#000000" stroke="#000000" points="99.1181,-118.5933 97.7313,-108.0896 92.2653,-117.1656 99.1181,-118.5933"/>
<g id="a_edge6&#45;headlabel"><a xlink:href="dir_000011_000014.html" target="_top" xlink:title="8">
<text text-anchor="middle" x="101.1647" y="-120.1914" font-family="Helvetica,sans-Serif" font-size="10.00" fill="#000000">8</text>
</a>
</g>
</g>
<!-- dir_fbd351ec6b98f95c9f7c5b7ed91033e7 -->
<g id="node3" class="node">
<title>dir_fbd351ec6b98f95c9f7c5b7ed91033e7</title>
<g id="a_node3"><a xlink:href="dir_fbd351ec6b98f95c9f7c5b7ed91033e7.html" target="_top" xlink:title="PID">
<polygon fill="#ffffff" stroke="#000000" points="172.5,-252 118.5,-252 118.5,-216 172.5,-216 172.5,-252"/>
<text text-anchor="middle" x="145.5" y="-231.5" font-family="Helvetica,sans-Serif" font-size="10.00" fill="#000000">PID</text>
</a>
</g>
</g>
<!-- dir_fbd351ec6b98f95c9f7c5b7ed91033e7&#45;&gt;dir_bcbb2cf9a3d3d83e5515c82071a07177 -->
<g id="edge3" class="edge">
<title>dir_fbd351ec6b98f95c9f7c5b7ed91033e7&#45;&gt;dir_bcbb2cf9a3d3d83e5515c82071a07177</title>
<path fill="none" stroke="#000000" d="M139.9274,-215.7623C132.3895,-191.0928 118.8738,-146.8598 110.0473,-117.9731"/>
<polygon fill="#000000" stroke="#000000" points="113.2969,-116.6303 107.0274,-108.0896 106.6024,-118.6759 113.2969,-116.6303"/>
<g id="a_edge3&#45;headlabel"><a xlink:href="dir_000012_000014.html" target="_top" xlink:title="5">
<text text-anchor="middle" x="117.0626" y="-116.7384" font-family="Helvetica,sans-Serif" font-size="10.00" fill="#000000">5</text>
</a>
</g>
</g>
<!-- dir_2171f7ec022c5423887b07c69b2f5b48 -->
<g id="node6" class="node">
<title>dir_2171f7ec022c5423887b07c69b2f5b48</title>
<g id="a_node6"><a xlink:href="dir_2171f7ec022c5423887b07c69b2f5b48.html" target="_top" xlink:title="DataFormats">
<polygon fill="none" stroke="#ff0000" points="141.5,-36 61.5,-36 61.5,0 141.5,0 141.5,-36"/>
<text text-anchor="middle" x="101.5" y="-15.5" font-family="Helvetica,sans-Serif" font-size="10.00" fill="#000000">DataFormats</text>
</a>
</g>
</g>
<!-- dir_fbd351ec6b98f95c9f7c5b7ed91033e7&#45;&gt;dir_2171f7ec022c5423887b07c69b2f5b48 -->
<g id="edge4" class="edge">
<title>dir_fbd351ec6b98f95c9f7c5b7ed91033e7&#45;&gt;dir_2171f7ec022c5423887b07c69b2f5b48</title>
<path fill="none" stroke="#000000" d="M149.5809,-215.8156C155.6181,-185.0992 164.4046,-121.4534 146.5,-72 142.7851,-61.7392 136.1748,-52.0579 129.1452,-43.8033"/>
<polygon fill="#000000" stroke="#000000" points="131.68,-41.3886 122.3578,-36.3539 126.5056,-46.1031 131.68,-41.3886"/>
<g id="a_edge4&#45;headlabel"><a xlink:href="dir_000012_000077.html" target="_top" xlink:title="3">
<text text-anchor="middle" x="136.1997" y="-39.6334" font-family="Helvetica,sans-Serif" font-size="10.00" fill="#000000">3</text>
</a>
</g>
</g>
<!-- dir_4ab6b4cc6a7edbff49100e9123df213f&#45;&gt;dir_bcbb2cf9a3d3d83e5515c82071a07177 -->
<g id="edge1" class="edge">
<title>dir_4ab6b4cc6a7edbff49100e9123df213f&#45;&gt;dir_bcbb2cf9a3d3d83e5515c82071a07177</title>
<path fill="none" stroke="#000000" d="M42.4639,-143.8314C50.1931,-135.1337 60.4299,-124.5783 70.2539,-115.1265"/>
<polygon fill="#000000" stroke="#000000" points="72.764,-117.5702 77.6376,-108.1628 67.9612,-112.4778 72.764,-117.5702"/>
<g id="a_edge1&#45;headlabel"><a xlink:href="dir_000028_000014.html" target="_top" xlink:title="2">
<text text-anchor="middle" x="72.0971" y="-119.6021" font-family="Helvetica,sans-Serif" font-size="10.00" fill="#000000">2</text>
</a>
</g>
</g>
<!-- dir_4ab6b4cc6a7edbff49100e9123df213f&#45;&gt;dir_2171f7ec022c5423887b07c69b2f5b48 -->
<g id="edge2" class="edge">
<title>dir_4ab6b4cc6a7edbff49100e9123df213f&#45;&gt;dir_2171f7ec022c5423887b07c69b2f5b48</title>
<path fill="none" stroke="#000000" d="M26.7263,-143.9212C28.0165,-125.1312 35.147,-95.2723 47.5,-72 52.8443,-61.9316 60.2795,-52.0216 68.0054,-43.4947"/>
<polygon fill="#000000" stroke="#000000" points="70.7203,-45.721 75.1308,-36.0878 65.6756,-40.8681 70.7203,-45.721"/>
<g id="a_edge2&#45;headlabel"><a xlink:href="dir_000028_000077.html" target="_top" xlink:title="2">
<text text-anchor="middle" x="70.2744" y="-47.7799" font-family="Helvetica,sans-Serif" font-size="10.00" fill="#000000">2</text>
</a>
</g>
</g>
<!-- dir_bcbb2cf9a3d3d83e5515c82071a07177&#45;&gt;dir_4ab6b4cc6a7edbff49100e9123df213f -->
<g id="edge7" class="edge">
<title>dir_bcbb2cf9a3d3d83e5515c82071a07177&#45;&gt;dir_4ab6b4cc6a7edbff49100e9123df213f</title>
<path fill="none" stroke="#000000" d="M89.3185,-108.4133C81.602,-117.0787 71.4429,-127.5464 61.6953,-136.9223"/>
<polygon fill="#000000" stroke="#000000" points="59.2428,-134.4242 54.3687,-143.8314 64.0453,-139.517 59.2428,-134.4242"/>
<g id="a_edge7&#45;headlabel"><a xlink:href="dir_000014_000028.html" target="_top" xlink:title="8">
<text text-anchor="middle" x="59.9101" y="-127.3925" font-family="Helvetica,sans-Serif" font-size="10.00" fill="#000000">8</text>
</a>
</g>
</g>
<!-- dir_bcbb2cf9a3d3d83e5515c82071a07177&#45;&gt;dir_2171f7ec022c5423887b07c69b2f5b48 -->
<g id="edge8" class="edge">
<title>dir_bcbb2cf9a3d3d83e5515c82071a07177&#45;&gt;dir_2171f7ec022c5423887b07c69b2f5b48</title>
<path fill="none" stroke="#000000" d="M95.5476,-71.8314C94.7972,-64.131 94.5763,-54.9743 94.8849,-46.4166"/>
<polygon fill="#000000" stroke="#000000" points="98.3792,-46.6161 95.524,-36.4133 91.3935,-46.1697 98.3792,-46.6161"/>
<g id="a_edge8&#45;headlabel"><a xlink:href="dir_000014_000077.html" target="_top" xlink:title="82">
<text text-anchor="middle" x="100.9836" y="-47.8844" font-family="Helvetica,sans-Serif" font-size="10.00" fill="#000000">82</text>
</a>
</g>
</g>
<!-- dir_2171f7ec022c5423887b07c69b2f5b48&#45;&gt;dir_4ab6b4cc6a7edbff49100e9123df213f -->
<g id="edge9" class="edge">
<title>dir_2171f7ec022c5423887b07c69b2f5b48&#45;&gt;dir_4ab6b4cc6a7edbff49100e9123df213f</title>
<path fill="none" stroke="#000000" d="M91.1826,-36.0878C83.0276,-45.969 72.4803,-58.8495 65.5,-72 55.1254,-91.5451 48.4345,-115.736 43.091,-134.114"/>
<polygon fill="#000000" stroke="#000000" points="39.6702,-133.3379 40.1649,-143.9212 46.378,-135.3393 39.6702,-133.3379"/>
<g id="a_edge9&#45;headlabel"><a xlink:href="dir_000077_000028.html" target="_top" xlink:title="35">
<text text-anchor="middle" x="37.9771" y="-126.5816" font-family="Helvetica,sans-Serif" font-size="10.00" fill="#000000">35</text>
</a>
</g>
</g>
<!-- dir_2171f7ec022c5423887b07c69b2f5b48&#45;&gt;dir_bcbb2cf9a3d3d83e5515c82071a07177 -->
<g id="edge10" class="edge">
<title>dir_2171f7ec022c5423887b07c69b2f5b48&#45;&gt;dir_bcbb2cf9a3d3d83e5515c82071a07177</title>
<path fill="none" stroke="#000000" d="M107.476,-36.4133C108.2071,-44.0593 108.4203,-53.1084 108.1155,-61.5726"/>
<polygon fill="#000000" stroke="#000000" points="104.6048,-61.6264 107.4524,-71.8314 111.5902,-62.078 104.6048,-61.6264"/>
<g id="a_edge10&#45;headlabel"><a xlink:href="dir_000077_000014.html" target="_top" xlink:title="11">
<text text-anchor="middle" x="102.0032" y="-55.3562" font-family="Helvetica,sans-Serif" font-size="10.00" fill="#000000">11</text>
</a>
</g>
</g>
</g>
</svg>
