<?xml version="1.0" encoding="UTF-8" standalone="no"?>
<!DOCTYPE svg PUBLIC "-//W3C//DTD SVG 1.1//EN"
 "http://www.w3.org/Graphics/SVG/1.1/DTD/svg11.dtd">
<!-- Generated by graphviz version 2.40.1 (20161225.0304)
 -->
<!-- Title: /home/travis/build/AliceO2Group/AliceO2/Analysis/Tutorials Pages: 1 -->
<svg width="288pt" height="375pt"
 viewBox="0.00 0.00 287.50 375.00" xmlns="http://www.w3.org/2000/svg" xmlns:xlink="http://www.w3.org/1999/xlink">
<g id="graph0" class="graph" transform="scale(1 1) rotate(0) translate(4 371)">
<title>/home/travis/build/AliceO2Group/AliceO2/Analysis/Tutorials</title>
<g id="clust1" class="cluster">
<title>clusterdir_19b17cb436010079e3d017a29cb7858f</title>
<g id="a_clust1"><a xlink:href="dir_19b17cb436010079e3d017a29cb7858f.html" target="_top" xlink:title="Analysis">
<polygon fill="#ddddee" stroke="#000000" points="109.5,-272 109.5,-359 271.5,-359 271.5,-272 109.5,-272"/>
<text text-anchor="middle" x="190.5" y="-347" font-family="Helvetica,sans-Serif" font-size="10.00" fill="#000000">Analysis</text>
</a>
</g>
</g>
<g id="clust2" class="cluster">
<title>clusterdir_6e355b58bf8669476ee36a32071bc3eb</title>
<g id="a_clust2"><a xlink:href="dir_6e355b58bf8669476ee36a32071bc3eb.html" target="_top">
<polygon fill="#eeeeff" stroke="#000000" points="117.5,-280 117.5,-332 263.5,-332 263.5,-280 117.5,-280"/>
</a>
</g>
</g>
<!-- dir_6e355b58bf8669476ee36a32071bc3eb -->
<g id="node1" class="node">
<title>dir_6e355b58bf8669476ee36a32071bc3eb</title>
<text text-anchor="middle" x="226.5" y="-303.5" font-family="Helvetica,sans-Serif" font-size="10.00" fill="#000000">Tutorials</text>
</g>
<!-- dir_75e6eb4f8361c04b3062a7d58db1db64 -->
<g id="node2" class="node">
<title>dir_75e6eb4f8361c04b3062a7d58db1db64</title>
<g id="a_node2"><a xlink:href="dir_75e6eb4f8361c04b3062a7d58db1db64.html" target="_top" xlink:title="src">
<polygon fill="#ffffff" stroke="#000000" points="179.5,-324 125.5,-324 125.5,-288 179.5,-288 179.5,-324"/>
<text text-anchor="middle" x="152.5" y="-303.5" font-family="Helvetica,sans-Serif" font-size="10.00" fill="#000000">src</text>
</a>
</g>
</g>
<!-- dir_6af676bf18881990e4083e191d0e63e0 -->
<g id="node3" class="node">
<title>dir_6af676bf18881990e4083e191d0e63e0</title>
<g id="a_node3"><a xlink:href="dir_6af676bf18881990e4083e191d0e63e0.html" target="_top" xlink:title="CCDB">
<polygon fill="none" stroke="#ff0000" points="141.5,-180 87.5,-180 87.5,-144 141.5,-144 141.5,-180"/>
<text text-anchor="middle" x="114.5" y="-159.5" font-family="Helvetica,sans-Serif" font-size="10.00" fill="#000000">CCDB</text>
</a>
</g>
</g>
<!-- dir_75e6eb4f8361c04b3062a7d58db1db64&#45;&gt;dir_6af676bf18881990e4083e191d0e63e0 -->
<g id="edge4" class="edge">
<title>dir_75e6eb4f8361c04b3062a7d58db1db64&#45;&gt;dir_6af676bf18881990e4083e191d0e63e0</title>
<path fill="none" stroke="#000000" d="M136.6294,-287.8799C128.9989,-277.9899 120.6293,-265.1113 116.5,-252 110.2109,-232.031 109.9559,-208.3173 111.1422,-190.2457"/>
<polygon fill="#000000" stroke="#000000" points="114.6477,-190.3263 111.9991,-180.0679 107.6724,-189.739 114.6477,-190.3263"/>
<g id="a_edge4&#45;headlabel"><a xlink:href="dir_000019_000020.html" target="_top" xlink:title="1">
<text text-anchor="middle" x="117.1755" y="-191.6464" font-family="Helvetica,sans-Serif" font-size="10.00" fill="#000000">1</text>
</a>
</g>
</g>
<!-- dir_f41dd59f861c855ea21b0dc3111cb7b0 -->
<g id="node4" class="node">
<title>dir_f41dd59f861c855ea21b0dc3111cb7b0</title>
<g id="a_node4"><a xlink:href="dir_f41dd59f861c855ea21b0dc3111cb7b0.html" target="_top" xlink:title="DataModel">
<polygon fill="none" stroke="#ff0000" points="69,-180 0,-180 0,-144 69,-144 69,-180"/>
<text text-anchor="middle" x="34.5" y="-159.5" font-family="Helvetica,sans-Serif" font-size="10.00" fill="#000000">DataModel</text>
</a>
</g>
</g>
<!-- dir_75e6eb4f8361c04b3062a7d58db1db64&#45;&gt;dir_f41dd59f861c855ea21b0dc3111cb7b0 -->
<g id="edge5" class="edge">
<title>dir_75e6eb4f8361c04b3062a7d58db1db64&#45;&gt;dir_f41dd59f861c855ea21b0dc3111cb7b0</title>
<path fill="none" stroke="#000000" d="M137.0273,-287.5559C128.319,-277.1445 117.2652,-263.8775 107.5,-252 89.8828,-230.5721 70.0661,-206.118 55.5299,-188.1137"/>
<polygon fill="#000000" stroke="#000000" points="58.2527,-185.9144 49.2495,-180.3293 52.8047,-190.3099 58.2527,-185.9144"/>
<g id="a_edge5&#45;headlabel"><a xlink:href="dir_000019_000009.html" target="_top" xlink:title="2">
<text text-anchor="middle" x="62.7195" y="-184.4292" font-family="Helvetica,sans-Serif" font-size="10.00" fill="#000000">2</text>
</a>
</g>
</g>
<!-- dir_8d04f135a1eb0fdc4d561ef87bbea216 -->
<g id="node5" class="node">
<title>dir_8d04f135a1eb0fdc4d561ef87bbea216</title>
<g id="a_node5"><a xlink:href="dir_8d04f135a1eb0fdc4d561ef87bbea216.html" target="_top" xlink:title="Core">
<polygon fill="none" stroke="#ff0000" points="179.5,-252 125.5,-252 125.5,-216 179.5,-216 179.5,-252"/>
<text text-anchor="middle" x="152.5" y="-231.5" font-family="Helvetica,sans-Serif" font-size="10.00" fill="#000000">Core</text>
</a>
</g>
</g>
<!-- dir_75e6eb4f8361c04b3062a7d58db1db64&#45;&gt;dir_8d04f135a1eb0fdc4d561ef87bbea216 -->
<g id="edge6" class="edge">
<title>dir_75e6eb4f8361c04b3062a7d58db1db64&#45;&gt;dir_8d04f135a1eb0fdc4d561ef87bbea216</title>
<path fill="none" stroke="#000000" d="M152.5,-287.8314C152.5,-280.131 152.5,-270.9743 152.5,-262.4166"/>
<polygon fill="#000000" stroke="#000000" points="156.0001,-262.4132 152.5,-252.4133 149.0001,-262.4133 156.0001,-262.4132"/>
<g id="a_edge6&#45;headlabel"><a xlink:href="dir_000019_000005.html" target="_top" xlink:title="3">
<text text-anchor="middle" x="158.8393" y="-263.5079" font-family="Helvetica,sans-Serif" font-size="10.00" fill="#000000">3</text>
</a>
</g>
</g>
<!-- dir_bcbb2cf9a3d3d83e5515c82071a07177 -->
<g id="node6" class="node">
<title>dir_bcbb2cf9a3d3d83e5515c82071a07177</title>
<g id="a_node6"><a xlink:href="dir_bcbb2cf9a3d3d83e5515c82071a07177.html" target="_top" xlink:title="Framework">
<polygon fill="none" stroke="#ff0000" points="177,-108 106,-108 106,-72 177,-72 177,-108"/>
<text text-anchor="middle" x="141.5" y="-87.5" font-family="Helvetica,sans-Serif" font-size="10.00" fill="#000000">Framework</text>
</a>
</g>
</g>
<!-- dir_75e6eb4f8361c04b3062a7d58db1db64&#45;&gt;dir_bcbb2cf9a3d3d83e5515c82071a07177 -->
<g id="edge7" class="edge">
<title>dir_75e6eb4f8361c04b3062a7d58db1db64&#45;&gt;dir_bcbb2cf9a3d3d83e5515c82071a07177</title>
<path fill="none" stroke="#000000" d="M168.4905,-287.9169C176.1538,-278.0371 184.5166,-265.1563 188.5,-252 193.1365,-236.6865 190.8637,-231.8244 188.5,-216 183.2019,-180.5299 167.3398,-142.2609 155.4989,-117.3228"/>
<polygon fill="#000000" stroke="#000000" points="158.5512,-115.5963 151.0301,-108.1341 152.2562,-118.6578 158.5512,-115.5963"/>
<g id="a_edge7&#45;headlabel"><a xlink:href="dir_000019_000014.html" target="_top" xlink:title="53">
<text text-anchor="middle" x="162.6766" y="-115.0871" font-family="Helvetica,sans-Serif" font-size="10.00" fill="#000000">53</text>
</a>
</g>
</g>
<!-- dir_2171f7ec022c5423887b07c69b2f5b48 -->
<g id="node7" class="node">
<title>dir_2171f7ec022c5423887b07c69b2f5b48</title>
<g id="a_node7"><a xlink:href="dir_2171f7ec022c5423887b07c69b2f5b48.html" target="_top" xlink:title="DataFormats">
<polygon fill="none" stroke="#ff0000" points="181.5,-36 101.5,-36 101.5,0 181.5,0 181.5,-36"/>
<text text-anchor="middle" x="141.5" y="-15.5" font-family="Helvetica,sans-Serif" font-size="10.00" fill="#000000">DataFormats</text>
</a>
</g>
</g>
<!-- dir_75e6eb4f8361c04b3062a7d58db1db64&#45;&gt;dir_2171f7ec022c5423887b07c69b2f5b48 -->
<g id="edge8" class="edge">
<title>dir_75e6eb4f8361c04b3062a7d58db1db64&#45;&gt;dir_2171f7ec022c5423887b07c69b2f5b48</title>
<path fill="none" stroke="#000000" d="M171.2088,-287.9414C185.3689,-274.0517 202.687,-256.4964 204.5,-252 210.4832,-237.1608 205.5487,-231.9656 204.5,-216 200.2687,-151.5841 211.0809,-131.2699 185.5,-72 181.1422,-61.9031 174.3282,-52.1656 167.353,-43.8062"/>
<polygon fill="#000000" stroke="#000000" points="169.9287,-41.4351 160.691,-36.247 164.6771,-46.0634 169.9287,-41.4351"/>
<g id="a_edge8&#45;headlabel"><a xlink:href="dir_000019_000077.html" target="_top" xlink:title="1">
<text text-anchor="middle" x="174.4354" y="-39.7545" font-family="Helvetica,sans-Serif" font-size="10.00" fill="#000000">1</text>
</a>
</g>
</g>
<!-- dir_6af676bf18881990e4083e191d0e63e0&#45;&gt;dir_bcbb2cf9a3d3d83e5515c82071a07177 -->
<g id="edge1" class="edge">
<title>dir_6af676bf18881990e4083e191d0e63e0&#45;&gt;dir_bcbb2cf9a3d3d83e5515c82071a07177</title>
<path fill="none" stroke="#000000" d="M121.3132,-143.8314C124.2644,-135.9617 127.7858,-126.5712 131.055,-117.8533"/>
<polygon fill="#000000" stroke="#000000" points="134.3609,-119.0055 134.595,-108.4133 127.8066,-116.5476 134.3609,-119.0055"/>
<g id="a_edge1&#45;headlabel"><a xlink:href="dir_000020_000014.html" target="_top" xlink:title="2">
<text text-anchor="middle" x="135.7573" y="-120.8682" font-family="Helvetica,sans-Serif" font-size="10.00" fill="#000000">2</text>
</a>
</g>
</g>
<!-- dir_f41dd59f861c855ea21b0dc3111cb7b0&#45;&gt;dir_bcbb2cf9a3d3d83e5515c82071a07177 -->
<g id="edge2" class="edge">
<title>dir_f41dd59f861c855ea21b0dc3111cb7b0&#45;&gt;dir_bcbb2cf9a3d3d83e5515c82071a07177</title>
<path fill="none" stroke="#000000" d="M61.5006,-143.8314C74.9331,-134.7927 91.3473,-123.7476 105.8039,-114.0198"/>
<polygon fill="#000000" stroke="#000000" points="108.1654,-116.6494 114.508,-108.1628 104.2575,-110.8418 108.1654,-116.6494"/>
<g id="a_edge2&#45;headlabel"><a xlink:href="dir_000009_000014.html" target="_top" xlink:title="14">
<text text-anchor="middle" x="106.7682" y="-118.5118" font-family="Helvetica,sans-Serif" font-size="10.00" fill="#000000">14</text>
</a>
</g>
</g>
<!-- dir_f41dd59f861c855ea21b0dc3111cb7b0&#45;&gt;dir_2171f7ec022c5423887b07c69b2f5b48 -->
<g id="edge3" class="edge">
<title>dir_f41dd59f861c855ea21b0dc3111cb7b0&#45;&gt;dir_2171f7ec022c5423887b07c69b2f5b48</title>
<path fill="none" stroke="#000000" d="M46.3768,-143.727C58.5205,-125.2958 78.1523,-96.1861 96.5,-72 103.6151,-62.6208 111.7579,-52.6423 119.1435,-43.8479"/>
<polygon fill="#000000" stroke="#000000" points="121.8672,-46.0475 125.6621,-36.1556 116.5268,-41.522 121.8672,-46.0475"/>
<g id="a_edge3&#45;headlabel"><a xlink:href="dir_000009_000077.html" target="_top" xlink:title="3">
<text text-anchor="middle" x="121.7094" y="-48.1255" font-family="Helvetica,sans-Serif" font-size="10.00" fill="#000000">3</text>
</a>
</g>
</g>
<!-- dir_8d04f135a1eb0fdc4d561ef87bbea216&#45;&gt;dir_6af676bf18881990e4083e191d0e63e0 -->
<g id="edge9" class="edge">
<title>dir_8d04f135a1eb0fdc4d561ef87bbea216&#45;&gt;dir_6af676bf18881990e4083e191d0e63e0</title>
<path fill="none" stroke="#000000" d="M142.911,-215.8314C138.6683,-207.7925 133.5879,-198.1666 128.904,-189.2918"/>
<polygon fill="#000000" stroke="#000000" points="131.9811,-187.6235 124.2181,-180.4133 125.7904,-190.8908 131.9811,-187.6235"/>
<g id="a_edge9&#45;headlabel"><a xlink:href="dir_000005_000020.html" target="_top" xlink:title="1">
<text text-anchor="middle" x="136.1699" y="-186.9772" font-family="Helvetica,sans-Serif" font-size="10.00" fill="#000000">1</text>
</a>
</g>
</g>
<!-- dir_8d04f135a1eb0fdc4d561ef87bbea216&#45;&gt;dir_bcbb2cf9a3d3d83e5515c82071a07177 -->
<g id="edge10" class="edge">
<title>dir_8d04f135a1eb0fdc4d561ef87bbea216&#45;&gt;dir_bcbb2cf9a3d3d83e5515c82071a07177</title>
<path fill="none" stroke="#000000" d="M152.8574,-215.6842C153.0331,-197.4671 152.8246,-168.7409 150.5,-144 149.7123,-135.6167 148.3919,-126.5685 147.0019,-118.3197"/>
<polygon fill="#000000" stroke="#000000" points="150.4363,-117.6413 145.2388,-108.4089 143.5445,-118.8674 150.4363,-117.6413"/>
<g id="a_edge10&#45;headlabel"><a xlink:href="dir_000005_000014.html" target="_top" xlink:title="5">
<text text-anchor="middle" x="153.8612" y="-118.1831" font-family="Helvetica,sans-Serif" font-size="10.00" fill="#000000">5</text>
</a>
</g>
</g>
<!-- dir_bcbb2cf9a3d3d83e5515c82071a07177&#45;&gt;dir_2171f7ec022c5423887b07c69b2f5b48 -->
<g id="edge11" class="edge">
<title>dir_bcbb2cf9a3d3d83e5515c82071a07177&#45;&gt;dir_2171f7ec022c5423887b07c69b2f5b48</title>
<path fill="none" stroke="#000000" d="M135.5476,-71.8314C134.7972,-64.131 134.5763,-54.9743 134.8849,-46.4166"/>
<polygon fill="#000000" stroke="#000000" points="138.3792,-46.6161 135.524,-36.4133 131.3935,-46.1697 138.3792,-46.6161"/>
<g id="a_edge11&#45;headlabel"><a xlink:href="dir_000014_000077.html" target="_top" xlink:title="82">
<text text-anchor="middle" x="140.9836" y="-47.8844" font-family="Helvetica,sans-Serif" font-size="10.00" fill="#000000">82</text>
</a>
</g>
</g>
<!-- dir_2171f7ec022c5423887b07c69b2f5b48&#45;&gt;dir_bcbb2cf9a3d3d83e5515c82071a07177 -->
<g id="edge12" class="edge">
<title>dir_2171f7ec022c5423887b07c69b2f5b48&#45;&gt;dir_bcbb2cf9a3d3d83e5515c82071a07177</title>
<path fill="none" stroke="#000000" d="M147.476,-36.4133C148.2071,-44.0593 148.4203,-53.1084 148.1155,-61.5726"/>
<polygon fill="#000000" stroke="#000000" points="144.6048,-61.6264 147.4524,-71.8314 151.5902,-62.078 144.6048,-61.6264"/>
<g id="a_edge12&#45;headlabel"><a xlink:href="dir_000077_000014.html" target="_top" xlink:title="11">
<text text-anchor="middle" x="142.0032" y="-55.3562" font-family="Helvetica,sans-Serif" font-size="10.00" fill="#000000">11</text>
</a>
</g>
</g>
</g>
</svg>
