<?xml version="1.0" encoding="UTF-8" standalone="no"?>
<!DOCTYPE svg PUBLIC "-//W3C//DTD SVG 1.1//EN"
 "http://www.w3.org/Graphics/SVG/1.1/DTD/svg11.dtd">
<!-- Generated by graphviz version 2.40.1 (20161225.0304)
 -->
<!-- Title: /home/travis/build/AliceO2Group/AliceO2/Analysis Pages: 1 -->
<svg width="439pt" height="420pt"
 viewBox="0.00 0.00 438.74 420.00" xmlns="http://www.w3.org/2000/svg" xmlns:xlink="http://www.w3.org/1999/xlink">
<g id="graph0" class="graph" transform="scale(1 1) rotate(0) translate(4 416)">
<title>/home/travis/build/AliceO2Group/AliceO2/Analysis</title>
<g id="clust1" class="cluster">
<title>clusterdir_19b17cb436010079e3d017a29cb7858f</title>
<g id="a_clust1"><a xlink:href="dir_19b17cb436010079e3d017a29cb7858f.html" target="_top">
<polygon fill="#eeeeff" stroke="#000000" points="132,-280 132,-404 354,-404 354,-280 132,-280"/>
</a>
</g>
</g>
<!-- dir_19b17cb436010079e3d017a29cb7858f -->
<g id="node1" class="node">
<title>dir_19b17cb436010079e3d017a29cb7858f</title>
<text text-anchor="middle" x="317" y="-375.5" font-family="Helvetica,sans-Serif" font-size="10.00" fill="#000000">Analysis</text>
</g>
<!-- dir_8d04f135a1eb0fdc4d561ef87bbea216 -->
<g id="node2" class="node">
<title>dir_8d04f135a1eb0fdc4d561ef87bbea216</title>
<g id="a_node2"><a xlink:href="dir_8d04f135a1eb0fdc4d561ef87bbea216.html" target="_top" xlink:title="Core">
<polygon fill="#ffffff" stroke="#ff0000" points="234,-324 180,-324 180,-288 234,-288 234,-324"/>
<text text-anchor="middle" x="207" y="-303.5" font-family="Helvetica,sans-Serif" font-size="10.00" fill="#000000">Core</text>
</a>
</g>
</g>
<!-- dir_6af676bf18881990e4083e191d0e63e0 -->
<g id="node7" class="node">
<title>dir_6af676bf18881990e4083e191d0e63e0</title>
<g id="a_node7"><a xlink:href="dir_6af676bf18881990e4083e191d0e63e0.html" target="_top" xlink:title="CCDB">
<polygon fill="none" stroke="#ff0000" points="124,-324 70,-324 70,-288 124,-288 124,-324"/>
<text text-anchor="middle" x="97" y="-303.5" font-family="Helvetica,sans-Serif" font-size="10.00" fill="#000000">CCDB</text>
</a>
</g>
</g>
<!-- dir_8d04f135a1eb0fdc4d561ef87bbea216&#45;&gt;dir_6af676bf18881990e4083e191d0e63e0 -->
<g id="edge23" class="edge">
<title>dir_8d04f135a1eb0fdc4d561ef87bbea216&#45;&gt;dir_6af676bf18881990e4083e191d0e63e0</title>
<path fill="none" stroke="#000000" d="M179.7887,-306C164.5532,-306 149.3177,-306 134.0822,-306"/>
<polygon fill="#000000" stroke="#000000" points="134.0703,-302.5001 124.0703,-306 134.0703,-309.5001 134.0703,-302.5001"/>
<g id="a_edge23&#45;headlabel"><a xlink:href="dir_000005_000020.html" target="_top" xlink:title="1">
<text text-anchor="middle" x="137.6649" y="-297.1607" font-family="Helvetica,sans-Serif" font-size="10.00" fill="#000000">1</text>
</a>
</g>
</g>
<!-- dir_bcbb2cf9a3d3d83e5515c82071a07177 -->
<g id="node9" class="node">
<title>dir_bcbb2cf9a3d3d83e5515c82071a07177</title>
<g id="a_node9"><a xlink:href="dir_bcbb2cf9a3d3d83e5515c82071a07177.html" target="_top" xlink:title="Framework">
<polygon fill="none" stroke="#ff0000" points="223.5,-180 152.5,-180 152.5,-144 223.5,-144 223.5,-180"/>
<text text-anchor="middle" x="188" y="-159.5" font-family="Helvetica,sans-Serif" font-size="10.00" fill="#000000">Framework</text>
</a>
</g>
</g>
<!-- dir_8d04f135a1eb0fdc4d561ef87bbea216&#45;&gt;dir_bcbb2cf9a3d3d83e5515c82071a07177 -->
<g id="edge24" class="edge">
<title>dir_8d04f135a1eb0fdc4d561ef87bbea216&#45;&gt;dir_bcbb2cf9a3d3d83e5515c82071a07177</title>
<path fill="none" stroke="#000000" d="M204.5936,-287.7623C201.3529,-263.201 195.5535,-219.2474 191.7412,-190.3541"/>
<polygon fill="#000000" stroke="#000000" points="195.1649,-189.5458 190.3868,-180.0896 188.2251,-190.4616 195.1649,-189.5458"/>
<g id="a_edge24&#45;headlabel"><a xlink:href="dir_000005_000014.html" target="_top" xlink:title="5">
<text text-anchor="middle" x="198.4499" y="-190.2382" font-family="Helvetica,sans-Serif" font-size="10.00" fill="#000000">5</text>
</a>
</g>
</g>
<!-- dir_f41dd59f861c855ea21b0dc3111cb7b0 -->
<g id="node3" class="node">
<title>dir_f41dd59f861c855ea21b0dc3111cb7b0</title>
<g id="a_node3"><a xlink:href="dir_f41dd59f861c855ea21b0dc3111cb7b0.html" target="_top" xlink:title="DataModel">
<polygon fill="#ffffff" stroke="#ff0000" points="321.5,-324 252.5,-324 252.5,-288 321.5,-288 321.5,-324"/>
<text text-anchor="middle" x="287" y="-303.5" font-family="Helvetica,sans-Serif" font-size="10.00" fill="#000000">DataModel</text>
</a>
</g>
</g>
<!-- dir_4ab6b4cc6a7edbff49100e9123df213f -->
<g id="node6" class="node">
<title>dir_4ab6b4cc6a7edbff49100e9123df213f</title>
<g id="a_node6"><a xlink:href="dir_4ab6b4cc6a7edbff49100e9123df213f.html" target="_top" xlink:title="Common">
<polygon fill="none" stroke="#ff0000" points="317.5,-252 256.5,-252 256.5,-216 317.5,-216 317.5,-252"/>
<text text-anchor="middle" x="287" y="-231.5" font-family="Helvetica,sans-Serif" font-size="10.00" fill="#000000">Common</text>
</a>
</g>
</g>
<!-- dir_f41dd59f861c855ea21b0dc3111cb7b0&#45;&gt;dir_4ab6b4cc6a7edbff49100e9123df213f -->
<g id="edge14" class="edge">
<title>dir_f41dd59f861c855ea21b0dc3111cb7b0&#45;&gt;dir_4ab6b4cc6a7edbff49100e9123df213f</title>
<path fill="none" stroke="#000000" d="M287,-287.8314C287,-280.131 287,-270.9743 287,-262.4166"/>
<polygon fill="#000000" stroke="#000000" points="290.5001,-262.4132 287,-252.4133 283.5001,-262.4133 290.5001,-262.4132"/>
<g id="a_edge14&#45;headlabel"><a xlink:href="dir_000009_000028.html" target="_top" xlink:title="1">
<text text-anchor="middle" x="293.3393" y="-263.5079" font-family="Helvetica,sans-Serif" font-size="10.00" fill="#000000">1</text>
</a>
</g>
</g>
<!-- dir_f41dd59f861c855ea21b0dc3111cb7b0&#45;&gt;dir_bcbb2cf9a3d3d83e5515c82071a07177 -->
<g id="edge15" class="edge">
<title>dir_f41dd59f861c855ea21b0dc3111cb7b0&#45;&gt;dir_bcbb2cf9a3d3d83e5515c82071a07177</title>
<path fill="none" stroke="#000000" d="M273.4705,-287.6277C265.8859,-277.2388 256.3084,-263.9703 248,-252 233.4108,-230.9806 217.3552,-206.8416 205.5268,-188.8576"/>
<polygon fill="#000000" stroke="#000000" points="208.1689,-186.5043 199.7567,-180.0633 202.3162,-190.3444 208.1689,-186.5043"/>
<g id="a_edge15&#45;headlabel"><a xlink:href="dir_000009_000014.html" target="_top" xlink:title="14">
<text text-anchor="middle" x="212.5147" y="-185.4522" font-family="Helvetica,sans-Serif" font-size="10.00" fill="#000000">14</text>
</a>
</g>
</g>
<!-- dir_2171f7ec022c5423887b07c69b2f5b48 -->
<g id="node10" class="node">
<title>dir_2171f7ec022c5423887b07c69b2f5b48</title>
<g id="a_node10"><a xlink:href="dir_2171f7ec022c5423887b07c69b2f5b48.html" target="_top" xlink:title="DataFormats">
<polygon fill="none" stroke="#ff0000" points="351,-108 271,-108 271,-72 351,-72 351,-108"/>
<text text-anchor="middle" x="311" y="-87.5" font-family="Helvetica,sans-Serif" font-size="10.00" fill="#000000">DataFormats</text>
</a>
</g>
</g>
<!-- dir_f41dd59f861c855ea21b0dc3111cb7b0&#45;&gt;dir_2171f7ec022c5423887b07c69b2f5b48 -->
<g id="edge16" class="edge">
<title>dir_f41dd59f861c855ea21b0dc3111cb7b0&#45;&gt;dir_2171f7ec022c5423887b07c69b2f5b48</title>
<path fill="none" stroke="#000000" d="M305.1576,-287.7286C313.549,-277.9911 322.6123,-265.2949 327,-252 341.9457,-206.714 330.2377,-150.745 320.5194,-117.8508"/>
<polygon fill="#000000" stroke="#000000" points="323.7767,-116.538 317.4703,-108.0245 317.0912,-118.6126 323.7767,-116.538"/>
<g id="a_edge16&#45;headlabel"><a xlink:href="dir_000009_000077.html" target="_top" xlink:title="3">
<text text-anchor="middle" x="327.5536" y="-116.6297" font-family="Helvetica,sans-Serif" font-size="10.00" fill="#000000">3</text>
</a>
</g>
</g>
<!-- dir_eff7324435ca3301414fec6c28c4adf5 -->
<g id="node4" class="node">
<title>dir_eff7324435ca3301414fec6c28c4adf5</title>
<g id="a_node4"><a xlink:href="dir_eff7324435ca3301414fec6c28c4adf5.html" target="_top" xlink:title="Tasks">
<polygon fill="#ffffff" stroke="#000000" points="194,-396 140,-396 140,-360 194,-360 194,-396"/>
<text text-anchor="middle" x="167" y="-375.5" font-family="Helvetica,sans-Serif" font-size="10.00" fill="#000000">Tasks</text>
</a>
</g>
</g>
<!-- dir_eff7324435ca3301414fec6c28c4adf5&#45;&gt;dir_8d04f135a1eb0fdc4d561ef87bbea216 -->
<g id="edge20" class="edge">
<title>dir_eff7324435ca3301414fec6c28c4adf5&#45;&gt;dir_8d04f135a1eb0fdc4d561ef87bbea216</title>
<path fill="none" stroke="#000000" d="M177.0937,-359.8314C181.5597,-351.7925 186.9075,-342.1666 191.8379,-333.2918"/>
<polygon fill="#000000" stroke="#000000" points="194.9735,-334.8546 196.7704,-324.4133 188.8544,-331.4551 194.9735,-334.8546"/>
<g id="a_edge20&#45;headlabel"><a xlink:href="dir_000017_000005.html" target="_top" xlink:title="11">
<text text-anchor="middle" x="195.7098" y="-336.8757" font-family="Helvetica,sans-Serif" font-size="10.00" fill="#000000">11</text>
</a>
</g>
</g>
<!-- dir_eff7324435ca3301414fec6c28c4adf5&#45;&gt;dir_f41dd59f861c855ea21b0dc3111cb7b0 -->
<g id="edge19" class="edge">
<title>dir_eff7324435ca3301414fec6c28c4adf5&#45;&gt;dir_f41dd59f861c855ea21b0dc3111cb7b0</title>
<path fill="none" stroke="#000000" d="M194.2299,-361.6621C210.1291,-352.1226 230.4567,-339.926 248.0293,-329.3824"/>
<polygon fill="#000000" stroke="#000000" points="250.1552,-332.1886 256.9294,-324.0423 246.5537,-326.1861 250.1552,-332.1886"/>
<g id="a_edge19&#45;headlabel"><a xlink:href="dir_000017_000009.html" target="_top" xlink:title="38">
<text text-anchor="middle" x="248.5337" y="-333.9726" font-family="Helvetica,sans-Serif" font-size="10.00" fill="#000000">38</text>
</a>
</g>
</g>
<!-- dir_eff7324435ca3301414fec6c28c4adf5&#45;&gt;dir_6af676bf18881990e4083e191d0e63e0 -->
<g id="edge17" class="edge">
<title>dir_eff7324435ca3301414fec6c28c4adf5&#45;&gt;dir_6af676bf18881990e4083e191d0e63e0</title>
<path fill="none" stroke="#000000" d="M149.336,-359.8314C141.0268,-351.2848 130.9736,-340.9443 121.9082,-331.6198"/>
<polygon fill="#000000" stroke="#000000" points="124.3821,-329.1435 114.9018,-324.4133 119.3631,-334.023 124.3821,-329.1435"/>
<g id="a_edge17&#45;headlabel"><a xlink:href="dir_000017_000020.html" target="_top" xlink:title="3">
<text text-anchor="middle" x="128.9235" y="-327.2416" font-family="Helvetica,sans-Serif" font-size="10.00" fill="#000000">3</text>
</a>
</g>
</g>
<!-- dir_051dca18e802f8e9474f2e30d29c04e0 -->
<g id="node8" class="node">
<title>dir_051dca18e802f8e9474f2e30d29c04e0</title>
<g id="a_node8"><a xlink:href="dir_051dca18e802f8e9474f2e30d29c04e0.html" target="_top" xlink:title="Detectors">
<polygon fill="none" stroke="#ff0000" points="220,-36 156,-36 156,0 220,0 220,-36"/>
<text text-anchor="middle" x="188" y="-15.5" font-family="Helvetica,sans-Serif" font-size="10.00" fill="#000000">Detectors</text>
</a>
</g>
</g>
<!-- dir_eff7324435ca3301414fec6c28c4adf5&#45;&gt;dir_051dca18e802f8e9474f2e30d29c04e0 -->
<g id="edge18" class="edge">
<title>dir_eff7324435ca3301414fec6c28c4adf5&#45;&gt;dir_051dca18e802f8e9474f2e30d29c04e0</title>
<path fill="none" stroke="#000000" d="M139.8709,-370.6326C114.4493,-362.6073 76.626,-347.6569 51,-324 17.2182,-292.814 0,-279.9758 0,-234 0,-234 0,-234 0,-162 0,-88.8911 90.71,-47.8684 146.1116,-29.6313"/>
<polygon fill="#000000" stroke="#000000" points="147.2109,-32.9545 155.6816,-26.5907 145.0913,-26.2831 147.2109,-32.9545"/>
<g id="a_edge18&#45;headlabel"><a xlink:href="dir_000017_000040.html" target="_top" xlink:title="6">
<text text-anchor="middle" x="144.6448" y="-34.2488" font-family="Helvetica,sans-Serif" font-size="10.00" fill="#000000">6</text>
</a>
</g>
</g>
<!-- dir_eff7324435ca3301414fec6c28c4adf5&#45;&gt;dir_bcbb2cf9a3d3d83e5515c82071a07177 -->
<g id="edge21" class="edge">
<title>dir_eff7324435ca3301414fec6c28c4adf5&#45;&gt;dir_bcbb2cf9a3d3d83e5515c82071a07177</title>
<path fill="none" stroke="#000000" d="M139.788,-372.5503C114.4324,-365.8715 78.0512,-351.8227 61,-324 50.7816,-307.3265 54.2866,-298.3671 61,-280 76.1581,-238.5292 115.6514,-205.8372 146.61,-185.4818"/>
<polygon fill="#000000" stroke="#000000" points="148.5418,-188.401 155.0882,-180.0707 144.7757,-182.5004 148.5418,-188.401"/>
<g id="a_edge21&#45;headlabel"><a xlink:href="dir_000017_000014.html" target="_top" xlink:title="79">
<text text-anchor="middle" x="147.0392" y="-190.2282" font-family="Helvetica,sans-Serif" font-size="10.00" fill="#000000">79</text>
</a>
</g>
</g>
<!-- dir_eff7324435ca3301414fec6c28c4adf5&#45;&gt;dir_2171f7ec022c5423887b07c69b2f5b48 -->
<g id="edge22" class="edge">
<title>dir_eff7324435ca3301414fec6c28c4adf5&#45;&gt;dir_2171f7ec022c5423887b07c69b2f5b48</title>
<path fill="none" stroke="#000000" d="M194.2751,-363.6934C197.1868,-362.368 200.1323,-361.1087 203,-360 258.1202,-338.6902 291.2558,-367.7349 331,-324 384.943,-264.6406 365.7243,-221.2103 344,-144 341.3339,-134.5243 336.4919,-125.067 331.3238,-116.7759"/>
<polygon fill="#000000" stroke="#000000" points="334.1303,-114.6757 325.6752,-108.2912 328.3034,-118.5549 334.1303,-114.6757"/>
<g id="a_edge22&#45;headlabel"><a xlink:href="dir_000017_000077.html" target="_top" xlink:title="7">
<text text-anchor="middle" x="338.4857" y="-113.5945" font-family="Helvetica,sans-Serif" font-size="10.00" fill="#000000">7</text>
</a>
</g>
</g>
<!-- dir_6e355b58bf8669476ee36a32071bc3eb -->
<g id="node5" class="node">
<title>dir_6e355b58bf8669476ee36a32071bc3eb</title>
<g id="a_node5"><a xlink:href="dir_6e355b58bf8669476ee36a32071bc3eb.html" target="_top" xlink:title="Tutorials">
<polygon fill="#ffffff" stroke="#ff0000" points="270,-396 212,-396 212,-360 270,-360 270,-396"/>
<text text-anchor="middle" x="241" y="-375.5" font-family="Helvetica,sans-Serif" font-size="10.00" fill="#000000">Tutorials</text>
</a>
</g>
</g>
<!-- dir_6e355b58bf8669476ee36a32071bc3eb&#45;&gt;dir_8d04f135a1eb0fdc4d561ef87bbea216 -->
<g id="edge3" class="edge">
<title>dir_6e355b58bf8669476ee36a32071bc3eb&#45;&gt;dir_8d04f135a1eb0fdc4d561ef87bbea216</title>
<path fill="none" stroke="#000000" d="M232.4204,-359.8314C228.6642,-351.8771 224.1743,-342.369 220.0202,-333.5723"/>
<polygon fill="#000000" stroke="#000000" points="223.1301,-331.9612 215.6952,-324.4133 216.8004,-334.9503 223.1301,-331.9612"/>
<g id="a_edge3&#45;headlabel"><a xlink:href="dir_000018_000005.html" target="_top" xlink:title="3">
<text text-anchor="middle" x="227.2324" y="-331.4993" font-family="Helvetica,sans-Serif" font-size="10.00" fill="#000000">3</text>
</a>
</g>
</g>
<!-- dir_6e355b58bf8669476ee36a32071bc3eb&#45;&gt;dir_f41dd59f861c855ea21b0dc3111cb7b0 -->
<g id="edge2" class="edge">
<title>dir_6e355b58bf8669476ee36a32071bc3eb&#45;&gt;dir_f41dd59f861c855ea21b0dc3111cb7b0</title>
<path fill="none" stroke="#000000" d="M252.6077,-359.8314C257.7978,-351.7079 264.0232,-341.9637 269.7425,-333.0118"/>
<polygon fill="#000000" stroke="#000000" points="272.8015,-334.7246 275.236,-324.4133 266.9026,-330.9559 272.8015,-334.7246"/>
<g id="a_edge2&#45;headlabel"><a xlink:href="dir_000018_000009.html" target="_top" xlink:title="2">
<text text-anchor="middle" x="273.2589" y="-336.7824" font-family="Helvetica,sans-Serif" font-size="10.00" fill="#000000">2</text>
</a>
</g>
</g>
<!-- dir_6e355b58bf8669476ee36a32071bc3eb&#45;&gt;dir_6af676bf18881990e4083e191d0e63e0 -->
<g id="edge1" class="edge">
<title>dir_6e355b58bf8669476ee36a32071bc3eb&#45;&gt;dir_6af676bf18881990e4083e191d0e63e0</title>
<path fill="none" stroke="#000000" d="M211.8398,-364.1364C186.247,-351.9603 150.7751,-335.061 133.5083,-326.6145"/>
<polygon fill="#000000" stroke="#000000" points="134.8277,-323.3612 124.318,-322.0213 131.6982,-329.6227 134.8277,-323.3612"/>
<g id="a_edge1&#45;headlabel"><a xlink:href="dir_000018_000020.html" target="_top" xlink:title="1">
<text text-anchor="middle" x="139.3124" y="-319.9284" font-family="Helvetica,sans-Serif" font-size="10.00" fill="#000000">1</text>
</a>
</g>
</g>
<!-- dir_6e355b58bf8669476ee36a32071bc3eb&#45;&gt;dir_bcbb2cf9a3d3d83e5515c82071a07177 -->
<g id="edge4" class="edge">
<title>dir_6e355b58bf8669476ee36a32071bc3eb&#45;&gt;dir_bcbb2cf9a3d3d83e5515c82071a07177</title>
<path fill="none" stroke="#000000" d="M211.7797,-363.7941C196.6219,-354.7085 179.5312,-341.3559 171,-324 149.7457,-280.7603 164.3118,-223.3209 176.4335,-189.7344"/>
<polygon fill="#000000" stroke="#000000" points="179.8064,-190.7103 180.0745,-180.1189 173.26,-188.2314 179.8064,-190.7103"/>
<g id="a_edge4&#45;headlabel"><a xlink:href="dir_000018_000014.html" target="_top" xlink:title="53">
<text text-anchor="middle" x="181.1888" y="-192.5774" font-family="Helvetica,sans-Serif" font-size="10.00" fill="#000000">53</text>
</a>
</g>
</g>
<!-- dir_6e355b58bf8669476ee36a32071bc3eb&#45;&gt;dir_2171f7ec022c5423887b07c69b2f5b48 -->
<g id="edge5" class="edge">
<title>dir_6e355b58bf8669476ee36a32071bc3eb&#45;&gt;dir_2171f7ec022c5423887b07c69b2f5b48</title>
<path fill="none" stroke="#000000" d="M270.2702,-363.6072C273.1946,-362.3289 276.1394,-361.1032 279,-360 330.5552,-340.118 365.0672,-368.3697 398,-324 445.6802,-259.7614 436.8901,-213.9111 398,-144 389.6268,-128.9478 375.1293,-117.5542 360.3428,-109.2059"/>
<polygon fill="#000000" stroke="#000000" points="361.634,-105.9314 351.1509,-104.396 358.3884,-112.1335 361.634,-105.9314"/>
<g id="a_edge5&#45;headlabel"><a xlink:href="dir_000018_000077.html" target="_top" xlink:title="1">
<text text-anchor="middle" x="366.1352" y="-102.5823" font-family="Helvetica,sans-Serif" font-size="10.00" fill="#000000">1</text>
</a>
</g>
</g>
<!-- dir_4ab6b4cc6a7edbff49100e9123df213f&#45;&gt;dir_bcbb2cf9a3d3d83e5515c82071a07177 -->
<g id="edge6" class="edge">
<title>dir_4ab6b4cc6a7edbff49100e9123df213f&#45;&gt;dir_bcbb2cf9a3d3d83e5515c82071a07177</title>
<path fill="none" stroke="#000000" d="M256.3393,-216.0171C243.0447,-206.9968 227.6852,-195.9432 214.8452,-186.1901"/>
<polygon fill="#000000" stroke="#000000" points="216.8753,-183.3359 206.8182,-180.0032 212.6019,-188.8801 216.8753,-183.3359"/>
<g id="a_edge6&#45;headlabel"><a xlink:href="dir_000028_000014.html" target="_top" xlink:title="2">
<text text-anchor="middle" x="221.4556" y="-180.7815" font-family="Helvetica,sans-Serif" font-size="10.00" fill="#000000">2</text>
</a>
</g>
</g>
<!-- dir_4ab6b4cc6a7edbff49100e9123df213f&#45;&gt;dir_2171f7ec022c5423887b07c69b2f5b48 -->
<g id="edge7" class="edge">
<title>dir_4ab6b4cc6a7edbff49100e9123df213f&#45;&gt;dir_2171f7ec022c5423887b07c69b2f5b48</title>
<path fill="none" stroke="#000000" d="M285.3664,-215.7623C287.0074,-191.0928 294.1133,-146.8598 300.8658,-117.9731"/>
<polygon fill="#000000" stroke="#000000" points="304.3068,-118.639 303.3268,-108.0896 297.5142,-116.9476 304.3068,-118.639"/>
<g id="a_edge7&#45;headlabel"><a xlink:href="dir_000028_000077.html" target="_top" xlink:title="2">
<text text-anchor="middle" x="306.1934" y="-120.3131" font-family="Helvetica,sans-Serif" font-size="10.00" fill="#000000">2</text>
</a>
</g>
</g>
<!-- dir_6af676bf18881990e4083e191d0e63e0&#45;&gt;dir_4ab6b4cc6a7edbff49100e9123df213f -->
<g id="edge8" class="edge">
<title>dir_6af676bf18881990e4083e191d0e63e0&#45;&gt;dir_4ab6b4cc6a7edbff49100e9123df213f</title>
<path fill="none" stroke="#000000" d="M116.1204,-287.8973C119.8669,-284.9654 123.909,-282.1809 128,-280 165.6885,-259.909 213.2078,-247.6417 246.4398,-240.8855"/>
<polygon fill="#000000" stroke="#000000" points="247.1257,-244.3178 256.2678,-238.9632 245.7819,-237.448 247.1257,-244.3178"/>
<g id="a_edge8&#45;headlabel"><a xlink:href="dir_000020_000028.html" target="_top" xlink:title="4">
<text text-anchor="middle" x="244.1429" y="-245.2942" font-family="Helvetica,sans-Serif" font-size="10.00" fill="#000000">4</text>
</a>
</g>
</g>
<!-- dir_6af676bf18881990e4083e191d0e63e0&#45;&gt;dir_bcbb2cf9a3d3d83e5515c82071a07177 -->
<g id="edge9" class="edge">
<title>dir_6af676bf18881990e4083e191d0e63e0&#45;&gt;dir_bcbb2cf9a3d3d83e5515c82071a07177</title>
<path fill="none" stroke="#000000" d="M103.2908,-287.8741C110.2642,-269.0458 122.5892,-239.156 138,-216 144.6795,-205.9635 153.228,-195.9894 161.3601,-187.3951"/>
<polygon fill="#000000" stroke="#000000" points="163.8692,-189.8353 168.342,-180.2309 158.8561,-184.9498 163.8692,-189.8353"/>
<g id="a_edge9&#45;headlabel"><a xlink:href="dir_000020_000014.html" target="_top" xlink:title="2">
<text text-anchor="middle" x="163.3938" y="-191.8913" font-family="Helvetica,sans-Serif" font-size="10.00" fill="#000000">2</text>
</a>
</g>
</g>
<!-- dir_051dca18e802f8e9474f2e30d29c04e0&#45;&gt;dir_4ab6b4cc6a7edbff49100e9123df213f -->
<g id="edge10" class="edge">
<title>dir_051dca18e802f8e9474f2e30d29c04e0&#45;&gt;dir_4ab6b4cc6a7edbff49100e9123df213f</title>
<path fill="none" stroke="#000000" d="M196.3165,-36.1451C213.7184,-74.1129 254.0519,-162.1133 274.5538,-206.8447"/>
<polygon fill="#000000" stroke="#000000" points="271.3813,-208.3231 278.7296,-215.9555 277.7447,-205.4065 271.3813,-208.3231"/>
<g id="a_edge10&#45;headlabel"><a xlink:href="dir_000040_000028.html" target="_top" xlink:title="271">
<text text-anchor="middle" x="267.3025" y="-203.7384" font-family="Helvetica,sans-Serif" font-size="10.00" fill="#000000">271</text>
</a>
</g>
</g>
<!-- dir_051dca18e802f8e9474f2e30d29c04e0&#45;&gt;dir_6af676bf18881990e4083e191d0e63e0 -->
<g id="edge11" class="edge">
<title>dir_051dca18e802f8e9474f2e30d29c04e0&#45;&gt;dir_6af676bf18881990e4083e191d0e63e0</title>
<path fill="none" stroke="#000000" d="M180.1792,-36.2449C165.6237,-70.7781 134.1224,-148.3062 115,-216 109.2334,-236.4139 104.5967,-259.9343 101.4742,-277.8101"/>
<polygon fill="#000000" stroke="#000000" points="97.9888,-277.4303 99.7714,-287.8741 104.8907,-278.5982 97.9888,-277.4303"/>
<g id="a_edge11&#45;headlabel"><a xlink:href="dir_000040_000020.html" target="_top" xlink:title="29">
<text text-anchor="middle" x="95.7889" y="-270.9125" font-family="Helvetica,sans-Serif" font-size="10.00" fill="#000000">29</text>
</a>
</g>
</g>
<!-- dir_051dca18e802f8e9474f2e30d29c04e0&#45;&gt;dir_bcbb2cf9a3d3d83e5515c82071a07177 -->
<g id="edge12" class="edge">
<title>dir_051dca18e802f8e9474f2e30d29c04e0&#45;&gt;dir_bcbb2cf9a3d3d83e5515c82071a07177</title>
<path fill="none" stroke="#000000" d="M192.6583,-36.0896C195.1269,-60.5727 195.4104,-104.5174 193.5089,-133.4713"/>
<polygon fill="#000000" stroke="#000000" points="189.9942,-133.5118 192.6732,-143.7623 196.9712,-134.0785 189.9942,-133.5118"/>
<g id="a_edge12&#45;headlabel"><a xlink:href="dir_000040_000014.html" target="_top" xlink:title="772">
<text text-anchor="middle" x="187.4551" y="-127.1992" font-family="Helvetica,sans-Serif" font-size="10.00" fill="#000000">772</text>
</a>
</g>
</g>
<!-- dir_051dca18e802f8e9474f2e30d29c04e0&#45;&gt;dir_2171f7ec022c5423887b07c69b2f5b48 -->
<g id="edge13" class="edge">
<title>dir_051dca18e802f8e9474f2e30d29c04e0&#45;&gt;dir_2171f7ec022c5423887b07c69b2f5b48</title>
<path fill="none" stroke="#000000" d="M220.1045,-33.479C237.6213,-43.0612 259.2068,-55.5558 276.9981,-66.36"/>
<polygon fill="#000000" stroke="#000000" points="275.5605,-69.5842 285.9143,-71.8314 279.2217,-63.618 275.5605,-69.5842"/>
<g id="a_edge13&#45;headlabel"><a xlink:href="dir_000040_000077.html" target="_top" xlink:title="1062">
<text text-anchor="middle" x="271.0118" y="-67.6241" font-family="Helvetica,sans-Serif" font-size="10.00" fill="#000000">1062</text>
</a>
</g>
</g>
<!-- dir_bcbb2cf9a3d3d83e5515c82071a07177&#45;&gt;dir_4ab6b4cc6a7edbff49100e9123df213f -->
<g id="edge25" class="edge">
<title>dir_bcbb2cf9a3d3d83e5515c82071a07177&#45;&gt;dir_4ab6b4cc6a7edbff49100e9123df213f</title>
<path fill="none" stroke="#000000" d="M218.9257,-180.1628C232.1084,-189.1154 247.283,-200.0374 260.0078,-209.6982"/>
<polygon fill="#000000" stroke="#000000" points="257.9123,-212.5021 267.9705,-215.8314 262.1838,-206.9564 257.9123,-212.5021"/>
<g id="a_edge25&#45;headlabel"><a xlink:href="dir_000014_000028.html" target="_top" xlink:title="8">
<text text-anchor="middle" x="253.332" y="-210.058" font-family="Helvetica,sans-Serif" font-size="10.00" fill="#000000">8</text>
</a>
</g>
</g>
<!-- dir_bcbb2cf9a3d3d83e5515c82071a07177&#45;&gt;dir_051dca18e802f8e9474f2e30d29c04e0 -->
<g id="edge26" class="edge">
<title>dir_bcbb2cf9a3d3d83e5515c82071a07177&#45;&gt;dir_051dca18e802f8e9474f2e30d29c04e0</title>
<path fill="none" stroke="#000000" d="M183.3268,-143.7623C180.867,-119.201 180.5923,-75.2474 182.5026,-46.3541"/>
<polygon fill="#000000" stroke="#000000" points="186.0152,-46.3416 183.3417,-36.0896 179.0385,-45.7712 186.0152,-46.3416"/>
<g id="a_edge26&#45;headlabel"><a xlink:href="dir_000014_000040.html" target="_top" xlink:title="4">
<text text-anchor="middle" x="188.5522" y="-47.6556" font-family="Helvetica,sans-Serif" font-size="10.00" fill="#000000">4</text>
</a>
</g>
</g>
<!-- dir_bcbb2cf9a3d3d83e5515c82071a07177&#45;&gt;dir_2171f7ec022c5423887b07c69b2f5b48 -->
<g id="edge27" class="edge">
<title>dir_bcbb2cf9a3d3d83e5515c82071a07177&#45;&gt;dir_2171f7ec022c5423887b07c69b2f5b48</title>
<path fill="none" stroke="#000000" d="M213.0857,-143.8314C228.058,-134.5368 247.4261,-123.1208 265.0163,-113.1971"/>
<polygon fill="#000000" stroke="#000000" points="266.9998,-116.098 274.02,-108.1628 263.5836,-109.9882 266.9998,-116.098"/>
<g id="a_edge27&#45;headlabel"><a xlink:href="dir_000014_000077.html" target="_top" xlink:title="82">
<text text-anchor="middle" x="265.248" y="-117.8305" font-family="Helvetica,sans-Serif" font-size="10.00" fill="#000000">82</text>
</a>
</g>
</g>
<!-- dir_2171f7ec022c5423887b07c69b2f5b48&#45;&gt;dir_4ab6b4cc6a7edbff49100e9123df213f -->
<g id="edge28" class="edge">
<title>dir_2171f7ec022c5423887b07c69b2f5b48&#45;&gt;dir_4ab6b4cc6a7edbff49100e9123df213f</title>
<path fill="none" stroke="#000000" d="M312.6434,-108.0896C311.0243,-132.6805 303.9287,-176.905 297.1748,-205.8531"/>
<polygon fill="#000000" stroke="#000000" points="293.7274,-205.2134 294.7128,-215.7623 300.5209,-206.9013 293.7274,-205.2134"/>
<g id="a_edge28&#45;headlabel"><a xlink:href="dir_000077_000028.html" target="_top" xlink:title="35">
<text text-anchor="middle" x="291.8386" y="-198.5402" font-family="Helvetica,sans-Serif" font-size="10.00" fill="#000000">35</text>
</a>
</g>
</g>
<!-- dir_2171f7ec022c5423887b07c69b2f5b48&#45;&gt;dir_051dca18e802f8e9474f2e30d29c04e0 -->
<g id="edge29" class="edge">
<title>dir_2171f7ec022c5423887b07c69b2f5b48&#45;&gt;dir_051dca18e802f8e9474f2e30d29c04e0</title>
<path fill="none" stroke="#000000" d="M274.0095,-71.8314C257.3796,-62.6221 237.949,-51.3301 221.723,-41.4706"/>
<polygon fill="#000000" stroke="#000000" points="223.4298,-38.4116 213.0763,-36.1628 219.7677,-44.3772 223.4298,-38.4116"/>
<g id="a_edge29&#45;headlabel"><a xlink:href="dir_000077_000040.html" target="_top" xlink:title="14">
<text text-anchor="middle" x="227.9786" y="-35.3723" font-family="Helvetica,sans-Serif" font-size="10.00" fill="#000000">14</text>
</a>
</g>
</g>
<!-- dir_2171f7ec022c5423887b07c69b2f5b48&#45;&gt;dir_bcbb2cf9a3d3d83e5515c82071a07177 -->
<g id="edge30" class="edge">
<title>dir_2171f7ec022c5423887b07c69b2f5b48&#45;&gt;dir_bcbb2cf9a3d3d83e5515c82071a07177</title>
<path fill="none" stroke="#000000" d="M286.1527,-108.0206C270.8232,-117.5435 250.8221,-129.3245 232.8382,-139.4485"/>
<polygon fill="#000000" stroke="#000000" points="230.6821,-136.6434 223.6531,-144.5708 234.0915,-142.7569 230.6821,-136.6434"/>
<g id="a_edge30&#45;headlabel"><a xlink:href="dir_000077_000014.html" target="_top" xlink:title="11">
<text text-anchor="middle" x="232.4386" y="-129.9129" font-family="Helvetica,sans-Serif" font-size="10.00" fill="#000000">11</text>
</a>
</g>
</g>
</g>
</svg>
