<?xml version="1.0" encoding="UTF-8" standalone="no"?>
<!DOCTYPE svg PUBLIC "-//W3C//DTD SVG 1.1//EN"
 "http://www.w3.org/Graphics/SVG/1.1/DTD/svg11.dtd">
<!-- Generated by graphviz version 2.40.1 (20161225.0304)
 -->
<!-- Title: GPUCA_NAMESPACE::gpu::GPUTPCCFChainContext Pages: 1 -->
<svg width="1011pt" height="546pt"
 viewBox="0.00 0.00 1011.00 546.00" xmlns="http://www.w3.org/2000/svg" xmlns:xlink="http://www.w3.org/1999/xlink">
<g id="graph0" class="graph" transform="scale(1 1) rotate(0) translate(4 542)">
<title>GPUCA_NAMESPACE::gpu::GPUTPCCFChainContext</title>
<!-- Node1 -->
<g id="node1" class="node">
<title>Node1</title>
<polygon fill="#bfbfbf" stroke="#000000" points="326,-.5 326,-68.5 466,-68.5 466,-.5 326,-.5"/>
<text text-anchor="start" x="334" y="-56.5" font-family="Helvetica,sans-Serif" font-size="10.00" fill="#000000">GPUCA_NAMESPACE::gpu</text>
<text text-anchor="middle" x="396" y="-45.5" font-family="Helvetica,sans-Serif" font-size="10.00" fill="#000000">::GPUTPCCFChainContext</text>
<polyline fill="none" stroke="#000000" points="326,-38.5 466,-38.5 "/>
<text text-anchor="middle" x="396" y="-26.5" font-family="Helvetica,sans-Serif" font-size="10.00" fill="#000000"> </text>
<polyline fill="none" stroke="#000000" points="326,-19.5 466,-19.5 "/>
<text text-anchor="start" x="334" y="-7.5" font-family="Helvetica,sans-Serif" font-size="10.00" fill="#000000">+ prepare()</text>
</g>
<!-- Node2 -->
<g id="node2" class="node">
<title>Node2</title>
<polygon fill="none" stroke="#bfbfbf" points="0,-133 0,-212 164,-212 164,-133 0,-133"/>
<text text-anchor="start" x="8" y="-200" font-family="Helvetica,sans-Serif" font-size="10.00" fill="#000000">vector&lt; GPUCA_NAMESPACE</text>
<text text-anchor="start" x="8" y="-189" font-family="Helvetica,sans-Serif" font-size="10.00" fill="#000000">::gpu::GPUTPCCFChainContext</text>
<text text-anchor="middle" x="82" y="-178" font-family="Helvetica,sans-Serif" font-size="10.00" fill="#000000">::FragmentData &gt;</text>
<polyline fill="none" stroke="#bfbfbf" points="0,-171 164,-171 "/>
<text text-anchor="middle" x="82" y="-159" font-family="Helvetica,sans-Serif" font-size="10.00" fill="#000000"> </text>
<polyline fill="none" stroke="#bfbfbf" points="0,-152 164,-152 "/>
<text text-anchor="middle" x="82" y="-140" font-family="Helvetica,sans-Serif" font-size="10.00" fill="#000000"> </text>
</g>
<!-- Node2&#45;&gt;Node1 -->
<g id="edge1" class="edge">
<title>Node2&#45;&gt;Node1</title>
<path fill="none" stroke="#404040" d="M125.7746,-132.9717C145.7023,-116.7334 170.32,-98.9709 195,-87 232.1877,-68.9623 276.3595,-56.5533 313.8105,-48.3482"/>
<polygon fill="none" stroke="#404040" points="313.9761,-48.3132 319.0186,-43.1582 325.7164,-45.8301 320.674,-50.9851 313.9761,-48.3132"/>
<text text-anchor="middle" x="235" y="-90" font-family="Helvetica,sans-Serif" font-size="10.00" fill="#000000"> +fragmentData</text>
</g>
<!-- Node3 -->
<g id="node3" class="node">
<title>Node3</title>
<polygon fill="none" stroke="#bfbfbf" points="476.5,-342.5 476.5,-399.5 521.5,-399.5 521.5,-342.5 476.5,-342.5"/>
<text text-anchor="middle" x="499" y="-387.5" font-family="Helvetica,sans-Serif" font-size="10.00" fill="#000000">size_t</text>
<polyline fill="none" stroke="#bfbfbf" points="476.5,-380.5 521.5,-380.5 "/>
<text text-anchor="middle" x="499" y="-368.5" font-family="Helvetica,sans-Serif" font-size="10.00" fill="#000000"> </text>
<polyline fill="none" stroke="#bfbfbf" points="476.5,-361.5 521.5,-361.5 "/>
<text text-anchor="middle" x="499" y="-349.5" font-family="Helvetica,sans-Serif" font-size="10.00" fill="#000000"> </text>
</g>
<!-- Node3&#45;&gt;Node1 -->
<g id="edge2" class="edge">
<title>Node3&#45;&gt;Node1</title>
<path fill="none" stroke="#404040" d="M497.31,-342.3665C494.1639,-314.4866 485.2347,-272.6682 460,-247 442.2644,-228.9598 421.3143,-249.1363 406,-229 373.9578,-186.8687 377.3645,-123.5324 384.8473,-80.6802"/>
<polygon fill="none" stroke="#404040" points="384.8979,-80.4153 382.0963,-73.7706 387.1522,-68.6289 389.9538,-75.2735 384.8979,-80.4153"/>
<text text-anchor="middle" x="462" y="-170" font-family="Helvetica,sans-Serif" font-size="10.00" fill="#000000"> +nMaxDigitsFragment</text>
</g>
<!-- Node9 -->
<g id="node9" class="node">
<title>Node9</title>
<g id="a_node9"><a xlink:href="../../db/d3d/structGPUCA__NAMESPACE_1_1gpu_1_1CfFragment.html" target="_top" xlink:title="{GPUCA_NAMESPACE::gpu\l::CfFragment\n||+ GPUdDefault()\l+ GPUd()\l+ GPUdi()\l+ GPUdi()\l+ GPUdi()\l}">
<polygon fill="none" stroke="#000000" points="716,-116.5 716,-228.5 856,-228.5 856,-116.5 716,-116.5"/>
<text text-anchor="start" x="724" y="-216.5" font-family="Helvetica,sans-Serif" font-size="10.00" fill="#000000">GPUCA_NAMESPACE::gpu</text>
<text text-anchor="middle" x="786" y="-205.5" font-family="Helvetica,sans-Serif" font-size="10.00" fill="#000000">::CfFragment</text>
<polyline fill="none" stroke="#000000" points="716,-198.5 856,-198.5 "/>
<text text-anchor="middle" x="786" y="-186.5" font-family="Helvetica,sans-Serif" font-size="10.00" fill="#000000"> </text>
<polyline fill="none" stroke="#000000" points="716,-179.5 856,-179.5 "/>
<text text-anchor="start" x="724" y="-167.5" font-family="Helvetica,sans-Serif" font-size="10.00" fill="#000000">+ GPUdDefault()</text>
<text text-anchor="start" x="724" y="-156.5" font-family="Helvetica,sans-Serif" font-size="10.00" fill="#000000">+ GPUd()</text>
<text text-anchor="start" x="724" y="-145.5" font-family="Helvetica,sans-Serif" font-size="10.00" fill="#000000">+ GPUdi()</text>
<text text-anchor="start" x="724" y="-134.5" font-family="Helvetica,sans-Serif" font-size="10.00" fill="#000000">+ GPUdi()</text>
<text text-anchor="start" x="724" y="-123.5" font-family="Helvetica,sans-Serif" font-size="10.00" fill="#000000">+ GPUdi()</text>
</a>
</g>
</g>
<!-- Node3&#45;&gt;Node9 -->
<g id="edge12" class="edge">
<title>Node3&#45;&gt;Node9</title>
<path fill="none" stroke="#404040" d="M501.6827,-342.3573C506.0279,-313.4235 517.3824,-269.8323 547,-247 572.9572,-226.9895 657.5844,-239.2921 704.1561,-228.6957"/>
<polygon fill="none" stroke="#404040" points="704.4382,-228.6111 709.0349,-223.0549 715.9316,-225.1611 711.3349,-230.7172 704.4382,-228.6111"/>
<text text-anchor="middle" x="578" y="-277.5" font-family="Helvetica,sans-Serif" font-size="10.00" fill="#000000"> +digitsStart</text>
</g>
<!-- Node4 -->
<g id="node4" class="node">
<title>Node4</title>
<g id="a_node4"><a xlink:href="../../d5/d77/structGPUCA__NAMESPACE_1_1gpu_1_1GPUTPCCFChainContext_1_1PtrSave.html" target="_top" xlink:title="{GPUCA_NAMESPACE::gpu\l::GPUTPCCFChainContext\l::PtrSave\n||}">
<polygon fill="none" stroke="#000000" points="182,-133 182,-212 322,-212 322,-133 182,-133"/>
<text text-anchor="start" x="190" y="-200" font-family="Helvetica,sans-Serif" font-size="10.00" fill="#000000">GPUCA_NAMESPACE::gpu</text>
<text text-anchor="start" x="190" y="-189" font-family="Helvetica,sans-Serif" font-size="10.00" fill="#000000">::GPUTPCCFChainContext</text>
<text text-anchor="middle" x="252" y="-178" font-family="Helvetica,sans-Serif" font-size="10.00" fill="#000000">::PtrSave</text>
<polyline fill="none" stroke="#000000" points="182,-171 322,-171 "/>
<text text-anchor="middle" x="252" y="-159" font-family="Helvetica,sans-Serif" font-size="10.00" fill="#000000"> </text>
<polyline fill="none" stroke="#000000" points="182,-152 322,-152 "/>
<text text-anchor="middle" x="252" y="-140" font-family="Helvetica,sans-Serif" font-size="10.00" fill="#000000"> </text>
</a>
</g>
</g>
<!-- Node4&#45;&gt;Node1 -->
<g id="edge3" class="edge">
<title>Node4&#45;&gt;Node1</title>
<path fill="none" stroke="#404040" d="M261.5137,-132.893C266.8921,-117.1192 275.0161,-99.7294 287,-87 295.0987,-78.3975 304.9009,-71.0407 315.2669,-64.7975"/>
<polygon fill="none" stroke="#404040" points="315.3046,-64.7765 318.5897,-58.3572 325.7788,-58.9206 322.4936,-65.34 315.3046,-64.7765"/>
<text text-anchor="middle" x="311.5" y="-90" font-family="Helvetica,sans-Serif" font-size="10.00" fill="#000000"> +ptrSave</text>
</g>
<!-- Node5 -->
<g id="node5" class="node">
<title>Node5</title>
<g id="a_node5"><a xlink:href="../../da/d0d/structGPUCA__NAMESPACE_1_1gpu_1_1GPUTPCClusterFinder_1_1ZSOffset.html" target="_top" xlink:title="{GPUCA_NAMESPACE::gpu\l::GPUTPCClusterFinder\l::ZSOffset\n||}">
<polygon fill="none" stroke="#000000" points="90,-331.5 90,-410.5 230,-410.5 230,-331.5 90,-331.5"/>
<text text-anchor="start" x="98" y="-398.5" font-family="Helvetica,sans-Serif" font-size="10.00" fill="#000000">GPUCA_NAMESPACE::gpu</text>
<text text-anchor="start" x="98" y="-387.5" font-family="Helvetica,sans-Serif" font-size="10.00" fill="#000000">::GPUTPCClusterFinder</text>
<text text-anchor="middle" x="160" y="-376.5" font-family="Helvetica,sans-Serif" font-size="10.00" fill="#000000">::ZSOffset</text>
<polyline fill="none" stroke="#000000" points="90,-369.5 230,-369.5 "/>
<text text-anchor="middle" x="160" y="-357.5" font-family="Helvetica,sans-Serif" font-size="10.00" fill="#000000"> </text>
<polyline fill="none" stroke="#000000" points="90,-350.5 230,-350.5 "/>
<text text-anchor="middle" x="160" y="-338.5" font-family="Helvetica,sans-Serif" font-size="10.00" fill="#000000"> </text>
</a>
</g>
</g>
<!-- Node5&#45;&gt;Node4 -->
<g id="edge4" class="edge">
<title>Node5&#45;&gt;Node4</title>
<path fill="none" stroke="#404040" d="M154.6429,-331.3331C153.0007,-305.9709 154.2874,-273.0662 167,-247 171.6248,-237.5173 178.0562,-228.7316 185.3314,-220.7684"/>
<polygon fill="none" stroke="#404040" points="185.4235,-220.6751 186.791,-213.5948 193.8526,-212.1339 192.4851,-219.2142 185.4235,-220.6751"/>
<text text-anchor="middle" x="209.5" y="-283" font-family="Helvetica,sans-Serif" font-size="10.00" fill="#000000"> +zsOffsetDevice</text>
<text text-anchor="middle" x="209.5" y="-272" font-family="Helvetica,sans-Serif" font-size="10.00" fill="#000000">+zsOffsetHost</text>
</g>
<!-- Node6 -->
<g id="node6" class="node">
<title>Node6</title>
<polygon fill="none" stroke="#bfbfbf" points="277.5,-480.5 277.5,-537.5 338.5,-537.5 338.5,-480.5 277.5,-480.5"/>
<text text-anchor="middle" x="308" y="-525.5" font-family="Helvetica,sans-Serif" font-size="10.00" fill="#000000">unsigned</text>
<polyline fill="none" stroke="#bfbfbf" points="277.5,-518.5 338.5,-518.5 "/>
<text text-anchor="middle" x="308" y="-506.5" font-family="Helvetica,sans-Serif" font-size="10.00" fill="#000000"> </text>
<polyline fill="none" stroke="#bfbfbf" points="277.5,-499.5 338.5,-499.5 "/>
<text text-anchor="middle" x="308" y="-487.5" font-family="Helvetica,sans-Serif" font-size="10.00" fill="#000000"> </text>
</g>
<!-- Node6&#45;&gt;Node1 -->
<g id="edge8" class="edge">
<title>Node6&#45;&gt;Node1</title>
<path fill="none" stroke="#404040" d="M317.9643,-480.215C324.2222,-460.8836 331.8661,-434.7071 336,-411 348.549,-339.0332 337.5896,-319.444 347,-247 356.3307,-175.17 359.3201,-156.9834 378,-87 378.5964,-84.7657 379.2391,-82.4889 379.9143,-80.1973"/>
<polygon fill="none" stroke="#404040" points="379.9147,-80.1957 377.8877,-73.2754 383.4962,-68.7426 385.5232,-75.663 379.9147,-80.1957"/>
<text text-anchor="middle" x="401.5" y="-305" font-family="Helvetica,sans-Serif" font-size="10.00" fill="#000000"> +nPagesSector</text>
<text text-anchor="middle" x="401.5" y="-294" font-family="Helvetica,sans-Serif" font-size="10.00" fill="#000000">+nPagesFragmentMax</text>
<text text-anchor="middle" x="401.5" y="-283" font-family="Helvetica,sans-Serif" font-size="10.00" fill="#000000">+nFragments</text>
<text text-anchor="middle" x="401.5" y="-272" font-family="Helvetica,sans-Serif" font-size="10.00" fill="#000000">+tpcMaxTimeBin</text>
<text text-anchor="middle" x="401.5" y="-261" font-family="Helvetica,sans-Serif" font-size="10.00" fill="#000000">+nPagesSectorMax</text>
<text text-anchor="middle" x="401.5" y="-250" font-family="Helvetica,sans-Serif" font-size="10.00" fill="#000000">+nPagesTotal</text>
</g>
<!-- Node6&#45;&gt;Node4 -->
<g id="edge6" class="edge">
<title>Node6&#45;&gt;Node4</title>
<path fill="none" stroke="#404040" d="M298.4247,-480.1422C292.331,-460.78 284.7239,-434.5966 280,-411 267.2392,-347.2579 259.6356,-272.6841 255.641,-224.1211"/>
<polygon fill="none" stroke="#404040" points="255.6327,-224.0167 251.1684,-218.3537 254.6788,-212.0547 259.1431,-217.7177 255.6327,-224.0167"/>
<text text-anchor="middle" x="308" y="-368.5" font-family="Helvetica,sans-Serif" font-size="10.00" fill="#000000"> +zsDevice</text>
</g>
<!-- Node6&#45;&gt;Node5 -->
<g id="edge5" class="edge">
<title>Node6&#45;&gt;Node5</title>
<path fill="none" stroke="#404040" d="M277.0112,-502.7402C252.4449,-496.3196 218.7429,-484.0573 197,-462 186.1359,-450.9788 178.3248,-436.3372 172.7674,-422.0266"/>
<polygon fill="none" stroke="#404040" points="172.7634,-422.0152 166.9979,-417.6841 168.7783,-410.6962 174.5439,-415.0274 172.7634,-422.0152"/>
<text text-anchor="middle" x="224.5" y="-454" font-family="Helvetica,sans-Serif" font-size="10.00" fill="#000000"> +endpoint</text>
<text text-anchor="middle" x="224.5" y="-443" font-family="Helvetica,sans-Serif" font-size="10.00" fill="#000000">+num</text>
<text text-anchor="middle" x="224.5" y="-432" font-family="Helvetica,sans-Serif" font-size="10.00" fill="#000000">+offset</text>
</g>
<!-- Node6&#45;&gt;Node9 -->
<g id="edge15" class="edge">
<title>Node6&#45;&gt;Node9</title>
<path fill="none" stroke="#404040" d="M338.7685,-503.5041C414.2118,-489.5401 605.8812,-450.9621 656,-411 685.2008,-387.7168 728.033,-301.9446 756.4502,-239.9225"/>
<polygon fill="none" stroke="#404040" points="756.6141,-239.5619 755.4569,-232.4442 761.582,-228.6384 762.7392,-235.7561 756.6141,-239.5619"/>
<text text-anchor="middle" x="729.5" y="-368.5" font-family="Helvetica,sans-Serif" font-size="10.00" fill="#000000"> +index</text>
</g>
<!-- Node7 -->
<g id="node7" class="node">
<title>Node7</title>
<polygon fill="none" stroke="#bfbfbf" points="526.5,-144 526.5,-201 569.5,-201 569.5,-144 526.5,-144"/>
<text text-anchor="middle" x="548" y="-189" font-family="Helvetica,sans-Serif" font-size="10.00" fill="#000000">const</text>
<polyline fill="none" stroke="#bfbfbf" points="526.5,-182 569.5,-182 "/>
<text text-anchor="middle" x="548" y="-170" font-family="Helvetica,sans-Serif" font-size="10.00" fill="#000000"> </text>
<polyline fill="none" stroke="#bfbfbf" points="526.5,-163 569.5,-163 "/>
<text text-anchor="middle" x="548" y="-151" font-family="Helvetica,sans-Serif" font-size="10.00" fill="#000000"> </text>
</g>
<!-- Node7&#45;&gt;Node1 -->
<g id="edge7" class="edge">
<title>Node7&#45;&gt;Node1</title>
<path fill="none" stroke="#404040" d="M532.7879,-143.9163C526.9974,-134.4508 519.8758,-124.2398 512,-116 497.9166,-101.2658 480.8062,-87.5358 464.1008,-75.7022"/>
<polygon fill="none" stroke="#404040" points="463.6614,-75.3992 456.4512,-75.2862 453.7824,-68.5871 460.9926,-68.7001 463.6614,-75.3992"/>
<text text-anchor="middle" x="550" y="-90" font-family="Helvetica,sans-Serif" font-size="10.00" fill="#000000"> +ptrClusterNativeSave</text>
</g>
<!-- Node8 -->
<g id="node8" class="node">
<title>Node8</title>
<polygon fill="none" stroke="#bfbfbf" points="588,-138.5 588,-206.5 698,-206.5 698,-138.5 588,-138.5"/>
<text text-anchor="start" x="596" y="-194.5" font-family="Helvetica,sans-Serif" font-size="10.00" fill="#000000">pair&lt; unsigned int,</text>
<text text-anchor="middle" x="643" y="-183.5" font-family="Helvetica,sans-Serif" font-size="10.00" fill="#000000"> unsigned int &gt;</text>
<polyline fill="none" stroke="#bfbfbf" points="588,-176.5 698,-176.5 "/>
<text text-anchor="middle" x="643" y="-164.5" font-family="Helvetica,sans-Serif" font-size="10.00" fill="#000000"> </text>
<polyline fill="none" stroke="#bfbfbf" points="588,-157.5 698,-157.5 "/>
<text text-anchor="middle" x="643" y="-145.5" font-family="Helvetica,sans-Serif" font-size="10.00" fill="#000000"> </text>
</g>
<!-- Node8&#45;&gt;Node1 -->
<g id="edge9" class="edge">
<title>Node8&#45;&gt;Node1</title>
<path fill="none" stroke="#404040" d="M638.4032,-138.1688C634.3093,-120.5349 626.5805,-100.0667 612,-87 592.1029,-69.1687 530.5394,-55.2677 478.203,-46.262"/>
<polygon fill="none" stroke="#404040" points="478.0002,-46.2281 471.4221,-49.1827 466.1648,-44.247 472.7428,-41.2924 478.0002,-46.2281"/>
<text text-anchor="middle" x="646.5" y="-90" font-family="Helvetica,sans-Serif" font-size="10.00" fill="#000000"> +nextPos</text>
</g>
<!-- Node9&#45;&gt;Node1 -->
<g id="edge10" class="edge">
<title>Node9&#45;&gt;Node1</title>
<path fill="none" stroke="#404040" d="M724.1889,-116.3252C709.2665,-105.148 692.7621,-94.5467 676,-87 613.0553,-58.6609 535.5167,-45.6175 478.0077,-39.615"/>
<polygon fill="none" stroke="#404040" points="477.9946,-39.6138 471.6316,-43.0067 466.0524,-38.438 472.4154,-35.0451 477.9946,-39.6138"/>
<text text-anchor="middle" x="734.5" y="-90" font-family="Helvetica,sans-Serif" font-size="10.00" fill="#000000"> +fragmentFirst</text>
</g>
<!-- Node10 -->
<g id="node10" class="node">
<title>Node10</title>
<g id="a_node10"><a xlink:href="../../dc/d10/classshort.html" target="_top" xlink:title="{short\n||}">
<polygon fill="none" stroke="#000000" points="765.5,-342.5 765.5,-399.5 806.5,-399.5 806.5,-342.5 765.5,-342.5"/>
<text text-anchor="middle" x="786" y="-387.5" font-family="Helvetica,sans-Serif" font-size="10.00" fill="#000000">short</text>
<polyline fill="none" stroke="#000000" points="765.5,-380.5 806.5,-380.5 "/>
<text text-anchor="middle" x="786" y="-368.5" font-family="Helvetica,sans-Serif" font-size="10.00" fill="#000000"> </text>
<polyline fill="none" stroke="#000000" points="765.5,-361.5 806.5,-361.5 "/>
<text text-anchor="middle" x="786" y="-349.5" font-family="Helvetica,sans-Serif" font-size="10.00" fill="#000000"> </text>
</a>
</g>
</g>
<!-- Node10&#45;&gt;Node9 -->
<g id="edge11" class="edge">
<title>Node10&#45;&gt;Node9</title>
<path fill="none" stroke="#404040" d="M786,-342.1364C786,-315.8008 786,-275.8431 786,-241.3223"/>
<polygon fill="none" stroke="#404040" points="786.0001,-240.8854 782,-234.8854 786,-228.8854 790,-234.8853 786.0001,-240.8854"/>
<text text-anchor="middle" x="838.5" y="-283" font-family="Helvetica,sans-Serif" font-size="10.00" fill="#000000"> +length</text>
<text text-anchor="middle" x="838.5" y="-272" font-family="Helvetica,sans-Serif" font-size="10.00" fill="#000000">+maxSubSliceLength</text>
</g>
<!-- Node11 -->
<g id="node11" class="node">
<title>Node11</title>
<polygon fill="none" stroke="#bfbfbf" points="899.5,-342.5 899.5,-399.5 928.5,-399.5 928.5,-342.5 899.5,-342.5"/>
<text text-anchor="middle" x="914" y="-387.5" font-family="Helvetica,sans-Serif" font-size="10.00" fill="#000000">int</text>
<polyline fill="none" stroke="#bfbfbf" points="899.5,-380.5 928.5,-380.5 "/>
<text text-anchor="middle" x="914" y="-368.5" font-family="Helvetica,sans-Serif" font-size="10.00" fill="#000000"> </text>
<polyline fill="none" stroke="#bfbfbf" points="899.5,-361.5 928.5,-361.5 "/>
<text text-anchor="middle" x="914" y="-349.5" font-family="Helvetica,sans-Serif" font-size="10.00" fill="#000000"> </text>
</g>
<!-- Node11&#45;&gt;Node9 -->
<g id="edge13" class="edge">
<title>Node11&#45;&gt;Node9</title>
<path fill="none" stroke="#404040" d="M914.9405,-342.4463C914.5054,-315.7794 910.3748,-275.8648 892,-247 885.0177,-236.0316 875.7842,-226.2181 865.6721,-217.5972"/>
<polygon fill="none" stroke="#404040" points="865.5553,-217.504 858.3707,-216.886 856.1778,-210.0164 863.3624,-210.6343 865.5553,-217.504"/>
<text text-anchor="middle" x="957.5" y="-283" font-family="Helvetica,sans-Serif" font-size="10.00" fill="#000000"> +totalSliceLength</text>
<text text-anchor="middle" x="957.5" y="-272" font-family="Helvetica,sans-Serif" font-size="10.00" fill="#000000">+start</text>
</g>
<!-- Node12 -->
<g id="node12" class="node">
<title>Node12</title>
<polygon fill="none" stroke="#bfbfbf" points="609,-342.5 609,-399.5 647,-399.5 647,-342.5 609,-342.5"/>
<text text-anchor="middle" x="628" y="-387.5" font-family="Helvetica,sans-Serif" font-size="10.00" fill="#000000">bool</text>
<polyline fill="none" stroke="#bfbfbf" points="609,-380.5 647,-380.5 "/>
<text text-anchor="middle" x="628" y="-368.5" font-family="Helvetica,sans-Serif" font-size="10.00" fill="#000000"> </text>
<polyline fill="none" stroke="#bfbfbf" points="609,-361.5 647,-361.5 "/>
<text text-anchor="middle" x="628" y="-349.5" font-family="Helvetica,sans-Serif" font-size="10.00" fill="#000000"> </text>
</g>
<!-- Node12&#45;&gt;Node9 -->
<g id="edge14" class="edge">
<title>Node12&#45;&gt;Node9</title>
<path fill="none" stroke="#404040" d="M619.0337,-342.3238C612.3535,-314.8088 607.6494,-273.6178 629,-247 649.0871,-221.9574 670.0275,-239.366 704.1809,-229.1142"/>
<polygon fill="none" stroke="#404040" points="704.5301,-228.9817 708.7209,-223.1134 715.7496,-224.7248 711.5588,-230.5932 704.5301,-228.9817"/>
<text text-anchor="middle" x="661.5" y="-283" font-family="Helvetica,sans-Serif" font-size="10.00" fill="#000000"> +hasFuture</text>
<text text-anchor="middle" x="661.5" y="-272" font-family="Helvetica,sans-Serif" font-size="10.00" fill="#000000">+hasBacklog</text>
</g>
</g>
</svg>
