<?xml version="1.0" encoding="UTF-8" standalone="no"?>
<!DOCTYPE svg PUBLIC "-//W3C//DTD SVG 1.1//EN"
 "http://www.w3.org/Graphics/SVG/1.1/DTD/svg11.dtd">
<!-- Generated by graphviz version 2.40.1 (20161225.0304)
 -->
<!-- Title: o2::tof::WindowFiller Pages: 1 -->
<svg width="1468pt" height="1119pt"
 viewBox="0.00 0.00 1468.00 1119.00" xmlns="http://www.w3.org/2000/svg" xmlns:xlink="http://www.w3.org/1999/xlink">
<g id="graph0" class="graph" transform="scale(1 1) rotate(0) translate(4 1115)">
<title>o2::tof::WindowFiller</title>
<!-- Node3 -->
<g id="node1" class="node">
<title>Node3</title>
<polygon fill="#bfbfbf" stroke="#000000" points="573.5,-.5 573.5,-266.5 746.5,-266.5 746.5,-.5 573.5,-.5"/>
<text text-anchor="middle" x="660" y="-254.5" font-family="Helvetica,sans-Serif" font-size="10.00" fill="#000000">o2::tof::WindowFiller</text>
<polyline fill="none" stroke="#000000" points="573.5,-247.5 746.5,-247.5 "/>
<text text-anchor="middle" x="660" y="-235.5" font-family="Helvetica,sans-Serif" font-size="10.00" fill="#000000"> </text>
<polyline fill="none" stroke="#000000" points="573.5,-228.5 746.5,-228.5 "/>
<text text-anchor="start" x="581.5" y="-216.5" font-family="Helvetica,sans-Serif" font-size="10.00" fill="#000000">+ WindowFiller()</text>
<text text-anchor="start" x="581.5" y="-205.5" font-family="Helvetica,sans-Serif" font-size="10.00" fill="#000000">+ ~WindowFiller()</text>
<text text-anchor="start" x="581.5" y="-194.5" font-family="Helvetica,sans-Serif" font-size="10.00" fill="#000000">+ initObj()</text>
<text text-anchor="start" x="581.5" y="-183.5" font-family="Helvetica,sans-Serif" font-size="10.00" fill="#000000">+ reset()</text>
<text text-anchor="start" x="581.5" y="-172.5" font-family="Helvetica,sans-Serif" font-size="10.00" fill="#000000">+ getCurrentReadoutWindow()</text>
<text text-anchor="start" x="581.5" y="-161.5" font-family="Helvetica,sans-Serif" font-size="10.00" fill="#000000">+ setCurrentReadoutWindow()</text>
<text text-anchor="start" x="581.5" y="-150.5" font-family="Helvetica,sans-Serif" font-size="10.00" fill="#000000">+ setEventTime()</text>
<text text-anchor="start" x="581.5" y="-139.5" font-family="Helvetica,sans-Serif" font-size="10.00" fill="#000000">+ getDigitPerTimeFrame()</text>
<text text-anchor="start" x="581.5" y="-128.5" font-family="Helvetica,sans-Serif" font-size="10.00" fill="#000000">+ getReadoutWindowData()</text>
<text text-anchor="start" x="581.5" y="-117.5" font-family="Helvetica,sans-Serif" font-size="10.00" fill="#000000">+ fillOutputContainer()</text>
<text text-anchor="start" x="581.5" y="-106.5" font-family="Helvetica,sans-Serif" font-size="10.00" fill="#000000">+ flushOutputContainer()</text>
<text text-anchor="start" x="581.5" y="-95.5" font-family="Helvetica,sans-Serif" font-size="10.00" fill="#000000">+ setContinuous()</text>
<text text-anchor="start" x="581.5" y="-84.5" font-family="Helvetica,sans-Serif" font-size="10.00" fill="#000000">+ isContinuous()</text>
<text text-anchor="start" x="581.5" y="-73.5" font-family="Helvetica,sans-Serif" font-size="10.00" fill="#000000">+ resizeVectorFutureDigit()</text>
<text text-anchor="start" x="581.5" y="-62.5" font-family="Helvetica,sans-Serif" font-size="10.00" fill="#000000"># fillDigitsInStrip()</text>
<text text-anchor="start" x="581.5" y="-51.5" font-family="Helvetica,sans-Serif" font-size="10.00" fill="#000000"># checkIfReuseFutureDigits()</text>
<text text-anchor="start" x="581.5" y="-40.5" font-family="Helvetica,sans-Serif" font-size="10.00" fill="#000000"># checkIfReuseFutureDigitsRO()</text>
<text text-anchor="start" x="581.5" y="-29.5" font-family="Helvetica,sans-Serif" font-size="10.00" fill="#000000"># insertDigitInFuture()</text>
<text text-anchor="start" x="581.5" y="-18.5" font-family="Helvetica,sans-Serif" font-size="10.00" fill="#000000"># isMergable()</text>
<text text-anchor="start" x="581.5" y="-7.5" font-family="Helvetica,sans-Serif" font-size="10.00" fill="#000000"># ClassDefNV()</text>
</g>
<!-- Node4 -->
<g id="node2" class="node">
<title>Node4</title>
<polygon fill="none" stroke="#bfbfbf" points="0,-413.5 0,-470.5 138,-470.5 138,-413.5 0,-413.5"/>
<text text-anchor="middle" x="69" y="-458.5" font-family="Helvetica,sans-Serif" font-size="10.00" fill="#000000">vector&lt; o2::tof::Strip &gt; *</text>
<polyline fill="none" stroke="#bfbfbf" points="0,-451.5 138,-451.5 "/>
<text text-anchor="middle" x="69" y="-439.5" font-family="Helvetica,sans-Serif" font-size="10.00" fill="#000000"> </text>
<polyline fill="none" stroke="#bfbfbf" points="0,-432.5 138,-432.5 "/>
<text text-anchor="middle" x="69" y="-420.5" font-family="Helvetica,sans-Serif" font-size="10.00" fill="#000000"> </text>
</g>
<!-- Node4&#45;&gt;Node3 -->
<g id="edge1" class="edge">
<title>Node4&#45;&gt;Node3</title>
<path fill="none" stroke="#404040" d="M86.7316,-413.1402C101.3112,-390.7 123.3563,-359.532 147,-336 174.2828,-308.8462 182.8498,-302.7608 217,-285 329.4358,-226.5245 469.2396,-183.0806 561.368,-158.0491"/>
<polygon fill="none" stroke="#404040" points="561.614,-157.9829 566.3681,-152.5609 573.2016,-154.8639 568.4475,-160.286 561.614,-157.9829"/>
<text text-anchor="middle" x="258" y="-304.5" font-family="Helvetica,sans-Serif" font-size="10.00" fill="#000000"> #mStripsNext</text>
<text text-anchor="middle" x="258" y="-293.5" font-family="Helvetica,sans-Serif" font-size="10.00" fill="#000000">#mStripsCurrent</text>
</g>
<!-- Node5 -->
<g id="node3" class="node">
<title>Node5</title>
<polygon fill="none" stroke="#bfbfbf" points="156,-413.5 156,-470.5 286,-470.5 286,-413.5 156,-413.5"/>
<text text-anchor="middle" x="221" y="-458.5" font-family="Helvetica,sans-Serif" font-size="10.00" fill="#000000">vector&lt; o2::tof::Strip &gt;</text>
<polyline fill="none" stroke="#bfbfbf" points="156,-451.5 286,-451.5 "/>
<text text-anchor="middle" x="221" y="-439.5" font-family="Helvetica,sans-Serif" font-size="10.00" fill="#000000"> </text>
<polyline fill="none" stroke="#bfbfbf" points="156,-432.5 286,-432.5 "/>
<text text-anchor="middle" x="221" y="-420.5" font-family="Helvetica,sans-Serif" font-size="10.00" fill="#000000"> </text>
</g>
<!-- Node5&#45;&gt;Node3 -->
<g id="edge2" class="edge">
<title>Node5&#45;&gt;Node3</title>
<path fill="none" stroke="#404040" d="M235.306,-413.2038C253.7207,-378.6824 288.6885,-320.9909 333,-285 370.2037,-254.7823 479.9965,-206.4714 562.1689,-172.5466"/>
<polygon fill="none" stroke="#404040" points="562.2171,-172.5269 566.2449,-166.5455 573.3153,-167.9629 569.2875,-173.9443 562.2171,-172.5269"/>
<text text-anchor="middle" x="357.5" y="-299" font-family="Helvetica,sans-Serif" font-size="10.00" fill="#000000"> #mStrips</text>
</g>
<!-- Node6 -->
<g id="node4" class="node">
<title>Node6</title>
<polygon fill="none" stroke="#bfbfbf" points="304,-408 304,-476 440,-476 440,-408 304,-408"/>
<text text-anchor="start" x="312" y="-464" font-family="Helvetica,sans-Serif" font-size="10.00" fill="#000000">vector&lt; o2::tof::Readout</text>
<text text-anchor="middle" x="372" y="-453" font-family="Helvetica,sans-Serif" font-size="10.00" fill="#000000">WindowData &gt;</text>
<polyline fill="none" stroke="#bfbfbf" points="304,-446 440,-446 "/>
<text text-anchor="middle" x="372" y="-434" font-family="Helvetica,sans-Serif" font-size="10.00" fill="#000000"> </text>
<polyline fill="none" stroke="#bfbfbf" points="304,-427 440,-427 "/>
<text text-anchor="middle" x="372" y="-415" font-family="Helvetica,sans-Serif" font-size="10.00" fill="#000000"> </text>
</g>
<!-- Node6&#45;&gt;Node3 -->
<g id="edge3" class="edge">
<title>Node6&#45;&gt;Node3</title>
<path fill="none" stroke="#404040" d="M370.4245,-407.9562C370.5297,-373.8779 375.4385,-321.4107 401,-285 439.9232,-229.5564 506.1339,-191.348 561.866,-167.1712"/>
<polygon fill="none" stroke="#404040" points="562.1692,-167.0432 566.1395,-161.0235 573.2232,-162.3731 569.2529,-168.3928 562.1692,-167.0432"/>
<text text-anchor="middle" x="463" y="-299" font-family="Helvetica,sans-Serif" font-size="10.00" fill="#000000"> #mReadoutWindowData</text>
</g>
<!-- Node7 -->
<g id="node5" class="node">
<title>Node7</title>
<polygon fill="none" stroke="#bfbfbf" points="458.5,-413.5 458.5,-470.5 589.5,-470.5 589.5,-413.5 458.5,-413.5"/>
<text text-anchor="middle" x="524" y="-458.5" font-family="Helvetica,sans-Serif" font-size="10.00" fill="#000000">vector&lt; o2::tof::Digit &gt;</text>
<polyline fill="none" stroke="#bfbfbf" points="458.5,-451.5 589.5,-451.5 "/>
<text text-anchor="middle" x="524" y="-439.5" font-family="Helvetica,sans-Serif" font-size="10.00" fill="#000000"> </text>
<polyline fill="none" stroke="#bfbfbf" points="458.5,-432.5 589.5,-432.5 "/>
<text text-anchor="middle" x="524" y="-420.5" font-family="Helvetica,sans-Serif" font-size="10.00" fill="#000000"> </text>
</g>
<!-- Node7&#45;&gt;Node3 -->
<g id="edge4" class="edge">
<title>Node7&#45;&gt;Node3</title>
<path fill="none" stroke="#404040" d="M521.6867,-413.3427C520.1591,-380.9572 520.9541,-327.2542 538,-285 545.1668,-267.2345 555.1478,-249.9035 566.3439,-233.6866"/>
<polygon fill="none" stroke="#404040" points="566.4773,-233.5001 566.714,-226.2929 573.4578,-223.7393 573.2211,-230.9466 566.4773,-233.5001"/>
<text text-anchor="middle" x="597" y="-304.5" font-family="Helvetica,sans-Serif" font-size="10.00" fill="#000000"> #mFutureDigits</text>
<text text-anchor="middle" x="597" y="-293.5" font-family="Helvetica,sans-Serif" font-size="10.00" fill="#000000">#mDigitsPerTimeFrame</text>
</g>
<!-- Node8 -->
<g id="node6" class="node">
<title>Node8</title>
<polygon fill="none" stroke="#bfbfbf" points="645.5,-413.5 645.5,-470.5 674.5,-470.5 674.5,-413.5 645.5,-413.5"/>
<text text-anchor="middle" x="660" y="-458.5" font-family="Helvetica,sans-Serif" font-size="10.00" fill="#000000">int</text>
<polyline fill="none" stroke="#bfbfbf" points="645.5,-451.5 674.5,-451.5 "/>
<text text-anchor="middle" x="660" y="-439.5" font-family="Helvetica,sans-Serif" font-size="10.00" fill="#000000"> </text>
<polyline fill="none" stroke="#bfbfbf" points="645.5,-432.5 674.5,-432.5 "/>
<text text-anchor="middle" x="660" y="-420.5" font-family="Helvetica,sans-Serif" font-size="10.00" fill="#000000"> </text>
</g>
<!-- Node8&#45;&gt;Node3 -->
<g id="edge5" class="edge">
<title>Node8&#45;&gt;Node3</title>
<path fill="none" stroke="#404040" d="M660,-413.2541C660,-382.0271 660,-329.7552 660,-278.7918"/>
<polygon fill="none" stroke="#404040" points="660.0001,-278.5715 656,-272.5715 660,-266.5715 664,-272.5714 660.0001,-278.5715"/>
<text text-anchor="middle" x="729" y="-299" font-family="Helvetica,sans-Serif" font-size="10.00" fill="#000000"> #mIcurrentReadoutWindow</text>
</g>
<!-- Node9 -->
<g id="node7" class="node">
<title>Node9</title>
<polygon fill="none" stroke="#bfbfbf" points="802,-413.5 802,-470.5 840,-470.5 840,-413.5 802,-413.5"/>
<text text-anchor="middle" x="821" y="-458.5" font-family="Helvetica,sans-Serif" font-size="10.00" fill="#000000">bool</text>
<polyline fill="none" stroke="#bfbfbf" points="802,-451.5 840,-451.5 "/>
<text text-anchor="middle" x="821" y="-439.5" font-family="Helvetica,sans-Serif" font-size="10.00" fill="#000000"> </text>
<polyline fill="none" stroke="#bfbfbf" points="802,-432.5 840,-432.5 "/>
<text text-anchor="middle" x="821" y="-420.5" font-family="Helvetica,sans-Serif" font-size="10.00" fill="#000000"> </text>
</g>
<!-- Node9&#45;&gt;Node3 -->
<g id="edge6" class="edge">
<title>Node9&#45;&gt;Node3</title>
<path fill="none" stroke="#404040" d="M821.9828,-413.3398C821.9982,-380.7159 818.6114,-326.57 799,-285 787.9058,-261.4838 771.8709,-239.0841 754.6053,-219.0695"/>
<polygon fill="none" stroke="#404040" points="754.5633,-219.0222 747.5892,-217.1888 746.5991,-210.046 753.5733,-211.8794 754.5633,-219.0222"/>
<text text-anchor="middle" x="864" y="-304.5" font-family="Helvetica,sans-Serif" font-size="10.00" fill="#000000"> #mFutureToBeSorted</text>
<text text-anchor="middle" x="864" y="-293.5" font-family="Helvetica,sans-Serif" font-size="10.00" fill="#000000">#mContinuous</text>
</g>
<!-- Node10 -->
<g id="node8" class="node">
<title>Node10</title>
<polygon fill="none" stroke="#bfbfbf" points="928,-413.5 928,-470.5 972,-470.5 972,-413.5 928,-413.5"/>
<text text-anchor="middle" x="950" y="-458.5" font-family="Helvetica,sans-Serif" font-size="10.00" fill="#000000">static</text>
<polyline fill="none" stroke="#bfbfbf" points="928,-451.5 972,-451.5 "/>
<text text-anchor="middle" x="950" y="-439.5" font-family="Helvetica,sans-Serif" font-size="10.00" fill="#000000"> </text>
<polyline fill="none" stroke="#bfbfbf" points="928,-432.5 972,-432.5 "/>
<text text-anchor="middle" x="950" y="-420.5" font-family="Helvetica,sans-Serif" font-size="10.00" fill="#000000"> </text>
</g>
<!-- Node10&#45;&gt;Node3 -->
<g id="edge7" class="edge">
<title>Node10&#45;&gt;Node3</title>
<path fill="none" stroke="#404040" d="M951.5727,-413.4939C951.9994,-379.7819 948.0592,-323.4072 921,-285 881.536,-228.9856 814.2772,-190.6639 757.9216,-166.5765"/>
<polygon fill="none" stroke="#404040" points="757.8851,-166.5614 750.8084,-167.9472 746.8073,-161.9478 753.8841,-160.562 757.8851,-166.5614"/>
<text text-anchor="middle" x="979.5" y="-299" font-family="Helvetica,sans-Serif" font-size="10.00" fill="#000000"> #MAXWINDOWS</text>
</g>
<!-- Node11 -->
<g id="node9" class="node">
<title>Node11</title>
<polygon fill="none" stroke="#bfbfbf" points="1039,-413.5 1039,-470.5 1077,-470.5 1077,-413.5 1039,-413.5"/>
<text text-anchor="middle" x="1058" y="-458.5" font-family="Helvetica,sans-Serif" font-size="10.00" fill="#000000">Int_t</text>
<polyline fill="none" stroke="#bfbfbf" points="1039,-451.5 1077,-451.5 "/>
<text text-anchor="middle" x="1058" y="-439.5" font-family="Helvetica,sans-Serif" font-size="10.00" fill="#000000"> </text>
<polyline fill="none" stroke="#bfbfbf" points="1039,-432.5 1077,-432.5 "/>
<text text-anchor="middle" x="1058" y="-420.5" font-family="Helvetica,sans-Serif" font-size="10.00" fill="#000000"> </text>
</g>
<!-- Node11&#45;&gt;Node3 -->
<g id="edge8" class="edge">
<title>Node11&#45;&gt;Node3</title>
<path fill="none" stroke="#404040" d="M1059.775,-413.4037C1060.3532,-379.0813 1056.1791,-321.5881 1026,-285 959.3036,-204.1396 842.2874,-165.8612 758.5128,-148.123"/>
<polygon fill="none" stroke="#404040" points="758.42,-148.1042 751.741,-150.8228 746.6626,-145.7032 753.3416,-142.9846 758.42,-148.1042"/>
<text text-anchor="middle" x="1110.5" y="-310" font-family="Helvetica,sans-Serif" font-size="10.00" fill="#000000"> #mFirstBunch</text>
<text text-anchor="middle" x="1110.5" y="-299" font-family="Helvetica,sans-Serif" font-size="10.00" fill="#000000">#mReadoutWindowCurrent</text>
<text text-anchor="middle" x="1110.5" y="-288" font-family="Helvetica,sans-Serif" font-size="10.00" fill="#000000">#mFirstOrbit</text>
</g>
<!-- Node12 -->
<g id="node10" class="node">
<title>Node12</title>
<g id="a_node10"><a xlink:href="../../d8/d98/structo2_1_1InteractionTimeRecord.html" target="_top" xlink:title="{o2::InteractionTimeRecord\n||+ InteractionTimeRecord()\l+ InteractionTimeRecord()\l+ InteractionTimeRecord()\l+ setFromNS()\l+ clear()\l+ getTimeOffsetWrtBC()\l+ getTimeNS()\l+ operator==()\l+ operator!=()\l+ operator\&gt;()\l+ operator\&gt;=()\l+ operator\&lt;()\l+ operator\&lt;=()\l+ print()\l+ ClassDefNV()\l}">
<polygon fill="none" stroke="#000000" points="1141,-336.5 1141,-547.5 1287,-547.5 1287,-336.5 1141,-336.5"/>
<text text-anchor="middle" x="1214" y="-535.5" font-family="Helvetica,sans-Serif" font-size="10.00" fill="#000000">o2::InteractionTimeRecord</text>
<polyline fill="none" stroke="#000000" points="1141,-528.5 1287,-528.5 "/>
<text text-anchor="middle" x="1214" y="-516.5" font-family="Helvetica,sans-Serif" font-size="10.00" fill="#000000"> </text>
<polyline fill="none" stroke="#000000" points="1141,-509.5 1287,-509.5 "/>
<text text-anchor="start" x="1149" y="-497.5" font-family="Helvetica,sans-Serif" font-size="10.00" fill="#000000">+ InteractionTimeRecord()</text>
<text text-anchor="start" x="1149" y="-486.5" font-family="Helvetica,sans-Serif" font-size="10.00" fill="#000000">+ InteractionTimeRecord()</text>
<text text-anchor="start" x="1149" y="-475.5" font-family="Helvetica,sans-Serif" font-size="10.00" fill="#000000">+ InteractionTimeRecord()</text>
<text text-anchor="start" x="1149" y="-464.5" font-family="Helvetica,sans-Serif" font-size="10.00" fill="#000000">+ setFromNS()</text>
<text text-anchor="start" x="1149" y="-453.5" font-family="Helvetica,sans-Serif" font-size="10.00" fill="#000000">+ clear()</text>
<text text-anchor="start" x="1149" y="-442.5" font-family="Helvetica,sans-Serif" font-size="10.00" fill="#000000">+ getTimeOffsetWrtBC()</text>
<text text-anchor="start" x="1149" y="-431.5" font-family="Helvetica,sans-Serif" font-size="10.00" fill="#000000">+ getTimeNS()</text>
<text text-anchor="start" x="1149" y="-420.5" font-family="Helvetica,sans-Serif" font-size="10.00" fill="#000000">+ operator==()</text>
<text text-anchor="start" x="1149" y="-409.5" font-family="Helvetica,sans-Serif" font-size="10.00" fill="#000000">+ operator!=()</text>
<text text-anchor="start" x="1149" y="-398.5" font-family="Helvetica,sans-Serif" font-size="10.00" fill="#000000">+ operator&gt;()</text>
<text text-anchor="start" x="1149" y="-387.5" font-family="Helvetica,sans-Serif" font-size="10.00" fill="#000000">+ operator&gt;=()</text>
<text text-anchor="start" x="1149" y="-376.5" font-family="Helvetica,sans-Serif" font-size="10.00" fill="#000000">+ operator&lt;()</text>
<text text-anchor="start" x="1149" y="-365.5" font-family="Helvetica,sans-Serif" font-size="10.00" fill="#000000">+ operator&lt;=()</text>
<text text-anchor="start" x="1149" y="-354.5" font-family="Helvetica,sans-Serif" font-size="10.00" fill="#000000">+ print()</text>
<text text-anchor="start" x="1149" y="-343.5" font-family="Helvetica,sans-Serif" font-size="10.00" fill="#000000">+ ClassDefNV()</text>
</a>
</g>
</g>
<!-- Node12&#45;&gt;Node3 -->
<g id="edge9" class="edge">
<title>Node12&#45;&gt;Node3</title>
<path fill="none" stroke="#404040" d="M1208.0428,-336.441C1202.727,-317.5166 1194.254,-299.2988 1181,-285 1123.8516,-223.3464 893.1276,-174.0186 758.649,-149.7998"/>
<polygon fill="none" stroke="#404040" points="758.5568,-149.7834 751.9476,-152.6675 746.7433,-147.6759 753.3526,-144.7918 758.5568,-149.7834"/>
<text text-anchor="middle" x="1239" y="-299" font-family="Helvetica,sans-Serif" font-size="10.00" fill="#000000"> #mEventTime</text>
</g>
<!-- Node13 -->
<g id="node11" class="node">
<title>Node13</title>
<g id="a_node11"><a xlink:href="../../d1/d21/structo2_1_1InteractionRecord.html" target="_top" xlink:title="{o2::InteractionRecord\n||+ InteractionRecord()\l+ InteractionRecord()\l+ InteractionRecord()\l+ InteractionRecord()\l+ clear()\l+ isDummy()\l+ setFromNS()\l+ bc2ns()\l+ operator==()\l+ operator!=()\l+ differenceInBC()\l+ toLong()\l+ setFromLong()\l+ operator\&gt;()\l+ operator\&gt;=()\l+ operator\&lt;()\l+ operator\&lt;=()\l+ operator&#45;&#45;()\l+ operator&#45;&#45;()\l+ operator++()\l+ operator++()\l+ operator+=()\l+ operator&#45;=()\l+ operator+=()\l+ operator&#45;=()\l+ operator+()\l+ operator&#45;()\l+ operator+()\l+ operator&#45;()\l+ print()\l+ ClassDefNV()\l+ bc2ns()\l+ ns2bc()\l}">
<polygon fill="none" stroke="#000000" points="1258.5,-585.5 1258.5,-994.5 1379.5,-994.5 1379.5,-585.5 1258.5,-585.5"/>
<text text-anchor="middle" x="1319" y="-982.5" font-family="Helvetica,sans-Serif" font-size="10.00" fill="#000000">o2::InteractionRecord</text>
<polyline fill="none" stroke="#000000" points="1258.5,-975.5 1379.5,-975.5 "/>
<text text-anchor="middle" x="1319" y="-963.5" font-family="Helvetica,sans-Serif" font-size="10.00" fill="#000000"> </text>
<polyline fill="none" stroke="#000000" points="1258.5,-956.5 1379.5,-956.5 "/>
<text text-anchor="start" x="1266.5" y="-944.5" font-family="Helvetica,sans-Serif" font-size="10.00" fill="#000000">+ InteractionRecord()</text>
<text text-anchor="start" x="1266.5" y="-933.5" font-family="Helvetica,sans-Serif" font-size="10.00" fill="#000000">+ InteractionRecord()</text>
<text text-anchor="start" x="1266.5" y="-922.5" font-family="Helvetica,sans-Serif" font-size="10.00" fill="#000000">+ InteractionRecord()</text>
<text text-anchor="start" x="1266.5" y="-911.5" font-family="Helvetica,sans-Serif" font-size="10.00" fill="#000000">+ InteractionRecord()</text>
<text text-anchor="start" x="1266.5" y="-900.5" font-family="Helvetica,sans-Serif" font-size="10.00" fill="#000000">+ clear()</text>
<text text-anchor="start" x="1266.5" y="-889.5" font-family="Helvetica,sans-Serif" font-size="10.00" fill="#000000">+ isDummy()</text>
<text text-anchor="start" x="1266.5" y="-878.5" font-family="Helvetica,sans-Serif" font-size="10.00" fill="#000000">+ setFromNS()</text>
<text text-anchor="start" x="1266.5" y="-867.5" font-family="Helvetica,sans-Serif" font-size="10.00" fill="#000000">+ bc2ns()</text>
<text text-anchor="start" x="1266.5" y="-856.5" font-family="Helvetica,sans-Serif" font-size="10.00" fill="#000000">+ operator==()</text>
<text text-anchor="start" x="1266.5" y="-845.5" font-family="Helvetica,sans-Serif" font-size="10.00" fill="#000000">+ operator!=()</text>
<text text-anchor="start" x="1266.5" y="-834.5" font-family="Helvetica,sans-Serif" font-size="10.00" fill="#000000">+ differenceInBC()</text>
<text text-anchor="start" x="1266.5" y="-823.5" font-family="Helvetica,sans-Serif" font-size="10.00" fill="#000000">+ toLong()</text>
<text text-anchor="start" x="1266.5" y="-812.5" font-family="Helvetica,sans-Serif" font-size="10.00" fill="#000000">+ setFromLong()</text>
<text text-anchor="start" x="1266.5" y="-801.5" font-family="Helvetica,sans-Serif" font-size="10.00" fill="#000000">+ operator&gt;()</text>
<text text-anchor="start" x="1266.5" y="-790.5" font-family="Helvetica,sans-Serif" font-size="10.00" fill="#000000">+ operator&gt;=()</text>
<text text-anchor="start" x="1266.5" y="-779.5" font-family="Helvetica,sans-Serif" font-size="10.00" fill="#000000">+ operator&lt;()</text>
<text text-anchor="start" x="1266.5" y="-768.5" font-family="Helvetica,sans-Serif" font-size="10.00" fill="#000000">+ operator&lt;=()</text>
<text text-anchor="start" x="1266.5" y="-757.5" font-family="Helvetica,sans-Serif" font-size="10.00" fill="#000000">+ operator&#45;&#45;()</text>
<text text-anchor="start" x="1266.5" y="-746.5" font-family="Helvetica,sans-Serif" font-size="10.00" fill="#000000">+ operator&#45;&#45;()</text>
<text text-anchor="start" x="1266.5" y="-735.5" font-family="Helvetica,sans-Serif" font-size="10.00" fill="#000000">+ operator++()</text>
<text text-anchor="start" x="1266.5" y="-724.5" font-family="Helvetica,sans-Serif" font-size="10.00" fill="#000000">+ operator++()</text>
<text text-anchor="start" x="1266.5" y="-713.5" font-family="Helvetica,sans-Serif" font-size="10.00" fill="#000000">+ operator+=()</text>
<text text-anchor="start" x="1266.5" y="-702.5" font-family="Helvetica,sans-Serif" font-size="10.00" fill="#000000">+ operator&#45;=()</text>
<text text-anchor="start" x="1266.5" y="-691.5" font-family="Helvetica,sans-Serif" font-size="10.00" fill="#000000">+ operator+=()</text>
<text text-anchor="start" x="1266.5" y="-680.5" font-family="Helvetica,sans-Serif" font-size="10.00" fill="#000000">+ operator&#45;=()</text>
<text text-anchor="start" x="1266.5" y="-669.5" font-family="Helvetica,sans-Serif" font-size="10.00" fill="#000000">+ operator+()</text>
<text text-anchor="start" x="1266.5" y="-658.5" font-family="Helvetica,sans-Serif" font-size="10.00" fill="#000000">+ operator&#45;()</text>
<text text-anchor="start" x="1266.5" y="-647.5" font-family="Helvetica,sans-Serif" font-size="10.00" fill="#000000">+ operator+()</text>
<text text-anchor="start" x="1266.5" y="-636.5" font-family="Helvetica,sans-Serif" font-size="10.00" fill="#000000">+ operator&#45;()</text>
<text text-anchor="start" x="1266.5" y="-625.5" font-family="Helvetica,sans-Serif" font-size="10.00" fill="#000000">+ print()</text>
<text text-anchor="start" x="1266.5" y="-614.5" font-family="Helvetica,sans-Serif" font-size="10.00" fill="#000000">+ ClassDefNV()</text>
<text text-anchor="start" x="1266.5" y="-603.5" font-family="Helvetica,sans-Serif" font-size="10.00" fill="#000000">+ bc2ns()</text>
<text text-anchor="start" x="1266.5" y="-592.5" font-family="Helvetica,sans-Serif" font-size="10.00" fill="#000000">+ ns2bc()</text>
</a>
</g>
</g>
<!-- Node13&#45;&gt;Node12 -->
<g id="edge10" class="edge">
<title>Node13&#45;&gt;Node12</title>
<path fill="none" stroke="#191970" d="M1255.5571,-579.7322C1252.2773,-568.862 1249.0571,-558.1894 1245.9509,-547.8945"/>
<polygon fill="none" stroke="#191970" points="1252.2139,-580.7684 1258.4533,-589.3311 1258.9155,-578.7463 1252.2139,-580.7684"/>
</g>
<!-- Node14 -->
<g id="node12" class="node">
<title>Node14</title>
<polygon fill="none" stroke="#bfbfbf" points="1170,-1053.5 1170,-1110.5 1220,-1110.5 1220,-1053.5 1170,-1053.5"/>
<text text-anchor="middle" x="1195" y="-1098.5" font-family="Helvetica,sans-Serif" font-size="10.00" fill="#000000">double</text>
<polyline fill="none" stroke="#bfbfbf" points="1170,-1091.5 1220,-1091.5 "/>
<text text-anchor="middle" x="1195" y="-1079.5" font-family="Helvetica,sans-Serif" font-size="10.00" fill="#000000"> </text>
<polyline fill="none" stroke="#bfbfbf" points="1170,-1072.5 1220,-1072.5 "/>
<text text-anchor="middle" x="1195" y="-1060.5" font-family="Helvetica,sans-Serif" font-size="10.00" fill="#000000"> </text>
</g>
<!-- Node14&#45;&gt;Node12 -->
<g id="edge14" class="edge">
<title>Node14&#45;&gt;Node12</title>
<path fill="none" stroke="#404040" d="M1188.3389,-1053.1823C1184.7852,-1036.3263 1180.7852,-1014.5763 1179,-995 1162.4519,-813.5307 1157.1825,-765.9114 1179,-585 1179.9984,-576.7213 1181.3108,-568.2302 1182.8409,-559.7153"/>
<polygon fill="none" stroke="#404040" points="1182.888,-559.4678 1180.0846,-552.8239 1185.1391,-547.6808 1187.9426,-554.3246 1182.888,-559.4678"/>
<text text-anchor="middle" x="1214" y="-787.5" font-family="Helvetica,sans-Serif" font-size="10.00" fill="#000000"> +timeInBCNS</text>
</g>
<!-- Node14&#45;&gt;Node13 -->
<g id="edge11" class="edge">
<title>Node14&#45;&gt;Node13</title>
<path fill="none" stroke="#404040" d="M1211.9306,-1053.1228C1223.9252,-1032.4459 1238.7762,-1006.3355 1244,-995 1247.2652,-987.9146 1250.4903,-980.6432 1253.6605,-973.2614"/>
<polygon fill="none" stroke="#404040" points="1253.7555,-973.0366 1252.4073,-965.9526 1258.4278,-961.9836 1259.776,-969.0675 1253.7555,-973.0366"/>
<text text-anchor="middle" x="1273" y="-1021.5" font-family="Helvetica,sans-Serif" font-size="10.00" fill="#000000"> +DummyTime</text>
</g>
<!-- Node15 -->
<g id="node13" class="node">
<title>Node15</title>
<polygon fill="none" stroke="#bfbfbf" points="1286,-1053.5 1286,-1110.5 1342,-1110.5 1342,-1053.5 1286,-1053.5"/>
<text text-anchor="middle" x="1314" y="-1098.5" font-family="Helvetica,sans-Serif" font-size="10.00" fill="#000000">uint16_t</text>
<polyline fill="none" stroke="#bfbfbf" points="1286,-1091.5 1342,-1091.5 "/>
<text text-anchor="middle" x="1314" y="-1079.5" font-family="Helvetica,sans-Serif" font-size="10.00" fill="#000000"> </text>
<polyline fill="none" stroke="#bfbfbf" points="1286,-1072.5 1342,-1072.5 "/>
<text text-anchor="middle" x="1314" y="-1060.5" font-family="Helvetica,sans-Serif" font-size="10.00" fill="#000000"> </text>
</g>
<!-- Node15&#45;&gt;Node13 -->
<g id="edge12" class="edge">
<title>Node15&#45;&gt;Node13</title>
<path fill="none" stroke="#404040" d="M1314.3915,-1053.4646C1314.5678,-1041.0347 1314.7844,-1026.2965 1315,-1013 1315.0334,-1010.9371 1315.0672,-1008.8636 1315.1013,-1006.7806"/>
<polygon fill="none" stroke="#404040" points="1315.1017,-1006.7558 1311.2013,-1000.6905 1315.2999,-994.7574 1319.2002,-1000.8227 1315.1017,-1006.7558"/>
<text text-anchor="middle" x="1347" y="-1027" font-family="Helvetica,sans-Serif" font-size="10.00" fill="#000000"> +DummyBC</text>
<text text-anchor="middle" x="1347" y="-1016" font-family="Helvetica,sans-Serif" font-size="10.00" fill="#000000">+bc</text>
</g>
<!-- Node16 -->
<g id="node14" class="node">
<title>Node16</title>
<g id="a_node14"><a xlink:href="../../d3/d87/classuint32__t.html" target="_top" xlink:title="{uint32_t\n||}">
<polygon fill="none" stroke="#000000" points="1373,-1053.5 1373,-1110.5 1429,-1110.5 1429,-1053.5 1373,-1053.5"/>
<text text-anchor="middle" x="1401" y="-1098.5" font-family="Helvetica,sans-Serif" font-size="10.00" fill="#000000">uint32_t</text>
<polyline fill="none" stroke="#000000" points="1373,-1091.5 1429,-1091.5 "/>
<text text-anchor="middle" x="1401" y="-1079.5" font-family="Helvetica,sans-Serif" font-size="10.00" fill="#000000"> </text>
<polyline fill="none" stroke="#000000" points="1373,-1072.5 1429,-1072.5 "/>
<text text-anchor="middle" x="1401" y="-1060.5" font-family="Helvetica,sans-Serif" font-size="10.00" fill="#000000"> </text>
</a>
</g>
</g>
<!-- Node16&#45;&gt;Node13 -->
<g id="edge13" class="edge">
<title>Node16&#45;&gt;Node13</title>
<path fill="none" stroke="#404040" d="M1392.9882,-1053.4702C1389.4006,-1040.6948 1384.8238,-1024.3968 1379.7101,-1006.1873"/>
<polygon fill="none" stroke="#404040" points="1379.7053,-1006.1699 1374.2321,-1001.4748 1376.4609,-994.6168 1381.9341,-999.3118 1379.7053,-1006.1699"/>
<text text-anchor="middle" x="1424" y="-1027" font-family="Helvetica,sans-Serif" font-size="10.00" fill="#000000"> +orbit</text>
<text text-anchor="middle" x="1424" y="-1016" font-family="Helvetica,sans-Serif" font-size="10.00" fill="#000000">+DummyOrbit</text>
</g>
</g>
</svg>
