<?xml version="1.0" encoding="UTF-8" standalone="no"?>
<!DOCTYPE svg PUBLIC "-//W3C//DTD SVG 1.1//EN"
 "http://www.w3.org/Graphics/SVG/1.1/DTD/svg11.dtd">
<!-- Generated by graphviz version 2.40.1 (20161225.0304)
 -->
<!-- Title: o2::framework::ServiceSpec Pages: 1 -->
<svg width="832pt" height="204pt"
 viewBox="0.00 0.00 832.00 204.00" xmlns="http://www.w3.org/2000/svg" xmlns:xlink="http://www.w3.org/1999/xlink">
<g id="graph0" class="graph" transform="scale(1 1) rotate(0) translate(4 200)">
<title>o2::framework::ServiceSpec</title>
<!-- Node1 -->
<g id="node1" class="node">
<title>Node1</title>
<polygon fill="#bfbfbf" stroke="#000000" points="405,-.5 405,-57.5 558,-57.5 558,-.5 405,-.5"/>
<text text-anchor="middle" x="481.5" y="-45.5" font-family="Helvetica,sans-Serif" font-size="10.00" fill="#000000">o2::framework::ServiceSpec</text>
<polyline fill="none" stroke="#000000" points="405,-38.5 558,-38.5 "/>
<text text-anchor="middle" x="481.5" y="-26.5" font-family="Helvetica,sans-Serif" font-size="10.00" fill="#000000"> </text>
<polyline fill="none" stroke="#000000" points="405,-19.5 558,-19.5 "/>
<text text-anchor="middle" x="481.5" y="-7.5" font-family="Helvetica,sans-Serif" font-size="10.00" fill="#000000"> </text>
</g>
<!-- Node2 -->
<g id="node2" class="node">
<title>Node2</title>
<polygon fill="none" stroke="#bfbfbf" points="0,-122 0,-190 155,-190 155,-122 0,-122"/>
<text text-anchor="start" x="8" y="-178" font-family="Helvetica,sans-Serif" font-size="10.00" fill="#000000">function&lt; void *(InitContext</text>
<text text-anchor="middle" x="77.5" y="-167" font-family="Helvetica,sans-Serif" font-size="10.00" fill="#000000"> &amp;, void *)&gt;</text>
<polyline fill="none" stroke="#bfbfbf" points="0,-160 155,-160 "/>
<text text-anchor="middle" x="77.5" y="-148" font-family="Helvetica,sans-Serif" font-size="10.00" fill="#000000"> </text>
<polyline fill="none" stroke="#bfbfbf" points="0,-141 155,-141 "/>
<text text-anchor="middle" x="77.5" y="-129" font-family="Helvetica,sans-Serif" font-size="10.00" fill="#000000"> </text>
</g>
<!-- Node2&#45;&gt;Node1 -->
<g id="edge1" class="edge">
<title>Node2&#45;&gt;Node1</title>
<path fill="none" stroke="#404040" d="M150.0844,-121.8571C154.6113,-119.8465 159.1101,-117.8795 163.5,-116 208.2641,-96.834 218.8947,-90.1104 265.5,-76 306.7764,-63.503 353.436,-52.9211 392.7993,-44.981"/>
<polygon fill="none" stroke="#404040" points="392.9974,-44.9417 398.1026,-39.8488 404.7672,-42.6024 399.6621,-47.6953 392.9974,-44.9417"/>
<text text-anchor="middle" x="294" y="-84.5" font-family="Helvetica,sans-Serif" font-size="10.00" fill="#000000"> +configure</text>
</g>
<!-- Node3 -->
<g id="node3" class="node">
<title>Node3</title>
<polygon fill="none" stroke="#bfbfbf" points="173,-122 173,-190 318,-190 318,-122 173,-122"/>
<text text-anchor="start" x="181" y="-178" font-family="Helvetica,sans-Serif" font-size="10.00" fill="#000000">function&lt; void(Processing</text>
<text text-anchor="middle" x="245.5" y="-167" font-family="Helvetica,sans-Serif" font-size="10.00" fill="#000000">Context &amp;, void *)&gt;</text>
<polyline fill="none" stroke="#bfbfbf" points="173,-160 318,-160 "/>
<text text-anchor="middle" x="245.5" y="-148" font-family="Helvetica,sans-Serif" font-size="10.00" fill="#000000"> </text>
<polyline fill="none" stroke="#bfbfbf" points="173,-141 318,-141 "/>
<text text-anchor="middle" x="245.5" y="-129" font-family="Helvetica,sans-Serif" font-size="10.00" fill="#000000"> </text>
</g>
<!-- Node3&#45;&gt;Node1 -->
<g id="edge2" class="edge">
<title>Node3&#45;&gt;Node1</title>
<path fill="none" stroke="#404040" d="M290.85,-121.8602C312.2147,-106.676 338.461,-89.2725 363.5,-76 373.0864,-70.9185 383.3469,-66.0541 393.6681,-61.5111"/>
<polygon fill="none" stroke="#404040" points="393.8331,-61.4404 397.7718,-55.4 404.8625,-56.7125 400.9238,-62.7529 393.8331,-61.4404"/>
<text text-anchor="middle" x="404.5" y="-90" font-family="Helvetica,sans-Serif" font-size="10.00" fill="#000000"> +preProcessing</text>
<text text-anchor="middle" x="404.5" y="-79" font-family="Helvetica,sans-Serif" font-size="10.00" fill="#000000">+postProcessing</text>
</g>
<!-- Node4 -->
<g id="node4" class="node">
<title>Node4</title>
<polygon fill="none" stroke="#bfbfbf" points="336.5,-116.5 336.5,-195.5 508.5,-195.5 508.5,-116.5 336.5,-116.5"/>
<text text-anchor="start" x="344.5" y="-183.5" font-family="Helvetica,sans-Serif" font-size="10.00" fill="#000000">function&lt; ServiceHandle</text>
<text text-anchor="start" x="344.5" y="-172.5" font-family="Helvetica,sans-Serif" font-size="10.00" fill="#000000">(ServiceRegistry &amp;, DeviceState</text>
<text text-anchor="middle" x="422.5" y="-161.5" font-family="Helvetica,sans-Serif" font-size="10.00" fill="#000000"> &amp;, fair::mq::ProgOptions &amp;)&gt;</text>
<polyline fill="none" stroke="#bfbfbf" points="336.5,-154.5 508.5,-154.5 "/>
<text text-anchor="middle" x="422.5" y="-142.5" font-family="Helvetica,sans-Serif" font-size="10.00" fill="#000000"> </text>
<polyline fill="none" stroke="#bfbfbf" points="336.5,-135.5 508.5,-135.5 "/>
<text text-anchor="middle" x="422.5" y="-123.5" font-family="Helvetica,sans-Serif" font-size="10.00" fill="#000000"> </text>
</g>
<!-- Node4&#45;&gt;Node1 -->
<g id="edge3" class="edge">
<title>Node4&#45;&gt;Node1</title>
<path fill="none" stroke="#404040" d="M441.0061,-116.1649C448.0079,-101.0932 455.9739,-83.946 462.9772,-68.8711"/>
<polygon fill="none" stroke="#404040" points="463.0572,-68.6987 461.9575,-61.572 468.1131,-57.8158 469.2128,-64.9426 463.0572,-68.6987"/>
<text text-anchor="middle" x="472.5" y="-84.5" font-family="Helvetica,sans-Serif" font-size="10.00" fill="#000000"> +init</text>
</g>
<!-- Node5 -->
<g id="node5" class="node">
<title>Node5</title>
<polygon fill="none" stroke="#bfbfbf" points="527,-127.5 527,-184.5 556,-184.5 556,-127.5 527,-127.5"/>
<text text-anchor="middle" x="541.5" y="-172.5" font-family="Helvetica,sans-Serif" font-size="10.00" fill="#000000">int</text>
<polyline fill="none" stroke="#bfbfbf" points="527,-165.5 556,-165.5 "/>
<text text-anchor="middle" x="541.5" y="-153.5" font-family="Helvetica,sans-Serif" font-size="10.00" fill="#000000"> </text>
<polyline fill="none" stroke="#bfbfbf" points="527,-146.5 556,-146.5 "/>
<text text-anchor="middle" x="541.5" y="-134.5" font-family="Helvetica,sans-Serif" font-size="10.00" fill="#000000"> </text>
</g>
<!-- Node5&#45;&gt;Node1 -->
<g id="edge4" class="edge">
<title>Node5&#45;&gt;Node1</title>
<path fill="none" stroke="#404040" d="M528.0348,-127.4987C519.8706,-110.2177 509.3304,-87.9077 500.3463,-68.8913"/>
<polygon fill="none" stroke="#404040" points="500.2539,-68.6956 494.0742,-64.9793 495.1278,-57.8456 501.3076,-61.5619 500.2539,-68.6956"/>
<text text-anchor="middle" x="532.5" y="-84.5" font-family="Helvetica,sans-Serif" font-size="10.00" fill="#000000"> +name</text>
</g>
<!-- Node6 -->
<g id="node6" class="node">
<title>Node6</title>
<polygon fill="none" stroke="#bfbfbf" points="574.5,-127.5 574.5,-184.5 648.5,-184.5 648.5,-127.5 574.5,-127.5"/>
<text text-anchor="middle" x="611.5" y="-172.5" font-family="Helvetica,sans-Serif" font-size="10.00" fill="#000000">ServiceKind</text>
<polyline fill="none" stroke="#bfbfbf" points="574.5,-165.5 648.5,-165.5 "/>
<text text-anchor="middle" x="611.5" y="-153.5" font-family="Helvetica,sans-Serif" font-size="10.00" fill="#000000"> </text>
<polyline fill="none" stroke="#bfbfbf" points="574.5,-146.5 648.5,-146.5 "/>
<text text-anchor="middle" x="611.5" y="-134.5" font-family="Helvetica,sans-Serif" font-size="10.00" fill="#000000"> </text>
</g>
<!-- Node6&#45;&gt;Node1 -->
<g id="edge5" class="edge">
<title>Node6&#45;&gt;Node1</title>
<path fill="none" stroke="#404040" d="M595.6817,-127.1956C585.8257,-110.9275 572.0757,-90.9275 556.5,-76 552.416,-72.086 547.9557,-68.3257 543.3118,-64.756"/>
<polygon fill="none" stroke="#404040" points="543.3011,-64.7483 536.0954,-64.4674 533.5833,-57.7079 540.789,-57.9889 543.3011,-64.7483"/>
<text text-anchor="middle" x="592" y="-84.5" font-family="Helvetica,sans-Serif" font-size="10.00" fill="#000000"> +kind</text>
</g>
<!-- Node7 -->
<g id="node7" class="node">
<title>Node7</title>
<polygon fill="none" stroke="#bfbfbf" points="667,-122 667,-190 824,-190 824,-122 667,-122"/>
<text text-anchor="start" x="675" y="-178" font-family="Helvetica,sans-Serif" font-size="10.00" fill="#000000">function&lt; void(EndOfStream</text>
<text text-anchor="middle" x="745.5" y="-167" font-family="Helvetica,sans-Serif" font-size="10.00" fill="#000000">Context &amp;, void *)&gt;</text>
<polyline fill="none" stroke="#bfbfbf" points="667,-160 824,-160 "/>
<text text-anchor="middle" x="745.5" y="-148" font-family="Helvetica,sans-Serif" font-size="10.00" fill="#000000"> </text>
<polyline fill="none" stroke="#bfbfbf" points="667,-141 824,-141 "/>
<text text-anchor="middle" x="745.5" y="-129" font-family="Helvetica,sans-Serif" font-size="10.00" fill="#000000"> </text>
</g>
<!-- Node7&#45;&gt;Node1 -->
<g id="edge6" class="edge">
<title>Node7&#45;&gt;Node1</title>
<path fill="none" stroke="#404040" d="M694.0667,-121.8167C669.9205,-106.6236 640.3744,-89.225 612.5,-76 598.892,-69.5437 584.1438,-63.4449 569.6176,-57.9122"/>
<polygon fill="none" stroke="#404040" points="569.2867,-57.7891 562.2679,-59.4433 558.0414,-53.6006 565.0602,-51.9464 569.2867,-57.7891"/>
<text text-anchor="middle" x="678" y="-90" font-family="Helvetica,sans-Serif" font-size="10.00" fill="#000000"> +preEOS</text>
<text text-anchor="middle" x="678" y="-79" font-family="Helvetica,sans-Serif" font-size="10.00" fill="#000000">+postEOS</text>
</g>
</g>
</svg>
